G04 #@! TF.GenerationSoftware,KiCad,Pcbnew,6.0.1*
G04 #@! TF.CreationDate,2022-03-12T18:19:46+01:00*
G04 #@! TF.ProjectId,nosecone,6e6f7365-636f-46e6-952e-6b696361645f,rev?*
G04 #@! TF.SameCoordinates,Original*
G04 #@! TF.FileFunction,Copper,L1,Top*
G04 #@! TF.FilePolarity,Positive*
%FSLAX46Y46*%
G04 Gerber Fmt 4.6, Leading zero omitted, Abs format (unit mm)*
G04 Created by KiCad (PCBNEW 6.0.1) date 2022-03-12 18:19:46*
%MOMM*%
%LPD*%
G01*
G04 APERTURE LIST*
G04 Aperture macros list*
%AMRoundRect*
0 Rectangle with rounded corners*
0 $1 Rounding radius*
0 $2 $3 $4 $5 $6 $7 $8 $9 X,Y pos of 4 corners*
0 Add a 4 corners polygon primitive as box body*
4,1,4,$2,$3,$4,$5,$6,$7,$8,$9,$2,$3,0*
0 Add four circle primitives for the rounded corners*
1,1,$1+$1,$2,$3*
1,1,$1+$1,$4,$5*
1,1,$1+$1,$6,$7*
1,1,$1+$1,$8,$9*
0 Add four rect primitives between the rounded corners*
20,1,$1+$1,$2,$3,$4,$5,0*
20,1,$1+$1,$4,$5,$6,$7,0*
20,1,$1+$1,$6,$7,$8,$9,0*
20,1,$1+$1,$8,$9,$2,$3,0*%
G04 Aperture macros list end*
G04 #@! TA.AperFunction,SMDPad,CuDef*
%ADD10RoundRect,0.225000X-0.250000X0.225000X-0.250000X-0.225000X0.250000X-0.225000X0.250000X0.225000X0*%
G04 #@! TD*
G04 #@! TA.AperFunction,SMDPad,CuDef*
%ADD11R,0.650000X1.525000*%
G04 #@! TD*
G04 #@! TA.AperFunction,SMDPad,CuDef*
%ADD12RoundRect,0.225000X0.225000X0.250000X-0.225000X0.250000X-0.225000X-0.250000X0.225000X-0.250000X0*%
G04 #@! TD*
G04 #@! TA.AperFunction,SMDPad,CuDef*
%ADD13RoundRect,0.225000X-0.225000X-0.250000X0.225000X-0.250000X0.225000X0.250000X-0.225000X0.250000X0*%
G04 #@! TD*
G04 #@! TA.AperFunction,SMDPad,CuDef*
%ADD14RoundRect,0.200000X-0.200000X-0.275000X0.200000X-0.275000X0.200000X0.275000X-0.200000X0.275000X0*%
G04 #@! TD*
G04 #@! TA.AperFunction,SMDPad,CuDef*
%ADD15RoundRect,0.200000X0.275000X-0.200000X0.275000X0.200000X-0.275000X0.200000X-0.275000X-0.200000X0*%
G04 #@! TD*
G04 #@! TA.AperFunction,SMDPad,CuDef*
%ADD16RoundRect,0.200000X0.200000X0.275000X-0.200000X0.275000X-0.200000X-0.275000X0.200000X-0.275000X0*%
G04 #@! TD*
G04 #@! TA.AperFunction,ComponentPad*
%ADD17R,1.650000X1.650000*%
G04 #@! TD*
G04 #@! TA.AperFunction,ComponentPad*
%ADD18C,1.650000*%
G04 #@! TD*
G04 #@! TA.AperFunction,SMDPad,CuDef*
%ADD19R,1.000000X2.600000*%
G04 #@! TD*
G04 #@! TA.AperFunction,SMDPad,CuDef*
%ADD20RoundRect,0.200000X-0.275000X0.200000X-0.275000X-0.200000X0.275000X-0.200000X0.275000X0.200000X0*%
G04 #@! TD*
G04 #@! TA.AperFunction,ComponentPad*
%ADD21R,1.600000X1.600000*%
G04 #@! TD*
G04 #@! TA.AperFunction,ComponentPad*
%ADD22O,1.600000X1.600000*%
G04 #@! TD*
G04 #@! TA.AperFunction,ViaPad*
%ADD23C,0.450000*%
G04 #@! TD*
G04 #@! TA.AperFunction,Conductor*
%ADD24C,0.250000*%
G04 #@! TD*
G04 #@! TA.AperFunction,Conductor*
%ADD25C,0.500000*%
G04 #@! TD*
G04 APERTURE END LIST*
D10*
X154890000Y-95625000D03*
X154890000Y-97175000D03*
D11*
X153150000Y-93610000D03*
X151880000Y-93610000D03*
X150610000Y-93610000D03*
X149340000Y-93610000D03*
X149340000Y-99034000D03*
X150610000Y-99034000D03*
X151880000Y-99034000D03*
X153150000Y-99034000D03*
D12*
X150650000Y-91630000D03*
X149100000Y-91630000D03*
D13*
X149835000Y-105110000D03*
X151385000Y-105110000D03*
D14*
X139115000Y-104970000D03*
X140765000Y-104970000D03*
D15*
X130170000Y-104005000D03*
X130170000Y-102355000D03*
D16*
X133335000Y-103960000D03*
X131685000Y-103960000D03*
D10*
X156840000Y-107415000D03*
X156840000Y-108965000D03*
D16*
X144355000Y-104970000D03*
X142705000Y-104970000D03*
D17*
X142490000Y-96570000D03*
D18*
X145030000Y-96570000D03*
D12*
X137765000Y-111010000D03*
X136215000Y-111010000D03*
D14*
X149425000Y-101860000D03*
X151075000Y-101860000D03*
D11*
X155115000Y-107418000D03*
X153845000Y-107418000D03*
X152575000Y-107418000D03*
X151305000Y-107418000D03*
X151305000Y-112842000D03*
X152575000Y-112842000D03*
X153845000Y-112842000D03*
X155115000Y-112842000D03*
D17*
X129160000Y-111720000D03*
D18*
X131700000Y-111720000D03*
D19*
X137310000Y-94780000D03*
X137310000Y-98880000D03*
X135310000Y-94780000D03*
X135310000Y-98880000D03*
X133310000Y-94780000D03*
X133310000Y-98880000D03*
X131310000Y-94780000D03*
X131310000Y-98880000D03*
X129310000Y-94780000D03*
X129310000Y-98880000D03*
D14*
X140055000Y-112880000D03*
X141705000Y-112880000D03*
X131870000Y-91350000D03*
X133520000Y-91350000D03*
D20*
X149120000Y-112645000D03*
X149120000Y-114295000D03*
D21*
X143660000Y-102390000D03*
D22*
X141120000Y-102390000D03*
X138580000Y-102390000D03*
X136040000Y-102390000D03*
X136040000Y-115470000D03*
X138580000Y-115470000D03*
X141120000Y-115470000D03*
X143660000Y-115470000D03*
D12*
X137810000Y-112810000D03*
X136260000Y-112810000D03*
D23*
X130320000Y-99690000D03*
X134270000Y-96620000D03*
X138530000Y-106800000D03*
X136287437Y-97291321D03*
X146970000Y-105690000D03*
X140070000Y-100040000D03*
X151770000Y-100370000D03*
X153880000Y-111320000D03*
X151850000Y-108950000D03*
X138980000Y-109760000D03*
X152140000Y-96730000D03*
X148800000Y-106420000D03*
X146110000Y-107860000D03*
X143470000Y-108220000D03*
X144295000Y-106315000D03*
X146050000Y-93310000D03*
X141710000Y-103920000D03*
X142360000Y-110010000D03*
X156730000Y-98620000D03*
X158030000Y-106190000D03*
X152835000Y-92315000D03*
X157130000Y-106300000D03*
X129310000Y-92730000D03*
X149680000Y-106230000D03*
X147975816Y-105161086D03*
X138520000Y-94900000D03*
X153537306Y-95502694D03*
X150610000Y-94910000D03*
D24*
X134770480Y-100710480D02*
X133310000Y-99250000D01*
X138091207Y-101265489D02*
X137536197Y-100710480D01*
X139995489Y-101265489D02*
X138091207Y-101265489D01*
X139115000Y-104970000D02*
X139115000Y-104395000D01*
X139115000Y-104395000D02*
X141120000Y-102390000D01*
X137536197Y-100710480D02*
X134770480Y-100710480D01*
X133310000Y-99250000D02*
X133310000Y-98880000D01*
X141120000Y-102390000D02*
X139995489Y-101265489D01*
X134905000Y-102390000D02*
X136040000Y-102390000D01*
X129510000Y-98880000D02*
X130320000Y-99690000D01*
X129310000Y-98880000D02*
X129510000Y-98880000D01*
X133335000Y-103960000D02*
X134905000Y-102390000D01*
X140055000Y-112880000D02*
X141120000Y-113945000D01*
X133310000Y-94780000D02*
X133310000Y-95660000D01*
X140055000Y-112880000D02*
X140055000Y-108325000D01*
X140055000Y-108325000D02*
X138570000Y-106840000D01*
X141120000Y-113945000D02*
X141120000Y-115470000D01*
X138570000Y-106840000D02*
X138530000Y-106800000D01*
X133310000Y-95660000D02*
X134270000Y-96620000D01*
X136287437Y-97291321D02*
X136287437Y-97902563D01*
X148339479Y-100034521D02*
X149340000Y-99034000D01*
X142705000Y-104970000D02*
X142705000Y-104535000D01*
X140070000Y-100040000D02*
X140075479Y-100034521D01*
X142705000Y-104535000D02*
X143660000Y-103580000D01*
X136287437Y-97902563D02*
X135310000Y-98880000D01*
X147410000Y-108947000D02*
X151305000Y-112842000D01*
X140075479Y-100034521D02*
X148339479Y-100034521D01*
X147410000Y-106130000D02*
X147410000Y-108947000D01*
X146970000Y-105690000D02*
X147410000Y-106130000D01*
X143660000Y-102390000D02*
X143660000Y-103580000D01*
X138580000Y-102390000D02*
X137350000Y-101160000D01*
X132930000Y-101160000D02*
X131310000Y-99540000D01*
X131310000Y-98880000D02*
X131310000Y-101215000D01*
X131310000Y-99540000D02*
X131310000Y-98880000D01*
X137350000Y-101160000D02*
X132930000Y-101160000D01*
X131310000Y-101215000D02*
X130170000Y-102355000D01*
X145815655Y-97410000D02*
X145506144Y-97719511D01*
X143660000Y-115470000D02*
X151683522Y-115470000D01*
X138499511Y-97719511D02*
X137490000Y-96710000D01*
X133520000Y-92190000D02*
X135310000Y-93980000D01*
X145506144Y-97719511D02*
X138499511Y-97719511D01*
X151880000Y-99034000D02*
X151880000Y-98490000D01*
X153845000Y-113308522D02*
X153845000Y-112842000D01*
X150800000Y-97410000D02*
X145815655Y-97410000D01*
X136790978Y-96710000D02*
X135310000Y-95229022D01*
X135310000Y-93980000D02*
X135310000Y-94780000D01*
X151880000Y-98490000D02*
X150800000Y-97410000D01*
X153880000Y-111320000D02*
X153880000Y-112807000D01*
X135310000Y-95229022D02*
X135310000Y-94780000D01*
X153880000Y-112807000D02*
X153845000Y-112842000D01*
X151880000Y-100260000D02*
X151880000Y-99034000D01*
X151770000Y-100370000D02*
X151880000Y-100260000D01*
X151683522Y-115470000D02*
X153845000Y-113308522D01*
X133520000Y-91350000D02*
X133520000Y-92190000D01*
X137490000Y-96710000D02*
X136790978Y-96710000D01*
D25*
X151305000Y-108405000D02*
X151305000Y-107418000D01*
X144355000Y-106255000D02*
X144295000Y-106315000D01*
X144355000Y-104970000D02*
X144355000Y-106255000D01*
X151850000Y-108950000D02*
X151305000Y-108405000D01*
X136040000Y-115470000D02*
X136040000Y-113030000D01*
X156837000Y-107418000D02*
X157130000Y-107125000D01*
X136215000Y-111010000D02*
X136215000Y-112765000D01*
X157130000Y-107125000D02*
X157130000Y-106300000D01*
X152835000Y-92315000D02*
X152150000Y-91630000D01*
X136215000Y-112765000D02*
X136260000Y-112810000D01*
X129310000Y-94780000D02*
X129310000Y-92730000D01*
X153150000Y-93610000D02*
X153150000Y-92630000D01*
X136040000Y-113030000D02*
X136260000Y-112810000D01*
X153150000Y-92630000D02*
X152835000Y-92315000D01*
X152150000Y-91630000D02*
X150650000Y-91630000D01*
X155115000Y-107418000D02*
X156837000Y-107418000D01*
D24*
X150645000Y-105920000D02*
X149835000Y-105110000D01*
X152575000Y-106980500D02*
X151514500Y-105920000D01*
X149835000Y-106075000D02*
X149680000Y-106230000D01*
X151514500Y-105920000D02*
X150645000Y-105920000D01*
X152575000Y-107418000D02*
X152575000Y-106980500D01*
X149835000Y-105110000D02*
X149835000Y-106075000D01*
X138520000Y-94900000D02*
X138400000Y-94780000D01*
X151559500Y-114295000D02*
X149120000Y-114295000D01*
X147975816Y-105161086D02*
X147975816Y-106888310D01*
X152575000Y-112842000D02*
X152575000Y-113279500D01*
X147975816Y-106888310D02*
X152575000Y-111487494D01*
X138400000Y-94780000D02*
X137310000Y-94780000D01*
X152575000Y-111487494D02*
X152575000Y-112842000D01*
X152575000Y-113279500D02*
X151559500Y-114295000D01*
X150610000Y-99034000D02*
X150610000Y-99987127D01*
X150610000Y-101395000D02*
X151075000Y-101860000D01*
X150610000Y-99987127D02*
X149927127Y-100670000D01*
X139100000Y-100670000D02*
X137310000Y-98880000D01*
X150610000Y-99034000D02*
X150610000Y-101395000D01*
X149927127Y-100670000D02*
X139100000Y-100670000D01*
X151385000Y-105110000D02*
X150235000Y-103960000D01*
X153845000Y-107884522D02*
X153845000Y-107418000D01*
X153845000Y-106980500D02*
X151974500Y-105110000D01*
X153845000Y-107418000D02*
X153845000Y-106980500D01*
X151974500Y-105110000D02*
X151385000Y-105110000D01*
X138757616Y-106250489D02*
X137169511Y-106250489D01*
X150235000Y-103960000D02*
X147900000Y-103960000D01*
X144690000Y-107170000D02*
X139677127Y-107170000D01*
X147900000Y-103960000D02*
X144690000Y-107170000D01*
X137169511Y-106250489D02*
X131700000Y-111720000D01*
X139677127Y-107170000D02*
X138757616Y-106250489D01*
X144150000Y-94910000D02*
X142490000Y-96570000D01*
X150610000Y-93610000D02*
X150610000Y-94910000D01*
X153537306Y-95502694D02*
X153679612Y-95645000D01*
X150610000Y-94910000D02*
X144150000Y-94910000D01*
X153679612Y-95645000D02*
X155140000Y-95645000D01*
X151880000Y-94622500D02*
X151880000Y-93610000D01*
X145030000Y-96570000D02*
X149932500Y-96570000D01*
X155140000Y-97195000D02*
X154452500Y-97195000D01*
X154452500Y-97195000D02*
X151880000Y-94622500D01*
X149932500Y-96570000D02*
X151880000Y-94622500D01*
G04 #@! TA.AperFunction,Conductor*
G36*
X134052790Y-88128412D02*
G01*
X134089719Y-88189048D01*
X134094000Y-88221614D01*
X134094000Y-90278165D01*
X134073998Y-90346286D01*
X134020342Y-90392779D01*
X133950068Y-90402883D01*
X133930326Y-90398400D01*
X133850062Y-90373247D01*
X133776635Y-90366500D01*
X133773737Y-90366500D01*
X133519335Y-90366501D01*
X133263366Y-90366501D01*
X133260508Y-90366764D01*
X133260499Y-90366764D01*
X133226619Y-90369877D01*
X133189938Y-90373247D01*
X133183560Y-90375246D01*
X133183559Y-90375246D01*
X133033550Y-90422256D01*
X133033548Y-90422257D01*
X133026301Y-90424528D01*
X132879619Y-90513361D01*
X132783741Y-90609239D01*
X132721429Y-90643265D01*
X132650614Y-90638200D01*
X132605551Y-90609239D01*
X132515443Y-90519131D01*
X132503574Y-90509824D01*
X132369988Y-90428921D01*
X132356243Y-90422715D01*
X132206356Y-90375744D01*
X132193306Y-90373131D01*
X132138414Y-90368087D01*
X132126876Y-90371475D01*
X132125671Y-90372865D01*
X132124000Y-90380548D01*
X132124000Y-92314884D01*
X132128475Y-92330123D01*
X132129865Y-92331328D01*
X132134294Y-92332291D01*
X132193315Y-92326868D01*
X132206351Y-92324257D01*
X132356243Y-92277285D01*
X132369988Y-92271079D01*
X132503574Y-92190176D01*
X132515443Y-92180869D01*
X132605551Y-92090761D01*
X132667863Y-92056735D01*
X132738678Y-92061800D01*
X132783741Y-92090761D01*
X132850741Y-92157761D01*
X132884767Y-92220073D01*
X132886651Y-92231050D01*
X132886762Y-92231926D01*
X132887006Y-92233858D01*
X132887938Y-92245693D01*
X132889327Y-92289889D01*
X132894978Y-92309339D01*
X132898987Y-92328700D01*
X132901526Y-92348797D01*
X132904445Y-92356168D01*
X132904445Y-92356170D01*
X132917804Y-92389912D01*
X132921649Y-92401142D01*
X132931771Y-92435983D01*
X132933982Y-92443593D01*
X132938015Y-92450412D01*
X132938017Y-92450417D01*
X132944293Y-92461028D01*
X132952988Y-92478776D01*
X132960448Y-92497617D01*
X132965110Y-92504033D01*
X132965110Y-92504034D01*
X132986436Y-92533387D01*
X132992952Y-92543307D01*
X132999465Y-92554319D01*
X133015458Y-92581362D01*
X133029779Y-92595683D01*
X133042619Y-92610716D01*
X133054528Y-92627107D01*
X133078289Y-92646764D01*
X133088605Y-92655298D01*
X133097384Y-92663288D01*
X133190501Y-92756405D01*
X133224527Y-92818717D01*
X133219462Y-92889532D01*
X133176915Y-92946368D01*
X133110395Y-92971179D01*
X133101406Y-92971500D01*
X132761866Y-92971500D01*
X132699684Y-92978255D01*
X132563295Y-93029385D01*
X132446739Y-93116739D01*
X132440848Y-93124600D01*
X132410514Y-93165074D01*
X132353655Y-93207589D01*
X132282836Y-93212615D01*
X132220543Y-93178555D01*
X132208862Y-93165075D01*
X132178283Y-93124274D01*
X132165724Y-93111715D01*
X132063649Y-93035214D01*
X132048054Y-93026676D01*
X131927606Y-92981522D01*
X131912351Y-92977895D01*
X131861486Y-92972369D01*
X131854672Y-92972000D01*
X131582115Y-92972000D01*
X131566876Y-92976475D01*
X131565671Y-92977865D01*
X131564000Y-92985548D01*
X131564000Y-96569884D01*
X131568475Y-96585123D01*
X131569865Y-96586328D01*
X131577548Y-96587999D01*
X131854669Y-96587999D01*
X131861490Y-96587629D01*
X131912352Y-96582105D01*
X131927604Y-96578479D01*
X132048054Y-96533324D01*
X132063649Y-96524786D01*
X132165724Y-96448285D01*
X132178283Y-96435726D01*
X132208862Y-96394925D01*
X132265722Y-96352411D01*
X132336540Y-96347386D01*
X132398834Y-96381446D01*
X132410513Y-96394925D01*
X132446739Y-96443261D01*
X132563295Y-96530615D01*
X132699684Y-96581745D01*
X132761866Y-96588500D01*
X133290404Y-96588500D01*
X133358525Y-96608502D01*
X133379499Y-96625404D01*
X133537109Y-96783013D01*
X133567573Y-96832339D01*
X133591986Y-96905730D01*
X133594508Y-96976681D01*
X133558270Y-97037733D01*
X133494778Y-97069502D01*
X133472427Y-97071500D01*
X132761866Y-97071500D01*
X132699684Y-97078255D01*
X132563295Y-97129385D01*
X132446739Y-97216739D01*
X132410824Y-97264660D01*
X132353967Y-97307173D01*
X132283149Y-97312199D01*
X132220855Y-97278139D01*
X132209183Y-97264670D01*
X132173261Y-97216739D01*
X132056705Y-97129385D01*
X131920316Y-97078255D01*
X131858134Y-97071500D01*
X130761866Y-97071500D01*
X130699684Y-97078255D01*
X130563295Y-97129385D01*
X130446739Y-97216739D01*
X130410824Y-97264660D01*
X130353967Y-97307173D01*
X130283149Y-97312199D01*
X130220855Y-97278139D01*
X130209183Y-97264670D01*
X130173261Y-97216739D01*
X130056705Y-97129385D01*
X129920316Y-97078255D01*
X129858134Y-97071500D01*
X128761866Y-97071500D01*
X128699684Y-97078255D01*
X128563295Y-97129385D01*
X128446739Y-97216739D01*
X128359385Y-97333295D01*
X128308255Y-97469684D01*
X128301500Y-97531866D01*
X128301500Y-100228134D01*
X128308255Y-100290316D01*
X128359385Y-100426705D01*
X128446739Y-100543261D01*
X128563295Y-100630615D01*
X128699684Y-100681745D01*
X128761866Y-100688500D01*
X129858134Y-100688500D01*
X129920316Y-100681745D01*
X130056705Y-100630615D01*
X130173261Y-100543261D01*
X130209176Y-100495340D01*
X130266033Y-100452827D01*
X130336851Y-100447801D01*
X130399145Y-100481861D01*
X130410817Y-100495330D01*
X130446739Y-100543261D01*
X130563295Y-100630615D01*
X130571703Y-100633767D01*
X130571707Y-100633769D01*
X130594731Y-100642401D01*
X130651495Y-100685043D01*
X130676194Y-100751605D01*
X130676500Y-100760382D01*
X130676500Y-100900405D01*
X130656498Y-100968526D01*
X130639595Y-100989500D01*
X130219500Y-101409595D01*
X130157188Y-101443621D01*
X130130405Y-101446500D01*
X129856386Y-101446501D01*
X129838366Y-101446501D01*
X129835508Y-101446764D01*
X129835499Y-101446764D01*
X129799996Y-101450026D01*
X129764938Y-101453247D01*
X129758560Y-101455246D01*
X129758559Y-101455246D01*
X129608550Y-101502256D01*
X129608548Y-101502257D01*
X129601301Y-101504528D01*
X129454619Y-101593361D01*
X129333361Y-101714619D01*
X129244528Y-101861301D01*
X129242257Y-101868548D01*
X129242256Y-101868550D01*
X129230271Y-101906796D01*
X129193247Y-102024938D01*
X129186500Y-102098365D01*
X129186501Y-102611634D01*
X129186764Y-102614492D01*
X129186764Y-102614501D01*
X129190026Y-102650004D01*
X129193247Y-102685062D01*
X129195246Y-102691440D01*
X129195246Y-102691441D01*
X129241565Y-102839243D01*
X129244528Y-102848699D01*
X129333361Y-102995381D01*
X129429239Y-103091259D01*
X129463265Y-103153571D01*
X129458200Y-103224386D01*
X129429239Y-103269449D01*
X129339131Y-103359557D01*
X129329824Y-103371426D01*
X129248921Y-103505012D01*
X129242715Y-103518757D01*
X129195744Y-103668644D01*
X129193131Y-103681694D01*
X129188087Y-103736586D01*
X129191475Y-103748124D01*
X129192865Y-103749329D01*
X129200548Y-103751000D01*
X130718885Y-103751000D01*
X130737885Y-103745421D01*
X130791284Y-103711104D01*
X130826782Y-103706000D01*
X131412885Y-103706000D01*
X131428124Y-103701525D01*
X131429329Y-103700135D01*
X131431000Y-103692452D01*
X131431000Y-102995116D01*
X131426525Y-102979877D01*
X131425135Y-102978672D01*
X131420706Y-102977709D01*
X131361685Y-102983132D01*
X131348649Y-102985743D01*
X131248660Y-103017077D01*
X131177675Y-103018361D01*
X131117264Y-102981064D01*
X131086608Y-102917027D01*
X131095646Y-102848754D01*
X131095472Y-102848699D01*
X131095786Y-102847697D01*
X131098436Y-102839243D01*
X131141891Y-102700576D01*
X131146753Y-102685062D01*
X131153500Y-102611635D01*
X131153499Y-102319594D01*
X131173501Y-102251475D01*
X131190404Y-102230500D01*
X131702247Y-101718657D01*
X131710537Y-101711113D01*
X131717018Y-101707000D01*
X131763659Y-101657332D01*
X131766413Y-101654491D01*
X131786134Y-101634770D01*
X131788612Y-101631575D01*
X131796318Y-101622553D01*
X131811862Y-101606000D01*
X131826586Y-101590321D01*
X131836346Y-101572568D01*
X131847199Y-101556045D01*
X131854753Y-101546306D01*
X131859613Y-101540041D01*
X131877176Y-101499457D01*
X131882383Y-101488827D01*
X131903695Y-101450060D01*
X131905666Y-101442383D01*
X131905668Y-101442378D01*
X131908732Y-101430442D01*
X131915138Y-101411730D01*
X131920034Y-101400417D01*
X131923181Y-101393145D01*
X131930097Y-101349481D01*
X131932501Y-101337871D01*
X131934656Y-101329474D01*
X131970964Y-101268464D01*
X132034493Y-101236769D01*
X132105073Y-101244451D01*
X132145796Y-101271701D01*
X132426348Y-101552253D01*
X132433888Y-101560539D01*
X132438000Y-101567018D01*
X132443777Y-101572443D01*
X132487651Y-101613643D01*
X132490493Y-101616398D01*
X132510230Y-101636135D01*
X132513427Y-101638615D01*
X132522447Y-101646318D01*
X132554679Y-101676586D01*
X132561625Y-101680405D01*
X132561628Y-101680407D01*
X132572434Y-101686348D01*
X132588953Y-101697199D01*
X132604959Y-101709614D01*
X132612228Y-101712759D01*
X132612232Y-101712762D01*
X132645537Y-101727174D01*
X132656187Y-101732391D01*
X132694940Y-101753695D01*
X132702615Y-101755666D01*
X132702616Y-101755666D01*
X132714562Y-101758733D01*
X132733267Y-101765137D01*
X132751855Y-101773181D01*
X132759678Y-101774420D01*
X132759688Y-101774423D01*
X132795524Y-101780099D01*
X132807144Y-101782505D01*
X132842289Y-101791528D01*
X132849970Y-101793500D01*
X132870224Y-101793500D01*
X132889934Y-101795051D01*
X132909943Y-101798220D01*
X132917835Y-101797474D01*
X132953961Y-101794059D01*
X132965819Y-101793500D01*
X134301405Y-101793500D01*
X134369526Y-101813502D01*
X134416019Y-101867158D01*
X134426123Y-101937432D01*
X134396629Y-102002012D01*
X134390500Y-102008595D01*
X133459500Y-102939595D01*
X133397188Y-102973621D01*
X133370405Y-102976500D01*
X133096386Y-102976501D01*
X133078366Y-102976501D01*
X133075508Y-102976764D01*
X133075499Y-102976764D01*
X133041619Y-102979877D01*
X133004938Y-102983247D01*
X132998560Y-102985246D01*
X132998559Y-102985246D01*
X132848550Y-103032256D01*
X132848548Y-103032257D01*
X132841301Y-103034528D01*
X132694619Y-103123361D01*
X132598741Y-103219239D01*
X132536429Y-103253265D01*
X132465614Y-103248200D01*
X132420551Y-103219239D01*
X132330443Y-103129131D01*
X132318574Y-103119824D01*
X132184988Y-103038921D01*
X132171243Y-103032715D01*
X132021356Y-102985744D01*
X132008306Y-102983131D01*
X131953414Y-102978087D01*
X131941876Y-102981475D01*
X131940671Y-102982865D01*
X131939000Y-102990548D01*
X131939000Y-104924884D01*
X131943475Y-104940123D01*
X131944865Y-104941328D01*
X131949294Y-104942291D01*
X132008315Y-104936868D01*
X132021351Y-104934257D01*
X132171243Y-104887285D01*
X132184988Y-104881079D01*
X132318574Y-104800176D01*
X132330443Y-104790869D01*
X132420551Y-104700761D01*
X132482863Y-104666735D01*
X132553678Y-104671800D01*
X132598741Y-104700761D01*
X132694619Y-104796639D01*
X132841301Y-104885472D01*
X132848548Y-104887743D01*
X132848550Y-104887744D01*
X132910427Y-104907135D01*
X133004938Y-104936753D01*
X133078365Y-104943500D01*
X133081263Y-104943500D01*
X133335665Y-104943499D01*
X133591634Y-104943499D01*
X133594492Y-104943236D01*
X133594501Y-104943236D01*
X133630004Y-104939974D01*
X133665062Y-104936753D01*
X133673030Y-104934256D01*
X133821450Y-104887744D01*
X133821452Y-104887743D01*
X133828699Y-104885472D01*
X133975381Y-104796639D01*
X134096639Y-104675381D01*
X134185472Y-104528699D01*
X134236753Y-104365062D01*
X134243500Y-104291635D01*
X134243499Y-103999594D01*
X134263501Y-103931475D01*
X134280404Y-103910500D01*
X134906108Y-103284796D01*
X134968420Y-103250770D01*
X135039235Y-103255835D01*
X135084298Y-103284796D01*
X135195700Y-103396198D01*
X135200208Y-103399355D01*
X135200211Y-103399357D01*
X135241542Y-103428297D01*
X135383251Y-103527523D01*
X135388233Y-103529846D01*
X135388238Y-103529849D01*
X135469501Y-103567742D01*
X135590757Y-103624284D01*
X135596065Y-103625706D01*
X135596067Y-103625707D01*
X135806598Y-103682119D01*
X135806600Y-103682119D01*
X135811913Y-103683543D01*
X136040000Y-103703498D01*
X136268087Y-103683543D01*
X136273400Y-103682119D01*
X136273402Y-103682119D01*
X136483933Y-103625707D01*
X136483935Y-103625706D01*
X136489243Y-103624284D01*
X136610499Y-103567742D01*
X136691762Y-103529849D01*
X136691767Y-103529846D01*
X136696749Y-103527523D01*
X136838458Y-103428297D01*
X136879789Y-103399357D01*
X136879792Y-103399355D01*
X136884300Y-103396198D01*
X137046198Y-103234300D01*
X137177523Y-103046749D01*
X137179846Y-103041767D01*
X137179849Y-103041762D01*
X137195805Y-103007543D01*
X137242722Y-102954258D01*
X137310999Y-102934797D01*
X137378959Y-102955339D01*
X137424195Y-103007543D01*
X137440151Y-103041762D01*
X137440154Y-103041767D01*
X137442477Y-103046749D01*
X137573802Y-103234300D01*
X137735700Y-103396198D01*
X137740208Y-103399355D01*
X137740211Y-103399357D01*
X137781542Y-103428297D01*
X137923251Y-103527523D01*
X137928233Y-103529846D01*
X137928238Y-103529849D01*
X138009501Y-103567742D01*
X138130757Y-103624284D01*
X138136065Y-103625706D01*
X138136067Y-103625707D01*
X138346598Y-103682119D01*
X138346600Y-103682119D01*
X138351913Y-103683543D01*
X138580000Y-103703498D01*
X138585475Y-103703019D01*
X138585485Y-103703019D01*
X138594845Y-103702200D01*
X138664450Y-103716188D01*
X138715443Y-103765587D01*
X138731634Y-103834712D01*
X138707882Y-103901618D01*
X138697680Y-103913971D01*
X138675523Y-103937566D01*
X138661357Y-103952651D01*
X138658602Y-103955493D01*
X138638865Y-103975230D01*
X138636385Y-103978427D01*
X138628682Y-103987447D01*
X138598414Y-104019679D01*
X138594595Y-104026625D01*
X138594593Y-104026628D01*
X138588652Y-104037434D01*
X138577805Y-104053947D01*
X138567365Y-104067408D01*
X138533078Y-104097958D01*
X138474619Y-104133361D01*
X138353361Y-104254619D01*
X138264528Y-104401301D01*
X138262257Y-104408548D01*
X138262256Y-104408550D01*
X138255191Y-104431095D01*
X138213247Y-104564938D01*
X138206500Y-104638365D01*
X138206501Y-105301634D01*
X138206764Y-105304492D01*
X138206764Y-105304501D01*
X138208886Y-105327597D01*
X138213247Y-105375062D01*
X138237769Y-105453312D01*
X138239054Y-105524294D01*
X138201757Y-105584705D01*
X138137720Y-105615362D01*
X138117535Y-105616989D01*
X137248279Y-105616989D01*
X137237096Y-105616462D01*
X137229603Y-105614787D01*
X137221677Y-105615036D01*
X137221676Y-105615036D01*
X137161513Y-105616927D01*
X137157555Y-105616989D01*
X137129655Y-105616989D01*
X137125665Y-105617493D01*
X137113831Y-105618425D01*
X137069622Y-105619815D01*
X137062006Y-105622028D01*
X137062004Y-105622028D01*
X137050163Y-105625468D01*
X137030804Y-105629477D01*
X137029494Y-105629643D01*
X137010714Y-105632015D01*
X137003348Y-105634931D01*
X137003342Y-105634933D01*
X136969609Y-105648289D01*
X136958379Y-105652134D01*
X136923528Y-105662259D01*
X136915918Y-105664470D01*
X136909095Y-105668505D01*
X136898477Y-105674784D01*
X136880724Y-105683481D01*
X136875926Y-105685381D01*
X136861894Y-105690937D01*
X136855479Y-105695598D01*
X136826123Y-105716926D01*
X136816206Y-105723440D01*
X136778149Y-105745947D01*
X136763828Y-105760268D01*
X136748795Y-105773108D01*
X136732404Y-105785017D01*
X136727353Y-105791123D01*
X136704213Y-105819094D01*
X136696223Y-105827873D01*
X132133661Y-110390435D01*
X132071349Y-110424461D01*
X132011955Y-110423047D01*
X131937759Y-110403166D01*
X131937757Y-110403166D01*
X131932444Y-110401742D01*
X131700000Y-110381406D01*
X131467556Y-110401742D01*
X131462243Y-110403166D01*
X131462241Y-110403166D01*
X131247484Y-110460710D01*
X131247482Y-110460711D01*
X131242174Y-110462133D01*
X131237194Y-110464455D01*
X131237192Y-110464456D01*
X131035690Y-110558418D01*
X131035685Y-110558421D01*
X131030703Y-110560744D01*
X131026196Y-110563900D01*
X131026194Y-110563901D01*
X130844079Y-110691419D01*
X130844076Y-110691421D01*
X130839568Y-110694578D01*
X130695892Y-110838254D01*
X130633580Y-110872280D01*
X130562765Y-110867215D01*
X130505929Y-110824668D01*
X130487133Y-110784538D01*
X130486745Y-110784684D01*
X130484915Y-110779803D01*
X130483972Y-110777285D01*
X130438767Y-110656703D01*
X130435615Y-110648295D01*
X130348261Y-110531739D01*
X130231705Y-110444385D01*
X130095316Y-110393255D01*
X130033134Y-110386500D01*
X128286866Y-110386500D01*
X128224684Y-110393255D01*
X128088295Y-110444385D01*
X127971739Y-110531739D01*
X127884385Y-110648295D01*
X127833255Y-110784684D01*
X127826500Y-110846866D01*
X127826500Y-112593134D01*
X127833255Y-112655316D01*
X127884385Y-112791705D01*
X127971739Y-112908261D01*
X128088295Y-112995615D01*
X128224684Y-113046745D01*
X128286866Y-113053500D01*
X128668977Y-113053500D01*
X128737098Y-113073502D01*
X128783591Y-113127158D01*
X128793695Y-113197432D01*
X128764201Y-113262012D01*
X128728131Y-113290751D01*
X128576847Y-113371191D01*
X128576845Y-113371192D01*
X128571401Y-113374087D01*
X128511529Y-113422917D01*
X128415311Y-113501390D01*
X128415308Y-113501393D01*
X128410536Y-113505285D01*
X128406608Y-113510033D01*
X128406607Y-113510034D01*
X128334817Y-113596813D01*
X128278217Y-113665230D01*
X128275288Y-113670647D01*
X128275286Y-113670650D01*
X128182416Y-113842410D01*
X128182414Y-113842415D01*
X128179486Y-113847830D01*
X128118102Y-114046129D01*
X128117458Y-114052254D01*
X128117458Y-114052255D01*
X128101152Y-114207404D01*
X128096404Y-114252575D01*
X128115218Y-114459303D01*
X128116956Y-114465209D01*
X128116957Y-114465213D01*
X128141544Y-114548751D01*
X128173827Y-114658440D01*
X128269999Y-114842400D01*
X128400071Y-115004177D01*
X128404788Y-115008135D01*
X128404790Y-115008137D01*
X128419830Y-115020757D01*
X128559089Y-115137609D01*
X128564481Y-115140573D01*
X128564485Y-115140576D01*
X128735598Y-115234646D01*
X128740995Y-115237613D01*
X128938861Y-115300379D01*
X128944978Y-115301065D01*
X128944982Y-115301066D01*
X129021598Y-115309659D01*
X129100413Y-115318500D01*
X129212237Y-115318500D01*
X129215293Y-115318200D01*
X129215300Y-115318200D01*
X129360466Y-115303966D01*
X129360469Y-115303965D01*
X129366592Y-115303365D01*
X129498546Y-115263526D01*
X129559407Y-115245152D01*
X129559410Y-115245151D01*
X129565315Y-115243368D01*
X129572635Y-115239476D01*
X129743153Y-115148809D01*
X129743155Y-115148808D01*
X129748599Y-115145913D01*
X129808471Y-115097083D01*
X129904689Y-115018610D01*
X129904692Y-115018607D01*
X129909464Y-115014715D01*
X130041783Y-114854770D01*
X130045876Y-114847201D01*
X130137584Y-114677590D01*
X130137586Y-114677585D01*
X130140514Y-114672170D01*
X130201898Y-114473871D01*
X130203429Y-114459303D01*
X130222952Y-114273554D01*
X130222952Y-114273552D01*
X130223596Y-114267425D01*
X130209542Y-114113000D01*
X130205341Y-114066836D01*
X130205340Y-114066833D01*
X130204782Y-114060697D01*
X130202298Y-114052255D01*
X130147912Y-113867469D01*
X130146173Y-113861560D01*
X130050001Y-113677600D01*
X129919929Y-113515823D01*
X129910479Y-113507893D01*
X129765629Y-113386350D01*
X129760911Y-113382391D01*
X129755519Y-113379427D01*
X129755515Y-113379424D01*
X129594219Y-113290751D01*
X129592698Y-113289915D01*
X129542639Y-113239569D01*
X129527746Y-113170152D01*
X129552747Y-113103703D01*
X129609704Y-113061319D01*
X129653399Y-113053500D01*
X130033134Y-113053500D01*
X130095316Y-113046745D01*
X130231705Y-112995615D01*
X130348261Y-112908261D01*
X130435615Y-112791705D01*
X130450875Y-112751000D01*
X130483973Y-112662711D01*
X130483973Y-112662709D01*
X130486745Y-112655316D01*
X130487661Y-112655660D01*
X130519434Y-112600046D01*
X130582390Y-112567228D01*
X130653095Y-112573655D01*
X130695892Y-112601746D01*
X130839568Y-112745422D01*
X130844076Y-112748579D01*
X130844079Y-112748581D01*
X131019569Y-112871460D01*
X131030703Y-112879256D01*
X131035685Y-112881579D01*
X131035690Y-112881582D01*
X131224085Y-112969432D01*
X131242174Y-112977867D01*
X131247482Y-112979289D01*
X131247484Y-112979290D01*
X131295208Y-112992077D01*
X131367013Y-113011318D01*
X131427635Y-113048269D01*
X131458656Y-113112129D01*
X131450228Y-113182624D01*
X131405025Y-113237371D01*
X131370819Y-113253646D01*
X131325318Y-113267383D01*
X131294685Y-113276632D01*
X131289240Y-113279527D01*
X131289238Y-113279528D01*
X131116847Y-113371191D01*
X131116845Y-113371192D01*
X131111401Y-113374087D01*
X131051529Y-113422917D01*
X130955311Y-113501390D01*
X130955308Y-113501393D01*
X130950536Y-113505285D01*
X130946608Y-113510033D01*
X130946607Y-113510034D01*
X130874817Y-113596813D01*
X130818217Y-113665230D01*
X130815288Y-113670647D01*
X130815286Y-113670650D01*
X130722416Y-113842410D01*
X130722414Y-113842415D01*
X130719486Y-113847830D01*
X130658102Y-114046129D01*
X130657458Y-114052254D01*
X130657458Y-114052255D01*
X130641152Y-114207404D01*
X130636404Y-114252575D01*
X130655218Y-114459303D01*
X130656956Y-114465209D01*
X130656957Y-114465213D01*
X130681544Y-114548751D01*
X130713827Y-114658440D01*
X130809999Y-114842400D01*
X130940071Y-115004177D01*
X130944788Y-115008135D01*
X130944790Y-115008137D01*
X130959830Y-115020757D01*
X131099089Y-115137609D01*
X131104481Y-115140573D01*
X131104485Y-115140576D01*
X131275598Y-115234646D01*
X131280995Y-115237613D01*
X131478861Y-115300379D01*
X131484978Y-115301065D01*
X131484982Y-115301066D01*
X131561598Y-115309659D01*
X131640413Y-115318500D01*
X131752237Y-115318500D01*
X131755293Y-115318200D01*
X131755300Y-115318200D01*
X131900466Y-115303966D01*
X131900469Y-115303965D01*
X131906592Y-115303365D01*
X132038546Y-115263526D01*
X132099407Y-115245152D01*
X132099410Y-115245151D01*
X132105315Y-115243368D01*
X132112635Y-115239476D01*
X132283153Y-115148809D01*
X132283155Y-115148808D01*
X132288599Y-115145913D01*
X132348471Y-115097083D01*
X132444689Y-115018610D01*
X132444692Y-115018607D01*
X132449464Y-115014715D01*
X132581783Y-114854770D01*
X132585876Y-114847201D01*
X132677584Y-114677590D01*
X132677586Y-114677585D01*
X132680514Y-114672170D01*
X132741898Y-114473871D01*
X132743429Y-114459303D01*
X132762952Y-114273554D01*
X132762952Y-114273552D01*
X132763596Y-114267425D01*
X132749542Y-114113000D01*
X132745341Y-114066836D01*
X132745340Y-114066833D01*
X132744782Y-114060697D01*
X132742298Y-114052255D01*
X132687912Y-113867469D01*
X132686173Y-113861560D01*
X132590001Y-113677600D01*
X132459929Y-113515823D01*
X132450479Y-113507893D01*
X132305629Y-113386350D01*
X132300911Y-113382391D01*
X132295519Y-113379427D01*
X132295515Y-113379424D01*
X132124402Y-113285354D01*
X132119005Y-113282387D01*
X132027100Y-113253233D01*
X131968217Y-113213571D01*
X131940124Y-113148369D01*
X131951741Y-113078330D01*
X131999381Y-113025689D01*
X132032587Y-113011425D01*
X132152519Y-112979289D01*
X132157826Y-112977867D01*
X132175915Y-112969432D01*
X132364310Y-112881582D01*
X132364315Y-112881579D01*
X132369297Y-112879256D01*
X132380431Y-112871460D01*
X132555921Y-112748581D01*
X132555924Y-112748579D01*
X132560432Y-112745422D01*
X132725422Y-112580432D01*
X132730168Y-112573655D01*
X132856099Y-112393806D01*
X132856100Y-112393804D01*
X132859256Y-112389297D01*
X132861579Y-112384315D01*
X132861582Y-112384310D01*
X132955544Y-112182808D01*
X132955545Y-112182806D01*
X132957867Y-112177826D01*
X132966660Y-112145012D01*
X133016834Y-111957759D01*
X133016834Y-111957757D01*
X133018258Y-111952444D01*
X133038594Y-111720000D01*
X133018258Y-111487556D01*
X132999679Y-111418217D01*
X132996953Y-111408045D01*
X132998643Y-111337069D01*
X133029565Y-111286339D01*
X137395010Y-106920894D01*
X137457322Y-106886868D01*
X137484105Y-106883989D01*
X137694003Y-106883989D01*
X137762124Y-106903991D01*
X137808617Y-106957647D01*
X137813555Y-106970201D01*
X137859932Y-107109615D01*
X137863581Y-107115640D01*
X137919660Y-107208236D01*
X137945179Y-107250373D01*
X137950070Y-107255438D01*
X137950071Y-107255439D01*
X137985800Y-107292437D01*
X138059491Y-107368747D01*
X138197189Y-107458854D01*
X138203793Y-107461310D01*
X138203795Y-107461311D01*
X138323901Y-107505978D01*
X138369076Y-107534980D01*
X139384595Y-108550499D01*
X139418621Y-108612811D01*
X139421500Y-108639594D01*
X139421500Y-111984290D01*
X139401498Y-112052411D01*
X139384595Y-112073385D01*
X139293361Y-112164619D01*
X139204528Y-112311301D01*
X139153247Y-112474938D01*
X139146500Y-112548365D01*
X139146501Y-113211634D01*
X139146764Y-113214492D01*
X139146764Y-113214501D01*
X139149067Y-113239569D01*
X139153247Y-113285062D01*
X139155246Y-113291440D01*
X139155246Y-113291441D01*
X139197294Y-113425614D01*
X139204528Y-113448699D01*
X139293361Y-113595381D01*
X139414619Y-113716639D01*
X139561301Y-113805472D01*
X139568548Y-113807743D01*
X139568550Y-113807744D01*
X139634836Y-113828517D01*
X139724938Y-113856753D01*
X139798365Y-113863500D01*
X139816474Y-113863500D01*
X140090406Y-113863499D01*
X140158525Y-113883501D01*
X140179500Y-113900404D01*
X140444309Y-114165213D01*
X140478335Y-114227525D01*
X140473270Y-114298340D01*
X140427486Y-114357520D01*
X140386970Y-114385890D01*
X140280211Y-114460643D01*
X140280208Y-114460645D01*
X140275700Y-114463802D01*
X140113802Y-114625700D01*
X140110645Y-114630208D01*
X140110643Y-114630211D01*
X140085385Y-114666283D01*
X139982477Y-114813251D01*
X139980154Y-114818233D01*
X139980151Y-114818238D01*
X139963919Y-114853049D01*
X139917002Y-114906334D01*
X139848725Y-114925795D01*
X139780765Y-114905253D01*
X139735529Y-114853049D01*
X139719414Y-114818489D01*
X139713931Y-114808993D01*
X139588972Y-114630533D01*
X139581916Y-114622125D01*
X139427875Y-114468084D01*
X139419467Y-114461028D01*
X139241007Y-114336069D01*
X139231511Y-114330586D01*
X139034053Y-114238510D01*
X139023761Y-114234764D01*
X138851497Y-114188606D01*
X138837401Y-114188942D01*
X138834000Y-114196884D01*
X138834000Y-115598000D01*
X138813998Y-115666121D01*
X138760342Y-115712614D01*
X138708000Y-115724000D01*
X138452000Y-115724000D01*
X138383879Y-115703998D01*
X138337386Y-115650342D01*
X138326000Y-115598000D01*
X138326000Y-114202033D01*
X138322027Y-114188502D01*
X138313478Y-114187273D01*
X138136239Y-114234764D01*
X138125947Y-114238510D01*
X137928489Y-114330586D01*
X137918993Y-114336069D01*
X137740533Y-114461028D01*
X137732125Y-114468084D01*
X137578084Y-114622125D01*
X137571028Y-114630533D01*
X137446069Y-114808993D01*
X137440586Y-114818489D01*
X137424471Y-114853049D01*
X137377554Y-114906334D01*
X137309277Y-114925795D01*
X137241317Y-114905253D01*
X137196081Y-114853049D01*
X137179849Y-114818238D01*
X137179846Y-114818233D01*
X137177523Y-114813251D01*
X137074615Y-114666283D01*
X137049357Y-114630211D01*
X137049355Y-114630208D01*
X137046198Y-114625700D01*
X136884300Y-114463802D01*
X136852229Y-114441345D01*
X136807901Y-114385890D01*
X136798500Y-114338133D01*
X136798500Y-113798816D01*
X136818502Y-113730695D01*
X136858197Y-113691672D01*
X136937487Y-113642606D01*
X136937494Y-113642600D01*
X136943713Y-113638752D01*
X136948882Y-113633574D01*
X136954620Y-113629026D01*
X136956051Y-113630832D01*
X137008575Y-113602098D01*
X137079395Y-113607108D01*
X137115853Y-113630499D01*
X137116683Y-113629448D01*
X137133840Y-113642998D01*
X137266880Y-113725004D01*
X137280061Y-113731151D01*
X137428814Y-113780491D01*
X137442190Y-113783358D01*
X137533097Y-113792672D01*
X137538126Y-113792929D01*
X137553124Y-113788525D01*
X137554329Y-113787135D01*
X137556000Y-113779452D01*
X137556000Y-113774885D01*
X138064000Y-113774885D01*
X138068475Y-113790124D01*
X138069865Y-113791329D01*
X138077548Y-113793000D01*
X138080438Y-113793000D01*
X138086953Y-113792663D01*
X138179057Y-113783106D01*
X138192456Y-113780212D01*
X138341107Y-113730619D01*
X138354286Y-113724445D01*
X138487173Y-113642212D01*
X138498574Y-113633176D01*
X138608986Y-113522571D01*
X138617998Y-113511160D01*
X138700004Y-113378120D01*
X138706151Y-113364939D01*
X138755491Y-113216186D01*
X138758358Y-113202810D01*
X138767672Y-113111903D01*
X138768000Y-113105487D01*
X138768000Y-113082115D01*
X138763525Y-113066876D01*
X138762135Y-113065671D01*
X138754452Y-113064000D01*
X138082115Y-113064000D01*
X138066876Y-113068475D01*
X138065671Y-113069865D01*
X138064000Y-113077548D01*
X138064000Y-113774885D01*
X137556000Y-113774885D01*
X137556000Y-112051115D01*
X137550421Y-112032115D01*
X137516104Y-111978716D01*
X137511000Y-111943218D01*
X137511000Y-111768885D01*
X138019000Y-111768885D01*
X138024579Y-111787885D01*
X138058896Y-111841284D01*
X138064000Y-111876782D01*
X138064000Y-112537885D01*
X138068475Y-112553124D01*
X138069865Y-112554329D01*
X138077548Y-112556000D01*
X138749885Y-112556000D01*
X138765124Y-112551525D01*
X138766329Y-112550135D01*
X138768000Y-112542452D01*
X138768000Y-112514562D01*
X138767663Y-112508047D01*
X138758106Y-112415943D01*
X138755212Y-112402544D01*
X138705619Y-112253893D01*
X138699445Y-112240714D01*
X138617212Y-112107827D01*
X138608176Y-112096426D01*
X138492391Y-111980843D01*
X138493576Y-111979656D01*
X138457675Y-111929019D01*
X138454442Y-111858096D01*
X138487655Y-111799036D01*
X138563985Y-111722572D01*
X138572998Y-111711160D01*
X138655004Y-111578120D01*
X138661151Y-111564939D01*
X138710491Y-111416186D01*
X138713358Y-111402810D01*
X138722672Y-111311903D01*
X138723000Y-111305487D01*
X138723000Y-111282115D01*
X138718525Y-111266876D01*
X138717135Y-111265671D01*
X138709452Y-111264000D01*
X138037115Y-111264000D01*
X138021876Y-111268475D01*
X138020671Y-111269865D01*
X138019000Y-111277548D01*
X138019000Y-111768885D01*
X137511000Y-111768885D01*
X137511000Y-110737885D01*
X138019000Y-110737885D01*
X138023475Y-110753124D01*
X138024865Y-110754329D01*
X138032548Y-110756000D01*
X138704885Y-110756000D01*
X138720124Y-110751525D01*
X138721329Y-110750135D01*
X138723000Y-110742452D01*
X138723000Y-110714562D01*
X138722663Y-110708047D01*
X138713106Y-110615943D01*
X138710212Y-110602544D01*
X138660619Y-110453893D01*
X138654445Y-110440714D01*
X138572212Y-110307827D01*
X138563176Y-110296426D01*
X138452571Y-110186014D01*
X138441160Y-110177002D01*
X138308120Y-110094996D01*
X138294939Y-110088849D01*
X138146186Y-110039509D01*
X138132810Y-110036642D01*
X138041903Y-110027328D01*
X138036874Y-110027071D01*
X138021876Y-110031475D01*
X138020671Y-110032865D01*
X138019000Y-110040548D01*
X138019000Y-110737885D01*
X137511000Y-110737885D01*
X137511000Y-110045115D01*
X137506525Y-110029876D01*
X137505135Y-110028671D01*
X137497452Y-110027000D01*
X137494562Y-110027000D01*
X137488047Y-110027337D01*
X137395943Y-110036894D01*
X137382544Y-110039788D01*
X137233893Y-110089381D01*
X137220714Y-110095555D01*
X137087827Y-110177788D01*
X137070689Y-110191371D01*
X137069159Y-110189441D01*
X137017120Y-110217903D01*
X136946301Y-110212887D01*
X136909383Y-110189201D01*
X136908628Y-110190157D01*
X136902882Y-110185619D01*
X136897702Y-110180448D01*
X136891471Y-110176607D01*
X136758331Y-110094538D01*
X136758329Y-110094537D01*
X136752101Y-110090698D01*
X136589757Y-110036851D01*
X136582920Y-110036151D01*
X136582918Y-110036150D01*
X136541599Y-110031917D01*
X136488732Y-110026500D01*
X135941268Y-110026500D01*
X135938022Y-110026837D01*
X135938018Y-110026837D01*
X135908730Y-110029876D01*
X135838981Y-110037113D01*
X135830963Y-110039788D01*
X135683676Y-110088927D01*
X135683674Y-110088928D01*
X135676732Y-110091244D01*
X135531287Y-110181248D01*
X135526114Y-110186430D01*
X135521182Y-110191371D01*
X135410448Y-110302298D01*
X135406608Y-110308528D01*
X135406607Y-110308529D01*
X135349150Y-110401742D01*
X135320698Y-110447899D01*
X135266851Y-110610243D01*
X135256500Y-110711268D01*
X135256500Y-111308732D01*
X135256837Y-111311978D01*
X135256837Y-111311982D01*
X135257669Y-111320000D01*
X135267113Y-111411019D01*
X135272808Y-111428090D01*
X135315201Y-111555154D01*
X135321244Y-111573268D01*
X135325096Y-111579492D01*
X135325096Y-111579493D01*
X135358994Y-111634271D01*
X135411248Y-111718713D01*
X135416431Y-111723887D01*
X135419520Y-111726971D01*
X135420958Y-111729599D01*
X135420977Y-111729623D01*
X135420973Y-111729626D01*
X135453598Y-111789254D01*
X135456500Y-111816142D01*
X135456500Y-112064877D01*
X135437760Y-112130993D01*
X135389853Y-112208713D01*
X135365698Y-112247899D01*
X135311851Y-112410243D01*
X135301500Y-112511268D01*
X135301500Y-112841512D01*
X135297889Y-112871460D01*
X135282192Y-112935610D01*
X135281500Y-112946764D01*
X135281464Y-112946762D01*
X135281225Y-112950755D01*
X135280851Y-112954947D01*
X135279360Y-112962115D01*
X135279558Y-112969432D01*
X135281454Y-113039521D01*
X135281500Y-113042928D01*
X135281500Y-114338133D01*
X135261498Y-114406254D01*
X135227772Y-114441345D01*
X135195700Y-114463802D01*
X135033802Y-114625700D01*
X135030645Y-114630208D01*
X135030643Y-114630211D01*
X135005385Y-114666283D01*
X134902477Y-114813251D01*
X134900154Y-114818233D01*
X134900151Y-114818238D01*
X134813447Y-115004177D01*
X134805716Y-115020757D01*
X134746457Y-115241913D01*
X134726502Y-115470000D01*
X134746457Y-115698087D01*
X134747881Y-115703400D01*
X134747881Y-115703402D01*
X134800934Y-115901395D01*
X134805716Y-115919243D01*
X134808039Y-115924224D01*
X134808039Y-115924225D01*
X134900151Y-116121762D01*
X134900154Y-116121767D01*
X134902477Y-116126749D01*
X134905634Y-116131257D01*
X134918381Y-116149462D01*
X134941069Y-116216736D01*
X134923784Y-116285596D01*
X134872015Y-116334180D01*
X134815168Y-116347733D01*
X134610702Y-116347733D01*
X134609932Y-116347731D01*
X134609078Y-116347726D01*
X134532348Y-116347257D01*
X134523719Y-116349723D01*
X134523714Y-116349724D01*
X134503952Y-116355372D01*
X134487191Y-116358950D01*
X134466848Y-116361863D01*
X134466838Y-116361866D01*
X134457955Y-116363138D01*
X134434605Y-116373754D01*
X134417093Y-116380197D01*
X134409057Y-116382494D01*
X134392435Y-116387245D01*
X134367452Y-116403007D01*
X134352386Y-116411137D01*
X134325490Y-116423366D01*
X134306061Y-116440107D01*
X134291053Y-116451212D01*
X134269369Y-116464893D01*
X134263427Y-116471621D01*
X134249819Y-116487029D01*
X134237627Y-116499073D01*
X134215253Y-116518352D01*
X134210374Y-116525880D01*
X134210371Y-116525883D01*
X134201304Y-116539872D01*
X134190014Y-116554746D01*
X134173044Y-116573961D01*
X134160490Y-116600699D01*
X134152176Y-116615668D01*
X134136107Y-116640460D01*
X134133535Y-116649060D01*
X134128761Y-116665023D01*
X134122099Y-116682469D01*
X134111201Y-116705681D01*
X134106658Y-116734861D01*
X134102874Y-116751582D01*
X134096986Y-116771269D01*
X134096985Y-116771272D01*
X134094413Y-116779874D01*
X134094358Y-116788849D01*
X134094358Y-116788850D01*
X134094203Y-116814279D01*
X134094170Y-116815061D01*
X134094000Y-116816156D01*
X134094000Y-116847031D01*
X134093998Y-116847801D01*
X134093524Y-116925385D01*
X134093908Y-116926729D01*
X134094000Y-116928074D01*
X134094000Y-120938386D01*
X134073998Y-121006507D01*
X134020342Y-121053000D01*
X133950068Y-121063104D01*
X133918445Y-121054232D01*
X133231521Y-120760378D01*
X133226177Y-120757943D01*
X132484794Y-120399002D01*
X132479564Y-120396317D01*
X131755729Y-120003184D01*
X131750643Y-120000266D01*
X131045932Y-119573795D01*
X131040981Y-119570639D01*
X130356945Y-119111769D01*
X130352140Y-119108381D01*
X129690223Y-118618083D01*
X129685591Y-118614481D01*
X129047301Y-118093868D01*
X129042833Y-118090047D01*
X128429514Y-117540222D01*
X128425230Y-117536197D01*
X127838211Y-116958346D01*
X127834132Y-116954139D01*
X127425487Y-116512494D01*
X127274710Y-116349540D01*
X127270819Y-116345133D01*
X126740210Y-115715098D01*
X126736529Y-115710514D01*
X126436183Y-115318107D01*
X126235881Y-115056409D01*
X126232424Y-115051666D01*
X126210977Y-115020757D01*
X125835579Y-114479756D01*
X125762855Y-114374950D01*
X125759617Y-114370044D01*
X125358770Y-113730619D01*
X125322106Y-113672134D01*
X125319102Y-113667084D01*
X125304680Y-113641498D01*
X125182988Y-113425614D01*
X124914622Y-112949523D01*
X124911856Y-112944336D01*
X124678804Y-112481685D01*
X124541294Y-112208702D01*
X124538777Y-112203402D01*
X124524986Y-112172516D01*
X124202923Y-111451263D01*
X124200656Y-111445849D01*
X124193701Y-111428090D01*
X123900266Y-110678897D01*
X123898250Y-110673375D01*
X123770549Y-110296426D01*
X123633951Y-109893214D01*
X123632197Y-109887609D01*
X123519629Y-109496107D01*
X123404577Y-109095967D01*
X123403089Y-109090297D01*
X123401997Y-109085700D01*
X123212647Y-108288912D01*
X123211425Y-108283183D01*
X123211053Y-108281209D01*
X123058566Y-107473762D01*
X123057611Y-107467961D01*
X123032574Y-107290282D01*
X122942682Y-106652338D01*
X122941999Y-106646518D01*
X122940687Y-106632494D01*
X122887139Y-106060388D01*
X122865237Y-105826387D01*
X122864826Y-105820522D01*
X122826404Y-104997723D01*
X122826267Y-104991846D01*
X122826267Y-104168154D01*
X122826404Y-104162277D01*
X122846422Y-103733600D01*
X125030926Y-103733600D01*
X125050791Y-103986003D01*
X125051945Y-103990810D01*
X125051946Y-103990816D01*
X125085319Y-104129824D01*
X125109895Y-104232191D01*
X125111788Y-104236762D01*
X125111789Y-104236764D01*
X125192284Y-104431095D01*
X125206784Y-104466102D01*
X125339072Y-104681976D01*
X125503502Y-104874498D01*
X125696024Y-105038928D01*
X125911898Y-105171216D01*
X125916468Y-105173109D01*
X125916472Y-105173111D01*
X126141236Y-105266211D01*
X126145809Y-105268105D01*
X126230432Y-105288421D01*
X126387184Y-105326054D01*
X126387190Y-105326055D01*
X126391997Y-105327209D01*
X126491816Y-105335065D01*
X126578745Y-105341907D01*
X126578752Y-105341907D01*
X126581201Y-105342100D01*
X126707599Y-105342100D01*
X126710048Y-105341907D01*
X126710055Y-105341907D01*
X126796984Y-105335065D01*
X126896803Y-105327209D01*
X126901610Y-105326055D01*
X126901616Y-105326054D01*
X127058368Y-105288421D01*
X127142991Y-105268105D01*
X127147564Y-105266211D01*
X127372328Y-105173111D01*
X127372332Y-105173109D01*
X127376902Y-105171216D01*
X127592776Y-105038928D01*
X127785298Y-104874498D01*
X127949728Y-104681976D01*
X128082016Y-104466102D01*
X128096517Y-104431095D01*
X128163537Y-104269294D01*
X129187709Y-104269294D01*
X129193132Y-104328315D01*
X129195743Y-104341351D01*
X129242715Y-104491243D01*
X129248921Y-104504988D01*
X129329824Y-104638574D01*
X129339131Y-104650443D01*
X129449557Y-104760869D01*
X129461426Y-104770176D01*
X129595012Y-104851079D01*
X129608757Y-104857285D01*
X129758644Y-104904256D01*
X129771694Y-104906869D01*
X129835521Y-104912734D01*
X129841309Y-104913000D01*
X129897885Y-104913000D01*
X129913124Y-104908525D01*
X129914329Y-104907135D01*
X129916000Y-104899452D01*
X129916000Y-104894884D01*
X130424000Y-104894884D01*
X130428475Y-104910123D01*
X130429865Y-104911328D01*
X130437548Y-104912999D01*
X130498705Y-104912999D01*
X130504454Y-104912736D01*
X130568315Y-104906868D01*
X130581351Y-104904257D01*
X130731243Y-104857285D01*
X130744992Y-104851077D01*
X130881443Y-104768440D01*
X130950073Y-104750261D01*
X131017636Y-104772072D01*
X131035809Y-104787121D01*
X131039557Y-104790869D01*
X131051426Y-104800176D01*
X131185012Y-104881079D01*
X131198757Y-104887285D01*
X131348644Y-104934256D01*
X131361694Y-104936869D01*
X131416586Y-104941913D01*
X131428124Y-104938525D01*
X131429329Y-104937135D01*
X131431000Y-104929452D01*
X131431000Y-104232115D01*
X131426525Y-104216876D01*
X131425135Y-104215671D01*
X131417452Y-104214000D01*
X131211115Y-104214000D01*
X131192115Y-104219579D01*
X131138716Y-104253896D01*
X131103218Y-104259000D01*
X130442115Y-104259000D01*
X130426876Y-104263475D01*
X130425671Y-104264865D01*
X130424000Y-104272548D01*
X130424000Y-104894884D01*
X129916000Y-104894884D01*
X129916000Y-104277115D01*
X129911525Y-104261876D01*
X129910135Y-104260671D01*
X129902452Y-104259000D01*
X129205116Y-104259000D01*
X129189877Y-104263475D01*
X129188672Y-104264865D01*
X129187709Y-104269294D01*
X128163537Y-104269294D01*
X128177011Y-104236764D01*
X128177012Y-104236762D01*
X128178905Y-104232191D01*
X128203481Y-104129824D01*
X128236854Y-103990816D01*
X128236855Y-103990810D01*
X128238009Y-103986003D01*
X128257874Y-103733600D01*
X128238009Y-103481197D01*
X128236205Y-103473680D01*
X128188070Y-103273184D01*
X128178905Y-103235009D01*
X128169067Y-103211258D01*
X128083911Y-103005672D01*
X128083909Y-103005668D01*
X128082016Y-103001098D01*
X127949728Y-102785224D01*
X127785298Y-102592702D01*
X127592776Y-102428272D01*
X127376902Y-102295984D01*
X127372332Y-102294091D01*
X127372328Y-102294089D01*
X127147564Y-102200989D01*
X127147562Y-102200988D01*
X127142991Y-102199095D01*
X127058368Y-102178779D01*
X126901616Y-102141146D01*
X126901610Y-102141145D01*
X126896803Y-102139991D01*
X126796731Y-102132115D01*
X126710055Y-102125293D01*
X126710048Y-102125293D01*
X126707599Y-102125100D01*
X126581201Y-102125100D01*
X126578752Y-102125293D01*
X126578745Y-102125293D01*
X126492069Y-102132115D01*
X126391997Y-102139991D01*
X126387190Y-102141145D01*
X126387184Y-102141146D01*
X126230432Y-102178779D01*
X126145809Y-102199095D01*
X126141238Y-102200988D01*
X126141236Y-102200989D01*
X125916472Y-102294089D01*
X125916468Y-102294091D01*
X125911898Y-102295984D01*
X125696024Y-102428272D01*
X125503502Y-102592702D01*
X125339072Y-102785224D01*
X125206784Y-103001098D01*
X125204891Y-103005668D01*
X125204889Y-103005672D01*
X125119733Y-103211258D01*
X125109895Y-103235009D01*
X125100730Y-103273184D01*
X125052596Y-103473680D01*
X125050791Y-103481197D01*
X125030926Y-103733600D01*
X122846422Y-103733600D01*
X122864826Y-103339478D01*
X122865237Y-103333613D01*
X122898346Y-102979877D01*
X122942001Y-102513463D01*
X122942684Y-102507643D01*
X122947849Y-102470994D01*
X123057611Y-101692039D01*
X123058566Y-101686238D01*
X123068551Y-101633363D01*
X123211429Y-100876797D01*
X123212647Y-100871088D01*
X123403093Y-100069687D01*
X123404581Y-100064017D01*
X123461513Y-99866015D01*
X123632199Y-99272385D01*
X123633953Y-99266780D01*
X123669138Y-99162922D01*
X123888559Y-98515230D01*
X123898250Y-98486625D01*
X123900266Y-98481103D01*
X124030518Y-98148546D01*
X124200660Y-97714141D01*
X124202927Y-97708728D01*
X124203998Y-97706329D01*
X124538782Y-96956588D01*
X124541299Y-96951287D01*
X124568133Y-96898018D01*
X124779277Y-96478858D01*
X124911856Y-96215664D01*
X124914622Y-96210477D01*
X124961038Y-96128134D01*
X128301500Y-96128134D01*
X128308255Y-96190316D01*
X128359385Y-96326705D01*
X128446739Y-96443261D01*
X128563295Y-96530615D01*
X128699684Y-96581745D01*
X128761866Y-96588500D01*
X129858134Y-96588500D01*
X129920316Y-96581745D01*
X130056705Y-96530615D01*
X130173261Y-96443261D01*
X130209487Y-96394925D01*
X130266345Y-96352411D01*
X130337164Y-96347385D01*
X130399457Y-96381445D01*
X130411138Y-96394925D01*
X130441717Y-96435726D01*
X130454276Y-96448285D01*
X130556351Y-96524786D01*
X130571946Y-96533324D01*
X130692394Y-96578478D01*
X130707649Y-96582105D01*
X130758514Y-96587631D01*
X130765328Y-96588000D01*
X131037885Y-96588000D01*
X131053124Y-96583525D01*
X131054329Y-96582135D01*
X131056000Y-96574452D01*
X131056000Y-92990116D01*
X131051525Y-92974877D01*
X131050135Y-92973672D01*
X131042452Y-92972001D01*
X130765331Y-92972001D01*
X130758510Y-92972371D01*
X130707648Y-92977895D01*
X130692396Y-92981521D01*
X130571946Y-93026676D01*
X130556351Y-93035214D01*
X130454276Y-93111715D01*
X130441717Y-93124274D01*
X130411138Y-93165075D01*
X130354278Y-93207589D01*
X130283460Y-93212614D01*
X130221166Y-93178554D01*
X130209486Y-93165074D01*
X130179153Y-93124600D01*
X130173261Y-93116739D01*
X130118935Y-93076024D01*
X130076420Y-93019165D01*
X130068500Y-92975198D01*
X130068500Y-92685707D01*
X130058822Y-92602697D01*
X130054030Y-92561589D01*
X130054029Y-92561585D01*
X130053182Y-92554319D01*
X130037818Y-92511991D01*
X129995329Y-92394939D01*
X129995329Y-92394938D01*
X129992833Y-92388063D01*
X129987630Y-92380126D01*
X129899868Y-92246267D01*
X129899867Y-92246266D01*
X129895856Y-92240148D01*
X129767453Y-92118510D01*
X129614510Y-92029674D01*
X129607506Y-92027553D01*
X129607502Y-92027551D01*
X129452239Y-91980527D01*
X129452240Y-91980527D01*
X129445233Y-91978405D01*
X129268702Y-91967453D01*
X129261486Y-91968693D01*
X129261484Y-91968693D01*
X129101602Y-91996166D01*
X129094386Y-91997406D01*
X128931636Y-92066657D01*
X128925748Y-92070990D01*
X128925743Y-92070993D01*
X128827416Y-92143355D01*
X128789182Y-92171492D01*
X128784443Y-92177070D01*
X128784440Y-92177073D01*
X128679406Y-92300706D01*
X128679403Y-92300710D01*
X128674667Y-92306285D01*
X128661581Y-92331913D01*
X128599163Y-92454150D01*
X128594231Y-92463808D01*
X128592492Y-92470913D01*
X128592491Y-92470917D01*
X128578768Y-92527000D01*
X128552192Y-92635610D01*
X128551500Y-92646764D01*
X128551500Y-92975198D01*
X128531498Y-93043319D01*
X128501065Y-93076024D01*
X128446739Y-93116739D01*
X128359385Y-93233295D01*
X128308255Y-93369684D01*
X128301500Y-93431866D01*
X128301500Y-96128134D01*
X124961038Y-96128134D01*
X125249600Y-95616215D01*
X125319104Y-95492913D01*
X125322108Y-95487863D01*
X125759617Y-94789956D01*
X125762855Y-94785050D01*
X126094016Y-94307800D01*
X126232430Y-94108325D01*
X126235887Y-94103583D01*
X126301331Y-94018080D01*
X126736529Y-93449486D01*
X126740210Y-93444902D01*
X127270819Y-92814867D01*
X127274710Y-92810460D01*
X127574920Y-92486006D01*
X127834132Y-92205861D01*
X127838211Y-92201654D01*
X128369457Y-91678705D01*
X130962001Y-91678705D01*
X130962264Y-91684454D01*
X130968132Y-91748315D01*
X130970743Y-91761351D01*
X131017715Y-91911243D01*
X131023921Y-91924988D01*
X131104824Y-92058574D01*
X131114131Y-92070443D01*
X131224557Y-92180869D01*
X131236426Y-92190176D01*
X131370012Y-92271079D01*
X131383757Y-92277285D01*
X131533644Y-92324256D01*
X131546694Y-92326869D01*
X131601586Y-92331913D01*
X131613124Y-92328525D01*
X131614329Y-92327135D01*
X131616000Y-92319452D01*
X131616000Y-91622115D01*
X131611525Y-91606876D01*
X131610135Y-91605671D01*
X131602452Y-91604000D01*
X130980116Y-91604000D01*
X130964877Y-91608475D01*
X130963672Y-91609865D01*
X130962001Y-91617548D01*
X130962001Y-91678705D01*
X128369457Y-91678705D01*
X128425230Y-91623803D01*
X128429514Y-91619778D01*
X128442123Y-91608475D01*
X129020320Y-91090135D01*
X129033985Y-91077885D01*
X130962000Y-91077885D01*
X130966475Y-91093124D01*
X130967865Y-91094329D01*
X130975548Y-91096000D01*
X131597885Y-91096000D01*
X131613124Y-91091525D01*
X131614329Y-91090135D01*
X131616000Y-91082452D01*
X131616000Y-90385116D01*
X131611525Y-90369877D01*
X131610135Y-90368672D01*
X131605706Y-90367709D01*
X131546685Y-90373132D01*
X131533649Y-90375743D01*
X131383757Y-90422715D01*
X131370012Y-90428921D01*
X131236426Y-90509824D01*
X131224557Y-90519131D01*
X131114131Y-90629557D01*
X131104824Y-90641426D01*
X131023921Y-90775012D01*
X131017715Y-90788757D01*
X130970744Y-90938644D01*
X130968131Y-90951694D01*
X130962266Y-91015521D01*
X130962000Y-91021309D01*
X130962000Y-91077885D01*
X129033985Y-91077885D01*
X129042833Y-91069953D01*
X129047301Y-91066132D01*
X129401320Y-90777381D01*
X129685600Y-90545512D01*
X129690232Y-90541910D01*
X129720985Y-90519131D01*
X130352144Y-90051616D01*
X130356945Y-90048231D01*
X131040981Y-89589361D01*
X131045938Y-89586201D01*
X131750643Y-89159734D01*
X131755729Y-89156816D01*
X132479564Y-88763683D01*
X132484794Y-88760998D01*
X133226177Y-88402057D01*
X133231526Y-88399620D01*
X133918444Y-88105769D01*
X133988941Y-88097366D01*
X134052790Y-88128412D01*
G37*
G04 #@! TD.AperFunction*
G04 #@! TA.AperFunction,Conductor*
G36*
X146558801Y-106301269D02*
G01*
X146583761Y-106313892D01*
X146637189Y-106348854D01*
X146643793Y-106351310D01*
X146694420Y-106370138D01*
X146751296Y-106412631D01*
X146776170Y-106479128D01*
X146776500Y-106488236D01*
X146776500Y-108868233D01*
X146775973Y-108879416D01*
X146774298Y-108886909D01*
X146774547Y-108894835D01*
X146774547Y-108894836D01*
X146776438Y-108954986D01*
X146776500Y-108958945D01*
X146776500Y-108986856D01*
X146776997Y-108990790D01*
X146776997Y-108990791D01*
X146777005Y-108990856D01*
X146777938Y-109002693D01*
X146779327Y-109046889D01*
X146784978Y-109066339D01*
X146788987Y-109085700D01*
X146791526Y-109105797D01*
X146794445Y-109113168D01*
X146794445Y-109113170D01*
X146807804Y-109146912D01*
X146811649Y-109158142D01*
X146823982Y-109200593D01*
X146828015Y-109207412D01*
X146828017Y-109207417D01*
X146834293Y-109218028D01*
X146842988Y-109235776D01*
X146850448Y-109254617D01*
X146855110Y-109261033D01*
X146855110Y-109261034D01*
X146876436Y-109290387D01*
X146882952Y-109300307D01*
X146905458Y-109338362D01*
X146919779Y-109352683D01*
X146932619Y-109367716D01*
X146944528Y-109384107D01*
X146950634Y-109389158D01*
X146978605Y-109412298D01*
X146987384Y-109420288D01*
X149089003Y-111521907D01*
X149123028Y-111584218D01*
X149117963Y-111655033D01*
X149075416Y-111711869D01*
X149008896Y-111736680D01*
X148999907Y-111737001D01*
X148791295Y-111737001D01*
X148785546Y-111737264D01*
X148721685Y-111743132D01*
X148708649Y-111745743D01*
X148558757Y-111792715D01*
X148545012Y-111798921D01*
X148411426Y-111879824D01*
X148399557Y-111889131D01*
X148289131Y-111999557D01*
X148279824Y-112011426D01*
X148198921Y-112145012D01*
X148192715Y-112158757D01*
X148145744Y-112308644D01*
X148143131Y-112321694D01*
X148138087Y-112376586D01*
X148141475Y-112388124D01*
X148142865Y-112389329D01*
X148150548Y-112391000D01*
X149248000Y-112391000D01*
X149316121Y-112411002D01*
X149362614Y-112464658D01*
X149374000Y-112517000D01*
X149374000Y-112773000D01*
X149353998Y-112841121D01*
X149300342Y-112887614D01*
X149248000Y-112899000D01*
X148155116Y-112899000D01*
X148139877Y-112903475D01*
X148138672Y-112904865D01*
X148137709Y-112909294D01*
X148143132Y-112968315D01*
X148145743Y-112981351D01*
X148192715Y-113131243D01*
X148198921Y-113144988D01*
X148279824Y-113278574D01*
X148289131Y-113290443D01*
X148379239Y-113380551D01*
X148413265Y-113442863D01*
X148408200Y-113513678D01*
X148379239Y-113558741D01*
X148283361Y-113654619D01*
X148194528Y-113801301D01*
X148192257Y-113808548D01*
X148192256Y-113808550D01*
X148175644Y-113861560D01*
X148143247Y-113964938D01*
X148136500Y-114038365D01*
X148136501Y-114551634D01*
X148143247Y-114625062D01*
X148155418Y-114663899D01*
X148158214Y-114672820D01*
X148159499Y-114743805D01*
X148122202Y-114804216D01*
X148058165Y-114834873D01*
X148037980Y-114836500D01*
X144879394Y-114836500D01*
X144811273Y-114816498D01*
X144776181Y-114782771D01*
X144669357Y-114630211D01*
X144669355Y-114630208D01*
X144666198Y-114625700D01*
X144504300Y-114463802D01*
X144499792Y-114460645D01*
X144499789Y-114460643D01*
X144393030Y-114385890D01*
X144316749Y-114332477D01*
X144311767Y-114330154D01*
X144311762Y-114330151D01*
X144114225Y-114238039D01*
X144114224Y-114238039D01*
X144109243Y-114235716D01*
X144103935Y-114234294D01*
X144103933Y-114234293D01*
X143893402Y-114177881D01*
X143893400Y-114177881D01*
X143888087Y-114176457D01*
X143660000Y-114156502D01*
X143431913Y-114176457D01*
X143426600Y-114177881D01*
X143426598Y-114177881D01*
X143216067Y-114234293D01*
X143216065Y-114234294D01*
X143210757Y-114235716D01*
X143205776Y-114238039D01*
X143205775Y-114238039D01*
X143008238Y-114330151D01*
X143008233Y-114330154D01*
X143003251Y-114332477D01*
X142926970Y-114385890D01*
X142820211Y-114460643D01*
X142820208Y-114460645D01*
X142815700Y-114463802D01*
X142653802Y-114625700D01*
X142650645Y-114630208D01*
X142650643Y-114630211D01*
X142625385Y-114666283D01*
X142522477Y-114813251D01*
X142520154Y-114818233D01*
X142520151Y-114818238D01*
X142504195Y-114852457D01*
X142457278Y-114905742D01*
X142389001Y-114925203D01*
X142321041Y-114904661D01*
X142275805Y-114852457D01*
X142259849Y-114818238D01*
X142259846Y-114818233D01*
X142257523Y-114813251D01*
X142154615Y-114666283D01*
X142129357Y-114630211D01*
X142129355Y-114630208D01*
X142126198Y-114625700D01*
X141964300Y-114463802D01*
X141959792Y-114460645D01*
X141959789Y-114460643D01*
X141807229Y-114353819D01*
X141762901Y-114298362D01*
X141753500Y-114250606D01*
X141753500Y-114023763D01*
X141754027Y-114012579D01*
X141755701Y-114005091D01*
X141755320Y-113992953D01*
X141756154Y-113989744D01*
X141756198Y-113989276D01*
X141756274Y-113989283D01*
X141773174Y-113924238D01*
X141825344Y-113876085D01*
X141881258Y-113862999D01*
X141958705Y-113862999D01*
X141964454Y-113862736D01*
X142028315Y-113856868D01*
X142041351Y-113854257D01*
X142191243Y-113807285D01*
X142204988Y-113801079D01*
X142338574Y-113720176D01*
X142350443Y-113710869D01*
X142460869Y-113600443D01*
X142470176Y-113588574D01*
X142551079Y-113454988D01*
X142557285Y-113441243D01*
X142604256Y-113291356D01*
X142606869Y-113278306D01*
X142612734Y-113214479D01*
X142613000Y-113208691D01*
X142613000Y-113152115D01*
X142608525Y-113136876D01*
X142607135Y-113135671D01*
X142599452Y-113134000D01*
X141577000Y-113134000D01*
X141508879Y-113113998D01*
X141462386Y-113060342D01*
X141451000Y-113008000D01*
X141451000Y-112607885D01*
X141959000Y-112607885D01*
X141963475Y-112623124D01*
X141964865Y-112624329D01*
X141972548Y-112626000D01*
X142594884Y-112626000D01*
X142610123Y-112621525D01*
X142611328Y-112620135D01*
X142612999Y-112612452D01*
X142612999Y-112551295D01*
X142612736Y-112545546D01*
X142606868Y-112481685D01*
X142604257Y-112468649D01*
X142557285Y-112318757D01*
X142551079Y-112305012D01*
X142470176Y-112171426D01*
X142460869Y-112159557D01*
X142350443Y-112049131D01*
X142338574Y-112039824D01*
X142204988Y-111958921D01*
X142191243Y-111952715D01*
X142041356Y-111905744D01*
X142028306Y-111903131D01*
X141973414Y-111898087D01*
X141961876Y-111901475D01*
X141960671Y-111902865D01*
X141959000Y-111910548D01*
X141959000Y-112607885D01*
X141451000Y-112607885D01*
X141451000Y-111915116D01*
X141446525Y-111899877D01*
X141445135Y-111898672D01*
X141440706Y-111897709D01*
X141381685Y-111903132D01*
X141368649Y-111905743D01*
X141218757Y-111952715D01*
X141205012Y-111958921D01*
X141071426Y-112039824D01*
X141059557Y-112049131D01*
X140969449Y-112139239D01*
X140907137Y-112173265D01*
X140836322Y-112168200D01*
X140791259Y-112139239D01*
X140725405Y-112073385D01*
X140691379Y-112011073D01*
X140688500Y-111984290D01*
X140688500Y-108403767D01*
X140689027Y-108392584D01*
X140690702Y-108385091D01*
X140690092Y-108365668D01*
X140688562Y-108317014D01*
X140688500Y-108313055D01*
X140688500Y-108285144D01*
X140687995Y-108281144D01*
X140687062Y-108269301D01*
X140685922Y-108233029D01*
X140685673Y-108225110D01*
X140680022Y-108205658D01*
X140676014Y-108186306D01*
X140674467Y-108174063D01*
X140673474Y-108166203D01*
X140670556Y-108158832D01*
X140657200Y-108125097D01*
X140653355Y-108113870D01*
X140651832Y-108108628D01*
X140641018Y-108071407D01*
X140630707Y-108053972D01*
X140622012Y-108036224D01*
X140614552Y-108017383D01*
X140609891Y-108010967D01*
X140609889Y-108010964D01*
X140604510Y-108003561D01*
X140580651Y-107936693D01*
X140596732Y-107867542D01*
X140647646Y-107818061D01*
X140706446Y-107803500D01*
X144611233Y-107803500D01*
X144622416Y-107804027D01*
X144629909Y-107805702D01*
X144637835Y-107805453D01*
X144637836Y-107805453D01*
X144697986Y-107803562D01*
X144701945Y-107803500D01*
X144729856Y-107803500D01*
X144733791Y-107803003D01*
X144733856Y-107802995D01*
X144745693Y-107802062D01*
X144777951Y-107801048D01*
X144781970Y-107800922D01*
X144789889Y-107800673D01*
X144809343Y-107795021D01*
X144828700Y-107791013D01*
X144840930Y-107789468D01*
X144840931Y-107789468D01*
X144848797Y-107788474D01*
X144856168Y-107785555D01*
X144856170Y-107785555D01*
X144889912Y-107772196D01*
X144901142Y-107768351D01*
X144935983Y-107758229D01*
X144935984Y-107758229D01*
X144943593Y-107756018D01*
X144950412Y-107751985D01*
X144950417Y-107751983D01*
X144961028Y-107745707D01*
X144978776Y-107737012D01*
X144997617Y-107729552D01*
X145033387Y-107703564D01*
X145043307Y-107697048D01*
X145074535Y-107678580D01*
X145074538Y-107678578D01*
X145081362Y-107674542D01*
X145095683Y-107660221D01*
X145110717Y-107647380D01*
X145120694Y-107640131D01*
X145127107Y-107635472D01*
X145155298Y-107601395D01*
X145163288Y-107592616D01*
X146425674Y-106330230D01*
X146487986Y-106296204D01*
X146558801Y-106301269D01*
G37*
G04 #@! TD.AperFunction*
G04 #@! TA.AperFunction,Conductor*
G36*
X148821897Y-105404763D02*
G01*
X148871796Y-105455266D01*
X148884784Y-105497458D01*
X148884946Y-105497423D01*
X148885353Y-105499308D01*
X148886175Y-105501978D01*
X148887113Y-105511019D01*
X148889295Y-105517559D01*
X148938309Y-105664470D01*
X148941244Y-105673268D01*
X148945096Y-105679492D01*
X148945096Y-105679493D01*
X148952178Y-105690937D01*
X149003028Y-105773109D01*
X149010868Y-105785779D01*
X149029706Y-105854231D01*
X149018178Y-105901557D01*
X149018838Y-105901797D01*
X149016666Y-105907763D01*
X149016665Y-105907768D01*
X149000460Y-105952291D01*
X148964966Y-106049809D01*
X148964965Y-106049814D01*
X148962556Y-106056432D01*
X148941931Y-106219694D01*
X148957989Y-106383468D01*
X149009932Y-106539615D01*
X149013581Y-106545640D01*
X149082538Y-106659500D01*
X149095179Y-106680373D01*
X149209491Y-106798747D01*
X149347189Y-106888854D01*
X149501428Y-106946215D01*
X149508409Y-106947146D01*
X149508411Y-106947147D01*
X149657561Y-106967048D01*
X149657565Y-106967048D01*
X149664542Y-106967979D01*
X149671553Y-106967341D01*
X149671557Y-106967341D01*
X149821403Y-106953704D01*
X149821404Y-106953704D01*
X149828424Y-106953065D01*
X149877965Y-106936968D01*
X149978230Y-106904390D01*
X149978233Y-106904389D01*
X149984929Y-106902213D01*
X150126279Y-106817951D01*
X150245449Y-106704468D01*
X150249351Y-106698595D01*
X150249476Y-106698446D01*
X150308585Y-106659118D01*
X150379573Y-106657990D01*
X150439901Y-106695420D01*
X150470417Y-106759524D01*
X150472000Y-106779435D01*
X150472000Y-107145885D01*
X150476475Y-107161124D01*
X150477865Y-107162329D01*
X150485548Y-107164000D01*
X151433000Y-107164000D01*
X151501121Y-107184002D01*
X151547614Y-107237658D01*
X151559000Y-107290000D01*
X151559000Y-108670384D01*
X151563475Y-108685623D01*
X151564865Y-108686828D01*
X151572548Y-108688499D01*
X151674669Y-108688499D01*
X151681490Y-108688129D01*
X151732352Y-108682605D01*
X151747604Y-108678979D01*
X151868058Y-108633823D01*
X151878965Y-108627851D01*
X151948322Y-108612682D01*
X151998268Y-108627347D01*
X152003295Y-108631115D01*
X152011696Y-108634264D01*
X152011699Y-108634266D01*
X152092414Y-108664524D01*
X152139684Y-108682245D01*
X152201866Y-108689000D01*
X152948134Y-108689000D01*
X153010316Y-108682245D01*
X153057586Y-108664524D01*
X153138301Y-108634266D01*
X153138304Y-108634264D01*
X153146705Y-108631115D01*
X153151164Y-108627773D01*
X153218848Y-108612970D01*
X153268561Y-108627567D01*
X153273295Y-108631115D01*
X153281696Y-108634264D01*
X153281699Y-108634266D01*
X153362414Y-108664524D01*
X153409684Y-108682245D01*
X153471866Y-108689000D01*
X154218134Y-108689000D01*
X154280316Y-108682245D01*
X154327586Y-108664524D01*
X154408301Y-108634266D01*
X154408304Y-108634264D01*
X154416705Y-108631115D01*
X154421164Y-108627773D01*
X154488848Y-108612970D01*
X154538561Y-108627567D01*
X154543295Y-108631115D01*
X154551696Y-108634264D01*
X154551699Y-108634266D01*
X154632414Y-108664524D01*
X154679684Y-108682245D01*
X154741866Y-108689000D01*
X155488134Y-108689000D01*
X155550316Y-108682245D01*
X155655437Y-108642837D01*
X155678303Y-108634265D01*
X155678304Y-108634264D01*
X155686705Y-108631115D01*
X155686953Y-108631776D01*
X155749475Y-108618101D01*
X155816023Y-108642837D01*
X155858634Y-108699624D01*
X155861465Y-108708116D01*
X155862865Y-108709329D01*
X155870548Y-108711000D01*
X156968000Y-108711000D01*
X157036121Y-108731002D01*
X157082614Y-108784658D01*
X157094000Y-108837000D01*
X157094000Y-109904885D01*
X157098475Y-109920124D01*
X157099865Y-109921329D01*
X157107548Y-109923000D01*
X157135438Y-109923000D01*
X157141953Y-109922663D01*
X157234057Y-109913106D01*
X157247456Y-109910212D01*
X157364068Y-109871308D01*
X157435018Y-109868724D01*
X157496102Y-109904908D01*
X157527926Y-109968372D01*
X157523282Y-110031261D01*
X157305750Y-110673375D01*
X157303734Y-110678897D01*
X157010300Y-111428090D01*
X157003344Y-111445849D01*
X157001077Y-111451263D01*
X156679015Y-112172516D01*
X156665223Y-112203402D01*
X156662706Y-112208702D01*
X156525196Y-112481685D01*
X156292144Y-112944336D01*
X156289378Y-112949523D01*
X156184263Y-113136001D01*
X156133388Y-113185521D01*
X156063817Y-113199675D01*
X155997637Y-113173969D01*
X155955861Y-113116565D01*
X155948500Y-113074129D01*
X155948500Y-112031366D01*
X155941745Y-111969184D01*
X155890615Y-111832795D01*
X155803261Y-111716239D01*
X155686705Y-111628885D01*
X155550316Y-111577755D01*
X155494440Y-111571685D01*
X155491531Y-111571369D01*
X155488134Y-111571000D01*
X154741866Y-111571000D01*
X154738477Y-111571368D01*
X154737151Y-111571440D01*
X154668048Y-111555154D01*
X154618720Y-111504093D01*
X154605559Y-111428090D01*
X154617301Y-111344536D01*
X154617853Y-111340610D01*
X154618141Y-111320000D01*
X154599798Y-111156466D01*
X154545680Y-111001060D01*
X154458476Y-110861505D01*
X154353705Y-110756000D01*
X154347486Y-110749737D01*
X154347482Y-110749734D01*
X154342522Y-110744739D01*
X154203580Y-110656563D01*
X154073499Y-110610243D01*
X154055189Y-110603723D01*
X154055187Y-110603722D01*
X154048555Y-110601361D01*
X154041569Y-110600528D01*
X154041565Y-110600527D01*
X153927071Y-110586875D01*
X153885153Y-110581877D01*
X153878150Y-110582613D01*
X153878149Y-110582613D01*
X153834935Y-110587155D01*
X153721495Y-110599078D01*
X153714827Y-110601348D01*
X153572382Y-110649840D01*
X153572379Y-110649841D01*
X153565715Y-110652110D01*
X153425555Y-110738337D01*
X153412088Y-110751525D01*
X153318198Y-110843469D01*
X153307982Y-110853473D01*
X153218838Y-110991797D01*
X153217086Y-110996611D01*
X153169399Y-111048175D01*
X153100667Y-111065963D01*
X153033229Y-111043768D01*
X153024428Y-111037114D01*
X153006407Y-111022206D01*
X152997627Y-111014216D01*
X151218849Y-109235438D01*
X155857000Y-109235438D01*
X155857337Y-109241953D01*
X155866894Y-109334057D01*
X155869788Y-109347456D01*
X155919381Y-109496107D01*
X155925555Y-109509286D01*
X156007788Y-109642173D01*
X156016824Y-109653574D01*
X156127429Y-109763986D01*
X156138840Y-109772998D01*
X156271880Y-109855004D01*
X156285061Y-109861151D01*
X156433814Y-109910491D01*
X156447190Y-109913358D01*
X156538097Y-109922672D01*
X156544513Y-109923000D01*
X156567885Y-109923000D01*
X156583124Y-109918525D01*
X156584329Y-109917135D01*
X156586000Y-109909452D01*
X156586000Y-109237115D01*
X156581525Y-109221876D01*
X156580135Y-109220671D01*
X156572452Y-109219000D01*
X155875115Y-109219000D01*
X155859876Y-109223475D01*
X155858671Y-109224865D01*
X155857000Y-109232548D01*
X155857000Y-109235438D01*
X151218849Y-109235438D01*
X150887006Y-108903595D01*
X150852980Y-108841283D01*
X150858045Y-108770468D01*
X150900592Y-108713632D01*
X150967112Y-108688821D01*
X150976101Y-108688500D01*
X151032885Y-108688500D01*
X151048124Y-108684025D01*
X151049329Y-108682635D01*
X151051000Y-108674952D01*
X151051000Y-107690115D01*
X151046525Y-107674876D01*
X151045135Y-107673671D01*
X151037452Y-107672000D01*
X150490116Y-107672000D01*
X150474877Y-107676475D01*
X150473672Y-107677865D01*
X150472001Y-107685548D01*
X150472001Y-108184400D01*
X150451999Y-108252521D01*
X150398343Y-108299014D01*
X150328069Y-108309118D01*
X150263489Y-108279624D01*
X150256906Y-108273495D01*
X148646221Y-106662810D01*
X148612195Y-106600498D01*
X148609316Y-106573715D01*
X148609316Y-105571172D01*
X148627274Y-105511685D01*
X148625212Y-105510625D01*
X148628437Y-105504351D01*
X148632331Y-105498489D01*
X148643061Y-105470243D01*
X148685947Y-105413666D01*
X148752615Y-105389255D01*
X148821897Y-105404763D01*
G37*
G04 #@! TD.AperFunction*
G04 #@! TA.AperFunction,Conductor*
G36*
X156087157Y-95859172D02*
G01*
X156105132Y-95883617D01*
X156123666Y-95916498D01*
X156289378Y-96210477D01*
X156292144Y-96215664D01*
X156424723Y-96478858D01*
X156635868Y-96898018D01*
X156662701Y-96951287D01*
X156665218Y-96956588D01*
X157000002Y-97706329D01*
X157001073Y-97708728D01*
X157003345Y-97714153D01*
X157008633Y-97727655D01*
X157014850Y-97798379D01*
X156981844Y-97861237D01*
X156920095Y-97896272D01*
X156876392Y-97898718D01*
X156742147Y-97882711D01*
X156735153Y-97881877D01*
X156728150Y-97882613D01*
X156728149Y-97882613D01*
X156693261Y-97886280D01*
X156571495Y-97899078D01*
X156564827Y-97901348D01*
X156422382Y-97949840D01*
X156422379Y-97949841D01*
X156415715Y-97952110D01*
X156275555Y-98038337D01*
X156248426Y-98064904D01*
X156191444Y-98120705D01*
X156157982Y-98153473D01*
X156068838Y-98291797D01*
X156066427Y-98298420D01*
X156066426Y-98298423D01*
X156014966Y-98439809D01*
X156014965Y-98439814D01*
X156012556Y-98446432D01*
X155991931Y-98609694D01*
X156007989Y-98773468D01*
X156059932Y-98929615D01*
X156063581Y-98935640D01*
X156125514Y-99037902D01*
X156145179Y-99070373D01*
X156150070Y-99075438D01*
X156150071Y-99075439D01*
X156196533Y-99123552D01*
X156259491Y-99188747D01*
X156397189Y-99278854D01*
X156551428Y-99336215D01*
X156558409Y-99337146D01*
X156558411Y-99337147D01*
X156707561Y-99357048D01*
X156707565Y-99357048D01*
X156714542Y-99357979D01*
X156721553Y-99357341D01*
X156721557Y-99357341D01*
X156871403Y-99343704D01*
X156871404Y-99343704D01*
X156878424Y-99343065D01*
X156908619Y-99333254D01*
X157028230Y-99294390D01*
X157028233Y-99294389D01*
X157034929Y-99292213D01*
X157176279Y-99207951D01*
X157295449Y-99094468D01*
X157299350Y-99088596D01*
X157303874Y-99083205D01*
X157305882Y-99084890D01*
X157351006Y-99046955D01*
X157421423Y-99037902D01*
X157485556Y-99068357D01*
X157520968Y-99121909D01*
X157570047Y-99266780D01*
X157571801Y-99272385D01*
X157742488Y-99866015D01*
X157799419Y-100064017D01*
X157800907Y-100069687D01*
X157991353Y-100871088D01*
X157992571Y-100876797D01*
X158135449Y-101633363D01*
X158145434Y-101686238D01*
X158146389Y-101692039D01*
X158256152Y-102470994D01*
X158261316Y-102507643D01*
X158261999Y-102513463D01*
X158305654Y-102979877D01*
X158338763Y-103333613D01*
X158339174Y-103339478D01*
X158377596Y-104162277D01*
X158377733Y-104168154D01*
X158377733Y-104991846D01*
X158377596Y-104997724D01*
X158360811Y-105357162D01*
X158337653Y-105424275D01*
X158281887Y-105468214D01*
X158206174Y-105473955D01*
X158205195Y-105473725D01*
X158198555Y-105471361D01*
X158035153Y-105451877D01*
X158028150Y-105452613D01*
X158028149Y-105452613D01*
X157984935Y-105457155D01*
X157871495Y-105469078D01*
X157864827Y-105471348D01*
X157722382Y-105519840D01*
X157722379Y-105519841D01*
X157715715Y-105522110D01*
X157637429Y-105570272D01*
X157578466Y-105606546D01*
X157509965Y-105625204D01*
X157449163Y-105608185D01*
X157446341Y-105606546D01*
X157434510Y-105599674D01*
X157427506Y-105597553D01*
X157427502Y-105597551D01*
X157272239Y-105550527D01*
X157272240Y-105550527D01*
X157265233Y-105548405D01*
X157088702Y-105537453D01*
X157081486Y-105538693D01*
X157081484Y-105538693D01*
X156921602Y-105566166D01*
X156914386Y-105567406D01*
X156751636Y-105636657D01*
X156745748Y-105640990D01*
X156745743Y-105640993D01*
X156647416Y-105713355D01*
X156609182Y-105741492D01*
X156604443Y-105747070D01*
X156604440Y-105747073D01*
X156499406Y-105870706D01*
X156499403Y-105870710D01*
X156494667Y-105876285D01*
X156414231Y-106033808D01*
X156412492Y-106040913D01*
X156412491Y-106040917D01*
X156408695Y-106056432D01*
X156372192Y-106205610D01*
X156371500Y-106216764D01*
X156371500Y-106398836D01*
X156351498Y-106466957D01*
X156297842Y-106513450D01*
X156285378Y-106518359D01*
X156283683Y-106518924D01*
X156283676Y-106518927D01*
X156276732Y-106521244D01*
X156131287Y-106611248D01*
X156130255Y-106609581D01*
X156073640Y-106632494D01*
X156003876Y-106619320D01*
X155952309Y-106570520D01*
X155942121Y-106545043D01*
X155941745Y-106545184D01*
X155893767Y-106417203D01*
X155890615Y-106408795D01*
X155803261Y-106292239D01*
X155686705Y-106204885D01*
X155550316Y-106153755D01*
X155488134Y-106147000D01*
X154741866Y-106147000D01*
X154679684Y-106153755D01*
X154632414Y-106171476D01*
X154551699Y-106201734D01*
X154551696Y-106201736D01*
X154543295Y-106204885D01*
X154538836Y-106208227D01*
X154471152Y-106223030D01*
X154421439Y-106208433D01*
X154416705Y-106204885D01*
X154408304Y-106201736D01*
X154408301Y-106201734D01*
X154327586Y-106171476D01*
X154280316Y-106153755D01*
X154218134Y-106147000D01*
X153959595Y-106147000D01*
X153891474Y-106126998D01*
X153870500Y-106110095D01*
X152478152Y-104717747D01*
X152470612Y-104709461D01*
X152466500Y-104702982D01*
X152416848Y-104656356D01*
X152414007Y-104653602D01*
X152394270Y-104633865D01*
X152391073Y-104631385D01*
X152382051Y-104623680D01*
X152349821Y-104593414D01*
X152342875Y-104589595D01*
X152342872Y-104589593D01*
X152332066Y-104583652D01*
X152315547Y-104572801D01*
X152314000Y-104571601D01*
X152299542Y-104560387D01*
X152300465Y-104559197D01*
X152264895Y-104524333D01*
X152242826Y-104488669D01*
X152188752Y-104401287D01*
X152067702Y-104280448D01*
X152049607Y-104269294D01*
X151928331Y-104194538D01*
X151928329Y-104194537D01*
X151922101Y-104190698D01*
X151759757Y-104136851D01*
X151752920Y-104136151D01*
X151752918Y-104136150D01*
X151711599Y-104131917D01*
X151658732Y-104126500D01*
X151349595Y-104126500D01*
X151281474Y-104106498D01*
X151260499Y-104089595D01*
X151005617Y-103834712D01*
X150738647Y-103567742D01*
X150731113Y-103559463D01*
X150727000Y-103552982D01*
X150702952Y-103530400D01*
X152818526Y-103530400D01*
X152838391Y-103782803D01*
X152839545Y-103787610D01*
X152839546Y-103787616D01*
X152871580Y-103921047D01*
X152897495Y-104028991D01*
X152899388Y-104033562D01*
X152899389Y-104033564D01*
X152990654Y-104253896D01*
X152994384Y-104262902D01*
X153126672Y-104478776D01*
X153291102Y-104671298D01*
X153294858Y-104674506D01*
X153298670Y-104677762D01*
X153483624Y-104835728D01*
X153699498Y-104968016D01*
X153704068Y-104969909D01*
X153704072Y-104969911D01*
X153876928Y-105041510D01*
X153933409Y-105064905D01*
X154018032Y-105085221D01*
X154174784Y-105122854D01*
X154174790Y-105122855D01*
X154179597Y-105124009D01*
X154279416Y-105131865D01*
X154366345Y-105138707D01*
X154366352Y-105138707D01*
X154368801Y-105138900D01*
X154495199Y-105138900D01*
X154497648Y-105138707D01*
X154497655Y-105138707D01*
X154584584Y-105131865D01*
X154684403Y-105124009D01*
X154689210Y-105122855D01*
X154689216Y-105122854D01*
X154845968Y-105085221D01*
X154930591Y-105064905D01*
X154987072Y-105041510D01*
X155159928Y-104969911D01*
X155159932Y-104969909D01*
X155164502Y-104968016D01*
X155380376Y-104835728D01*
X155565330Y-104677762D01*
X155569142Y-104674506D01*
X155572898Y-104671298D01*
X155737328Y-104478776D01*
X155869616Y-104262902D01*
X155873347Y-104253896D01*
X155964611Y-104033564D01*
X155964612Y-104033562D01*
X155966505Y-104028991D01*
X155992420Y-103921047D01*
X156024454Y-103787616D01*
X156024455Y-103787610D01*
X156025609Y-103782803D01*
X156045474Y-103530400D01*
X156025609Y-103277997D01*
X156024281Y-103272462D01*
X155986821Y-103116432D01*
X155966505Y-103031809D01*
X155951416Y-102995381D01*
X155871511Y-102802472D01*
X155871509Y-102802468D01*
X155869616Y-102797898D01*
X155737328Y-102582024D01*
X155572898Y-102389502D01*
X155380376Y-102225072D01*
X155164502Y-102092784D01*
X155159932Y-102090891D01*
X155159928Y-102090889D01*
X154935164Y-101997789D01*
X154935162Y-101997788D01*
X154930591Y-101995895D01*
X154845968Y-101975579D01*
X154689216Y-101937946D01*
X154689210Y-101937945D01*
X154684403Y-101936791D01*
X154584584Y-101928935D01*
X154497655Y-101922093D01*
X154497648Y-101922093D01*
X154495199Y-101921900D01*
X154368801Y-101921900D01*
X154366352Y-101922093D01*
X154366345Y-101922093D01*
X154279416Y-101928935D01*
X154179597Y-101936791D01*
X154174790Y-101937945D01*
X154174784Y-101937946D01*
X154018032Y-101975579D01*
X153933409Y-101995895D01*
X153928838Y-101997788D01*
X153928836Y-101997789D01*
X153704072Y-102090889D01*
X153704068Y-102090891D01*
X153699498Y-102092784D01*
X153483624Y-102225072D01*
X153291102Y-102389502D01*
X153126672Y-102582024D01*
X152994384Y-102797898D01*
X152992491Y-102802468D01*
X152992489Y-102802472D01*
X152912584Y-102995381D01*
X152897495Y-103031809D01*
X152877179Y-103116432D01*
X152839720Y-103272462D01*
X152838391Y-103277997D01*
X152818526Y-103530400D01*
X150702952Y-103530400D01*
X150677348Y-103506356D01*
X150674507Y-103503602D01*
X150654770Y-103483865D01*
X150651573Y-103481385D01*
X150642551Y-103473680D01*
X150638397Y-103469779D01*
X150610321Y-103443414D01*
X150603375Y-103439595D01*
X150603372Y-103439593D01*
X150592566Y-103433652D01*
X150576047Y-103422801D01*
X150575583Y-103422441D01*
X150560041Y-103410386D01*
X150552772Y-103407241D01*
X150552768Y-103407238D01*
X150519463Y-103392826D01*
X150508813Y-103387609D01*
X150470060Y-103366305D01*
X150450437Y-103361267D01*
X150431734Y-103354863D01*
X150420420Y-103349967D01*
X150420419Y-103349967D01*
X150413145Y-103346819D01*
X150405322Y-103345580D01*
X150405312Y-103345577D01*
X150369476Y-103339901D01*
X150357856Y-103337495D01*
X150322711Y-103328472D01*
X150322710Y-103328472D01*
X150315030Y-103326500D01*
X150294776Y-103326500D01*
X150275065Y-103324949D01*
X150262886Y-103323020D01*
X150255057Y-103321780D01*
X150225786Y-103324547D01*
X150211039Y-103325941D01*
X150199181Y-103326500D01*
X147978768Y-103326500D01*
X147967585Y-103325973D01*
X147960092Y-103324298D01*
X147952166Y-103324547D01*
X147952165Y-103324547D01*
X147892002Y-103326438D01*
X147888044Y-103326500D01*
X147860144Y-103326500D01*
X147856154Y-103327004D01*
X147844320Y-103327936D01*
X147800111Y-103329326D01*
X147792495Y-103331539D01*
X147792493Y-103331539D01*
X147780652Y-103334979D01*
X147761293Y-103338988D01*
X147759983Y-103339154D01*
X147741203Y-103341526D01*
X147733837Y-103344442D01*
X147733831Y-103344444D01*
X147700098Y-103357800D01*
X147688868Y-103361645D01*
X147654017Y-103371770D01*
X147646407Y-103373981D01*
X147639584Y-103378016D01*
X147628966Y-103384295D01*
X147611213Y-103392992D01*
X147603568Y-103396019D01*
X147592383Y-103400448D01*
X147578705Y-103410386D01*
X147556612Y-103426437D01*
X147546695Y-103432951D01*
X147508638Y-103455458D01*
X147494317Y-103469779D01*
X147479284Y-103482619D01*
X147462893Y-103494528D01*
X147435597Y-103527523D01*
X147434702Y-103528605D01*
X147426712Y-103537384D01*
X145466396Y-105497699D01*
X145404084Y-105531725D01*
X145333268Y-105526660D01*
X145276433Y-105484113D01*
X145251622Y-105417593D01*
X145253755Y-105383860D01*
X145256869Y-105368313D01*
X145262734Y-105304479D01*
X145263000Y-105298691D01*
X145263000Y-105242115D01*
X145258525Y-105226876D01*
X145257135Y-105225671D01*
X145249452Y-105224000D01*
X144627115Y-105224000D01*
X144611876Y-105228475D01*
X144610671Y-105229865D01*
X144609000Y-105237548D01*
X144609000Y-105934884D01*
X144613475Y-105950123D01*
X144614865Y-105951328D01*
X144619294Y-105952291D01*
X144678313Y-105946869D01*
X144693857Y-105943755D01*
X144764579Y-105949988D01*
X144820705Y-105993467D01*
X144844414Y-106060388D01*
X144828180Y-106129504D01*
X144807699Y-106156396D01*
X144464500Y-106499595D01*
X144402188Y-106533621D01*
X144375405Y-106536500D01*
X139991722Y-106536500D01*
X139923601Y-106516498D01*
X139902626Y-106499595D01*
X139519632Y-106116600D01*
X139485607Y-106054288D01*
X139490672Y-105983472D01*
X139533219Y-105926637D01*
X139571047Y-105907271D01*
X139608699Y-105895472D01*
X139755381Y-105806639D01*
X139851259Y-105710761D01*
X139913571Y-105676735D01*
X139984386Y-105681800D01*
X140029449Y-105710761D01*
X140119557Y-105800869D01*
X140131426Y-105810176D01*
X140265012Y-105891079D01*
X140278757Y-105897285D01*
X140428644Y-105944256D01*
X140441694Y-105946869D01*
X140496586Y-105951913D01*
X140508124Y-105948525D01*
X140509329Y-105947135D01*
X140511000Y-105939452D01*
X140511000Y-104005116D01*
X140507046Y-103991650D01*
X140507046Y-103920653D01*
X140538847Y-103867057D01*
X140706752Y-103699152D01*
X140769064Y-103665126D01*
X140828459Y-103666541D01*
X140886591Y-103682118D01*
X140886602Y-103682120D01*
X140891913Y-103683543D01*
X141120000Y-103703498D01*
X141348087Y-103683543D01*
X141353400Y-103682119D01*
X141353402Y-103682119D01*
X141563933Y-103625707D01*
X141563935Y-103625706D01*
X141569243Y-103624284D01*
X141690499Y-103567742D01*
X141771762Y-103529849D01*
X141771767Y-103529846D01*
X141776749Y-103527523D01*
X141918458Y-103428297D01*
X141959789Y-103399357D01*
X141959792Y-103399355D01*
X141964300Y-103396198D01*
X142126198Y-103234300D01*
X142129357Y-103229789D01*
X142132892Y-103225576D01*
X142134026Y-103226527D01*
X142184071Y-103186529D01*
X142254690Y-103179224D01*
X142318049Y-103211258D01*
X142354030Y-103272462D01*
X142357082Y-103289517D01*
X142358255Y-103300316D01*
X142409385Y-103436705D01*
X142496739Y-103553261D01*
X142548553Y-103592093D01*
X142591067Y-103648950D01*
X142596093Y-103719769D01*
X142562082Y-103782013D01*
X142361737Y-103982358D01*
X142310322Y-104013497D01*
X142293603Y-104018736D01*
X142218550Y-104042256D01*
X142218548Y-104042257D01*
X142211301Y-104044528D01*
X142064619Y-104133361D01*
X141943361Y-104254619D01*
X141939424Y-104261120D01*
X141858463Y-104394804D01*
X141854528Y-104401301D01*
X141852257Y-104408547D01*
X141849561Y-104414519D01*
X141803300Y-104468374D01*
X141735265Y-104488669D01*
X141667059Y-104468960D01*
X141619887Y-104414519D01*
X141611082Y-104395016D01*
X141530176Y-104261426D01*
X141520869Y-104249557D01*
X141410443Y-104139131D01*
X141398574Y-104129824D01*
X141264988Y-104048921D01*
X141251243Y-104042715D01*
X141101356Y-103995744D01*
X141088306Y-103993131D01*
X141033414Y-103988087D01*
X141021876Y-103991475D01*
X141020671Y-103992865D01*
X141019000Y-104000548D01*
X141019000Y-105934884D01*
X141023475Y-105950123D01*
X141024865Y-105951328D01*
X141029294Y-105952291D01*
X141088315Y-105946868D01*
X141101351Y-105944257D01*
X141251243Y-105897285D01*
X141264988Y-105891079D01*
X141398574Y-105810176D01*
X141410443Y-105800869D01*
X141520869Y-105690443D01*
X141530176Y-105678574D01*
X141611082Y-105544984D01*
X141619887Y-105525481D01*
X141666148Y-105471626D01*
X141734183Y-105451331D01*
X141802389Y-105471040D01*
X141849561Y-105525481D01*
X141852257Y-105531453D01*
X141854528Y-105538699D01*
X141858460Y-105545191D01*
X141858461Y-105545194D01*
X141895617Y-105606546D01*
X141943361Y-105685381D01*
X142064619Y-105806639D01*
X142211301Y-105895472D01*
X142218548Y-105897743D01*
X142218550Y-105897744D01*
X142284836Y-105918517D01*
X142374938Y-105946753D01*
X142448365Y-105953500D01*
X142451263Y-105953500D01*
X142705665Y-105953499D01*
X142961634Y-105953499D01*
X142964492Y-105953236D01*
X142964501Y-105953236D01*
X143000004Y-105949974D01*
X143035062Y-105946753D01*
X143044629Y-105943755D01*
X143191450Y-105897744D01*
X143191452Y-105897743D01*
X143198699Y-105895472D01*
X143345381Y-105806639D01*
X143441259Y-105710761D01*
X143503571Y-105676735D01*
X143574386Y-105681800D01*
X143619449Y-105710761D01*
X143709557Y-105800869D01*
X143721426Y-105810176D01*
X143855012Y-105891079D01*
X143868757Y-105897285D01*
X144018644Y-105944256D01*
X144031694Y-105946869D01*
X144086586Y-105951913D01*
X144098124Y-105948525D01*
X144099329Y-105947135D01*
X144101000Y-105939452D01*
X144101000Y-104697885D01*
X144609000Y-104697885D01*
X144613475Y-104713124D01*
X144614865Y-104714329D01*
X144622548Y-104716000D01*
X145244884Y-104716000D01*
X145260123Y-104711525D01*
X145261328Y-104710135D01*
X145262999Y-104702452D01*
X145262999Y-104641295D01*
X145262736Y-104635546D01*
X145256868Y-104571685D01*
X145254257Y-104558649D01*
X145207285Y-104408757D01*
X145201079Y-104395012D01*
X145120176Y-104261426D01*
X145110869Y-104249557D01*
X145000443Y-104139131D01*
X144988574Y-104129824D01*
X144854988Y-104048921D01*
X144841243Y-104042715D01*
X144691356Y-103995744D01*
X144678306Y-103993131D01*
X144623414Y-103988087D01*
X144611876Y-103991475D01*
X144610671Y-103992865D01*
X144609000Y-104000548D01*
X144609000Y-104697885D01*
X144101000Y-104697885D01*
X144101000Y-104086857D01*
X144121002Y-104018736D01*
X144132488Y-104003529D01*
X144133322Y-104002583D01*
X144136135Y-103999770D01*
X144138615Y-103996573D01*
X144146320Y-103987551D01*
X144152407Y-103981069D01*
X144176586Y-103955321D01*
X144180405Y-103948375D01*
X144180407Y-103948372D01*
X144186348Y-103937566D01*
X144197199Y-103921047D01*
X144204758Y-103911301D01*
X144209614Y-103905041D01*
X144212759Y-103897772D01*
X144212762Y-103897768D01*
X144227174Y-103864463D01*
X144232391Y-103853813D01*
X144253695Y-103815060D01*
X144258733Y-103795437D01*
X144265136Y-103776735D01*
X144266120Y-103774461D01*
X144311530Y-103719886D01*
X144381758Y-103698500D01*
X144508134Y-103698500D01*
X144570316Y-103691745D01*
X144706705Y-103640615D01*
X144823261Y-103553261D01*
X144910615Y-103436705D01*
X144961745Y-103300316D01*
X144968500Y-103238134D01*
X144968500Y-102188705D01*
X148517001Y-102188705D01*
X148517264Y-102194454D01*
X148523132Y-102258315D01*
X148525743Y-102271351D01*
X148572715Y-102421243D01*
X148578921Y-102434988D01*
X148659824Y-102568574D01*
X148669131Y-102580443D01*
X148779557Y-102690869D01*
X148791426Y-102700176D01*
X148925012Y-102781079D01*
X148938757Y-102787285D01*
X149088644Y-102834256D01*
X149101694Y-102836869D01*
X149156586Y-102841913D01*
X149168124Y-102838525D01*
X149169329Y-102837135D01*
X149171000Y-102829452D01*
X149171000Y-102132115D01*
X149166525Y-102116876D01*
X149165135Y-102115671D01*
X149157452Y-102114000D01*
X148535116Y-102114000D01*
X148519877Y-102118475D01*
X148518672Y-102119865D01*
X148517001Y-102127548D01*
X148517001Y-102188705D01*
X144968500Y-102188705D01*
X144968500Y-101541866D01*
X144961745Y-101479684D01*
X144958971Y-101472284D01*
X144957144Y-101464600D01*
X144958816Y-101464203D01*
X144954330Y-101402921D01*
X144988252Y-101340553D01*
X145050507Y-101306424D01*
X145077495Y-101303500D01*
X148401076Y-101303500D01*
X148469197Y-101323502D01*
X148515690Y-101377158D01*
X148524622Y-101454245D01*
X148523131Y-101461689D01*
X148517266Y-101525521D01*
X148517000Y-101531309D01*
X148517000Y-101587885D01*
X148521475Y-101603124D01*
X148522865Y-101604329D01*
X148530548Y-101606000D01*
X149553000Y-101606000D01*
X149621121Y-101626002D01*
X149667614Y-101679658D01*
X149679000Y-101732000D01*
X149679000Y-102824884D01*
X149683475Y-102840123D01*
X149684865Y-102841328D01*
X149689294Y-102842291D01*
X149748315Y-102836868D01*
X149761351Y-102834257D01*
X149911243Y-102787285D01*
X149924988Y-102781079D01*
X150058574Y-102700176D01*
X150070443Y-102690869D01*
X150160551Y-102600761D01*
X150222863Y-102566735D01*
X150293678Y-102571800D01*
X150338741Y-102600761D01*
X150434619Y-102696639D01*
X150581301Y-102785472D01*
X150588548Y-102787743D01*
X150588550Y-102787744D01*
X150593956Y-102789438D01*
X150744938Y-102836753D01*
X150818365Y-102843500D01*
X150821263Y-102843500D01*
X151075665Y-102843499D01*
X151331634Y-102843499D01*
X151334492Y-102843236D01*
X151334501Y-102843236D01*
X151370004Y-102839974D01*
X151405062Y-102836753D01*
X151413030Y-102834256D01*
X151561450Y-102787744D01*
X151561452Y-102787743D01*
X151568699Y-102785472D01*
X151715381Y-102696639D01*
X151836639Y-102575381D01*
X151925472Y-102428699D01*
X151976753Y-102265062D01*
X151983500Y-102191635D01*
X151983499Y-101528366D01*
X151982602Y-101518595D01*
X151979026Y-101479684D01*
X151976753Y-101454938D01*
X151973563Y-101444760D01*
X151927744Y-101298550D01*
X151927743Y-101298548D01*
X151925472Y-101291301D01*
X151906349Y-101259725D01*
X151888170Y-101191095D01*
X151909980Y-101123532D01*
X151964856Y-101078486D01*
X151975188Y-101074621D01*
X152068232Y-101044389D01*
X152074929Y-101042213D01*
X152216279Y-100957951D01*
X152335449Y-100844468D01*
X152339350Y-100838597D01*
X152422614Y-100713275D01*
X152422615Y-100713273D01*
X152426515Y-100707403D01*
X152484951Y-100553568D01*
X152507853Y-100390610D01*
X152508174Y-100390655D01*
X152532621Y-100326169D01*
X152589684Y-100283927D01*
X152660526Y-100279242D01*
X152677310Y-100284234D01*
X152714684Y-100298245D01*
X152776866Y-100305000D01*
X153523134Y-100305000D01*
X153585316Y-100298245D01*
X153721705Y-100247115D01*
X153838261Y-100159761D01*
X153925615Y-100043205D01*
X153976745Y-99906816D01*
X153983500Y-99844634D01*
X153983500Y-98223366D01*
X153976745Y-98161184D01*
X153973973Y-98153788D01*
X153973971Y-98153782D01*
X153948718Y-98086420D01*
X153943535Y-98015613D01*
X153977456Y-97953244D01*
X154039712Y-97919115D01*
X154110536Y-97924062D01*
X154155717Y-97953017D01*
X154182298Y-97979552D01*
X154188528Y-97983392D01*
X154188529Y-97983393D01*
X154318490Y-98063502D01*
X154327899Y-98069302D01*
X154490243Y-98123149D01*
X154497080Y-98123849D01*
X154497082Y-98123850D01*
X154538401Y-98128083D01*
X154591268Y-98133500D01*
X155188732Y-98133500D01*
X155191978Y-98133163D01*
X155191982Y-98133163D01*
X155226083Y-98129625D01*
X155291019Y-98122887D01*
X155325737Y-98111304D01*
X155446324Y-98071073D01*
X155446326Y-98071072D01*
X155453268Y-98068756D01*
X155461759Y-98063502D01*
X155592485Y-97982606D01*
X155598713Y-97978752D01*
X155719552Y-97857702D01*
X155731062Y-97839030D01*
X155805462Y-97718331D01*
X155805463Y-97718329D01*
X155809302Y-97712101D01*
X155863149Y-97549757D01*
X155873500Y-97448732D01*
X155873500Y-96901268D01*
X155862887Y-96798981D01*
X155808756Y-96636732D01*
X155778599Y-96587999D01*
X155722605Y-96497513D01*
X155722604Y-96497512D01*
X155718752Y-96491287D01*
X155713570Y-96486114D01*
X155709025Y-96480380D01*
X155710945Y-96478858D01*
X155682455Y-96426794D01*
X155687456Y-96355974D01*
X155710882Y-96319448D01*
X155709843Y-96318628D01*
X155714381Y-96312882D01*
X155719552Y-96307702D01*
X155791910Y-96190316D01*
X155805462Y-96168331D01*
X155805463Y-96168329D01*
X155809302Y-96162101D01*
X155863149Y-95999757D01*
X155870025Y-95932647D01*
X155896866Y-95866920D01*
X155954981Y-95826138D01*
X156025919Y-95823250D01*
X156087157Y-95859172D01*
G37*
G04 #@! TD.AperFunction*
G04 #@! TA.AperFunction,Conductor*
G36*
X151924032Y-95578538D02*
G01*
X151969095Y-95607499D01*
X153898345Y-97536749D01*
X153928772Y-97585965D01*
X153971244Y-97713268D01*
X153971789Y-97714149D01*
X153982181Y-97781768D01*
X153953316Y-97846632D01*
X153893964Y-97885592D01*
X153822971Y-97886280D01*
X153781731Y-97865872D01*
X153756059Y-97846632D01*
X153721705Y-97820885D01*
X153585316Y-97769755D01*
X153523134Y-97763000D01*
X152776866Y-97763000D01*
X152714684Y-97769755D01*
X152667414Y-97787476D01*
X152586699Y-97817734D01*
X152586696Y-97817736D01*
X152578295Y-97820885D01*
X152573836Y-97824227D01*
X152506152Y-97839030D01*
X152456439Y-97824433D01*
X152451705Y-97820885D01*
X152443304Y-97817736D01*
X152443301Y-97817734D01*
X152362586Y-97787476D01*
X152315316Y-97769755D01*
X152253134Y-97763000D01*
X152101095Y-97763000D01*
X152032974Y-97742998D01*
X152011999Y-97726095D01*
X151303647Y-97017742D01*
X151296113Y-97009463D01*
X151292000Y-97002982D01*
X151242348Y-96956356D01*
X151239507Y-96953602D01*
X151219770Y-96933865D01*
X151216573Y-96931385D01*
X151207551Y-96923680D01*
X151188436Y-96905730D01*
X151175321Y-96893414D01*
X151168375Y-96889595D01*
X151168372Y-96889593D01*
X151157566Y-96883652D01*
X151141047Y-96872801D01*
X151140583Y-96872441D01*
X151125041Y-96860386D01*
X151117772Y-96857241D01*
X151117768Y-96857238D01*
X151084463Y-96842826D01*
X151073813Y-96837609D01*
X151035060Y-96816305D01*
X151015437Y-96811267D01*
X150996734Y-96804863D01*
X150985420Y-96799967D01*
X150985419Y-96799967D01*
X150978145Y-96796819D01*
X150970322Y-96795580D01*
X150970312Y-96795577D01*
X150934476Y-96789901D01*
X150922857Y-96787495D01*
X150888603Y-96778701D01*
X150827596Y-96742388D01*
X150795906Y-96678857D01*
X150803594Y-96608278D01*
X150830840Y-96567564D01*
X151790905Y-95607499D01*
X151853217Y-95573473D01*
X151924032Y-95578538D01*
G37*
G04 #@! TD.AperFunction*
G04 #@! TA.AperFunction,Conductor*
G36*
X147285555Y-88105768D02*
G01*
X147972474Y-88399620D01*
X147977823Y-88402057D01*
X148719206Y-88760998D01*
X148724436Y-88763683D01*
X149448271Y-89156816D01*
X149453357Y-89159734D01*
X150158062Y-89586201D01*
X150163019Y-89589361D01*
X150847055Y-90048231D01*
X150851856Y-90051616D01*
X151483016Y-90519131D01*
X151513768Y-90541910D01*
X151518409Y-90545519D01*
X151643882Y-90647860D01*
X151684028Y-90706416D01*
X151686143Y-90777381D01*
X151649555Y-90838224D01*
X151585882Y-90869628D01*
X151564243Y-90871500D01*
X151456005Y-90871500D01*
X151387884Y-90851498D01*
X151366988Y-90834673D01*
X151337887Y-90805623D01*
X151337882Y-90805619D01*
X151332702Y-90800448D01*
X151295281Y-90777381D01*
X151193331Y-90714538D01*
X151193329Y-90714537D01*
X151187101Y-90710698D01*
X151024757Y-90656851D01*
X151017920Y-90656151D01*
X151017918Y-90656150D01*
X150976599Y-90651917D01*
X150923732Y-90646500D01*
X150376268Y-90646500D01*
X150373022Y-90646837D01*
X150373018Y-90646837D01*
X150343730Y-90649876D01*
X150273981Y-90657113D01*
X150265963Y-90659788D01*
X150118676Y-90708927D01*
X150118674Y-90708928D01*
X150111732Y-90711244D01*
X149966287Y-90801248D01*
X149961114Y-90806430D01*
X149955377Y-90810977D01*
X149953945Y-90809170D01*
X149901425Y-90837902D01*
X149830605Y-90832892D01*
X149794147Y-90809501D01*
X149793317Y-90810552D01*
X149776160Y-90797002D01*
X149643120Y-90714996D01*
X149629939Y-90708849D01*
X149481186Y-90659509D01*
X149467810Y-90656642D01*
X149376903Y-90647328D01*
X149371874Y-90647071D01*
X149356876Y-90651475D01*
X149355671Y-90652865D01*
X149354000Y-90660548D01*
X149354000Y-92281385D01*
X149358475Y-92296624D01*
X149359865Y-92297829D01*
X149367548Y-92299500D01*
X149468000Y-92299500D01*
X149536121Y-92319502D01*
X149582614Y-92373158D01*
X149594000Y-92425500D01*
X149594000Y-93738000D01*
X149573998Y-93806121D01*
X149520342Y-93852614D01*
X149468000Y-93864000D01*
X148525116Y-93864000D01*
X148509877Y-93868475D01*
X148508672Y-93869865D01*
X148507001Y-93877548D01*
X148507001Y-94150500D01*
X148486999Y-94218621D01*
X148433343Y-94265114D01*
X148381001Y-94276500D01*
X144228768Y-94276500D01*
X144217585Y-94275973D01*
X144210092Y-94274298D01*
X144202166Y-94274547D01*
X144202165Y-94274547D01*
X144142002Y-94276438D01*
X144138044Y-94276500D01*
X144110144Y-94276500D01*
X144106154Y-94277004D01*
X144094320Y-94277936D01*
X144050111Y-94279326D01*
X144042495Y-94281539D01*
X144042493Y-94281539D01*
X144030652Y-94284979D01*
X144011293Y-94288988D01*
X144009983Y-94289154D01*
X143991203Y-94291526D01*
X143983837Y-94294442D01*
X143983831Y-94294444D01*
X143950098Y-94307800D01*
X143938868Y-94311645D01*
X143906788Y-94320965D01*
X143896407Y-94323981D01*
X143889584Y-94328016D01*
X143878966Y-94334295D01*
X143861213Y-94342992D01*
X143853568Y-94346019D01*
X143842383Y-94350448D01*
X143835968Y-94355109D01*
X143806612Y-94376437D01*
X143796695Y-94382951D01*
X143758638Y-94405458D01*
X143744317Y-94419779D01*
X143729284Y-94432619D01*
X143712893Y-94444528D01*
X143707842Y-94450634D01*
X143684702Y-94478605D01*
X143676712Y-94487384D01*
X142964501Y-95199595D01*
X142902189Y-95233621D01*
X142875406Y-95236500D01*
X141616866Y-95236500D01*
X141554684Y-95243255D01*
X141418295Y-95294385D01*
X141301739Y-95381739D01*
X141214385Y-95498295D01*
X141163255Y-95634684D01*
X141156500Y-95696866D01*
X141156500Y-96960011D01*
X141136498Y-97028132D01*
X141082842Y-97074625D01*
X141030500Y-97086011D01*
X138814106Y-97086011D01*
X138745985Y-97066009D01*
X138725010Y-97049106D01*
X138227331Y-96551426D01*
X138193306Y-96489114D01*
X138198371Y-96418298D01*
X138215597Y-96386772D01*
X138260615Y-96326705D01*
X138311745Y-96190316D01*
X138318500Y-96128134D01*
X138318500Y-95757084D01*
X138338502Y-95688963D01*
X138392158Y-95642470D01*
X138461164Y-95632191D01*
X138478134Y-95634455D01*
X138497562Y-95637048D01*
X138497565Y-95637048D01*
X138504542Y-95637979D01*
X138511553Y-95637341D01*
X138511557Y-95637341D01*
X138661403Y-95623704D01*
X138661404Y-95623704D01*
X138668424Y-95623065D01*
X138716331Y-95607499D01*
X138818230Y-95574390D01*
X138818233Y-95574389D01*
X138824929Y-95572213D01*
X138966279Y-95487951D01*
X139085449Y-95374468D01*
X139138656Y-95294385D01*
X139172614Y-95243275D01*
X139172615Y-95243273D01*
X139176515Y-95237403D01*
X139234951Y-95083568D01*
X139254805Y-94942298D01*
X139257302Y-94924534D01*
X139257303Y-94924527D01*
X139257853Y-94920610D01*
X139258141Y-94900000D01*
X139239798Y-94736466D01*
X139185680Y-94581060D01*
X139127145Y-94487384D01*
X139102209Y-94447479D01*
X139098476Y-94441505D01*
X139037325Y-94379926D01*
X138987486Y-94329737D01*
X138987482Y-94329734D01*
X138982522Y-94324739D01*
X138843580Y-94236563D01*
X138793193Y-94218621D01*
X138695189Y-94183723D01*
X138695187Y-94183722D01*
X138688555Y-94181361D01*
X138681567Y-94180528D01*
X138681564Y-94180527D01*
X138590430Y-94169660D01*
X138579637Y-94167464D01*
X138578145Y-94166819D01*
X138570552Y-94165616D01*
X138570526Y-94165611D01*
X138534476Y-94159901D01*
X138522856Y-94157495D01*
X138487711Y-94148472D01*
X138487710Y-94148472D01*
X138480030Y-94146500D01*
X138459776Y-94146500D01*
X138440061Y-94144948D01*
X138424785Y-94142528D01*
X138360633Y-94112114D01*
X138323108Y-94051844D01*
X138318500Y-94018080D01*
X138318500Y-93431866D01*
X138311745Y-93369684D01*
X138260615Y-93233295D01*
X138173261Y-93116739D01*
X138069658Y-93039092D01*
X138027143Y-92982234D01*
X138022117Y-92911415D01*
X138056177Y-92849122D01*
X138118508Y-92815132D01*
X138145223Y-92812267D01*
X146593298Y-92812267D01*
X146594069Y-92812269D01*
X146671652Y-92812743D01*
X146680281Y-92810277D01*
X146680286Y-92810276D01*
X146700048Y-92804628D01*
X146716809Y-92801050D01*
X146737152Y-92798137D01*
X146737162Y-92798134D01*
X146746045Y-92796862D01*
X146769395Y-92786246D01*
X146786907Y-92779803D01*
X146802937Y-92775221D01*
X146811565Y-92772755D01*
X146836548Y-92756993D01*
X146851614Y-92748863D01*
X146878510Y-92736634D01*
X146897939Y-92719893D01*
X146912947Y-92708788D01*
X146927039Y-92699897D01*
X146934631Y-92695107D01*
X146954182Y-92672970D01*
X146966374Y-92660926D01*
X146981949Y-92647506D01*
X146981950Y-92647504D01*
X146988747Y-92641648D01*
X146993626Y-92634120D01*
X146993629Y-92634117D01*
X147002696Y-92620128D01*
X147013986Y-92605254D01*
X147025012Y-92592769D01*
X147030956Y-92586039D01*
X147043510Y-92559301D01*
X147051824Y-92544332D01*
X147067893Y-92519540D01*
X147075239Y-92494976D01*
X147081901Y-92477531D01*
X147088983Y-92462446D01*
X147092799Y-92454319D01*
X147097343Y-92425137D01*
X147101126Y-92408418D01*
X147107014Y-92388731D01*
X147107015Y-92388728D01*
X147109587Y-92380126D01*
X147109797Y-92345711D01*
X147109830Y-92344939D01*
X147110000Y-92343844D01*
X147110000Y-92312803D01*
X147110002Y-92312199D01*
X147110452Y-92238551D01*
X147110452Y-92238550D01*
X147110476Y-92234615D01*
X147110092Y-92233271D01*
X147110000Y-92231926D01*
X147110000Y-91925438D01*
X148142000Y-91925438D01*
X148142337Y-91931953D01*
X148151894Y-92024057D01*
X148154788Y-92037456D01*
X148204381Y-92186107D01*
X148210555Y-92199286D01*
X148292788Y-92332173D01*
X148301824Y-92343574D01*
X148412429Y-92453986D01*
X148423840Y-92462998D01*
X148492138Y-92505097D01*
X148539631Y-92557869D01*
X148551055Y-92627940D01*
X148544004Y-92656587D01*
X148516522Y-92729895D01*
X148512895Y-92745149D01*
X148507369Y-92796014D01*
X148507000Y-92802828D01*
X148507000Y-93337885D01*
X148511475Y-93353124D01*
X148512865Y-93354329D01*
X148520548Y-93356000D01*
X149067885Y-93356000D01*
X149083124Y-93351525D01*
X149084329Y-93350135D01*
X149086000Y-93342452D01*
X149086000Y-92671115D01*
X149081525Y-92655876D01*
X149080135Y-92654671D01*
X149072452Y-92653000D01*
X148972000Y-92653000D01*
X148903879Y-92632998D01*
X148857386Y-92579342D01*
X148846000Y-92527000D01*
X148846000Y-91902115D01*
X148841525Y-91886876D01*
X148840135Y-91885671D01*
X148832452Y-91884000D01*
X148160115Y-91884000D01*
X148144876Y-91888475D01*
X148143671Y-91889865D01*
X148142000Y-91897548D01*
X148142000Y-91925438D01*
X147110000Y-91925438D01*
X147110000Y-91357885D01*
X148142000Y-91357885D01*
X148146475Y-91373124D01*
X148147865Y-91374329D01*
X148155548Y-91376000D01*
X148827885Y-91376000D01*
X148843124Y-91371525D01*
X148844329Y-91370135D01*
X148846000Y-91362452D01*
X148846000Y-90665115D01*
X148841525Y-90649876D01*
X148840135Y-90648671D01*
X148832452Y-90647000D01*
X148829562Y-90647000D01*
X148823047Y-90647337D01*
X148730943Y-90656894D01*
X148717544Y-90659788D01*
X148568893Y-90709381D01*
X148555714Y-90715555D01*
X148422827Y-90797788D01*
X148411426Y-90806824D01*
X148301014Y-90917429D01*
X148292002Y-90928840D01*
X148209996Y-91061880D01*
X148203849Y-91075061D01*
X148154509Y-91223814D01*
X148151642Y-91237190D01*
X148142328Y-91328097D01*
X148142000Y-91334514D01*
X148142000Y-91357885D01*
X147110000Y-91357885D01*
X147110000Y-88221614D01*
X147130002Y-88153493D01*
X147183658Y-88107000D01*
X147253932Y-88096896D01*
X147285555Y-88105768D01*
G37*
G04 #@! TD.AperFunction*
M02*
