M48
; DRILL file {KiCad 6.0.1} date sam. 12 mars 2022 18:19:44
; FORMAT={2:4/ absolute / inch / suppress leading zeros}
; #@! TF.CreationDate,2022-03-12T18:19:44+01:00
; #@! TF.GenerationSoftware,Kicad,Pcbnew,6.0.1
; #@! TF.FileFunction,MixedPlating,1,2
FMAT,2
INCH,TZ
; #@! TA.AperFunction,Plated,PTH,ViaDrill
T1C0.0118
; #@! TA.AperFunction,Plated,PTH,ComponentDrill
T2C0.0315
; #@! TA.AperFunction,Plated,PTH,ComponentDrill
T3C0.0433
; #@! TA.AperFunction,NonPlated,NPTH,ComponentDrill
T4C0.0433
; #@! TA.AperFunction,NonPlated,NPTH,ComponentDrill
T5C0.0866
%
G90
G05
T1
X50909Y-36508
X51307Y-39248
X52862Y-38039
X53656Y-38304
X54535Y-37362
X54539Y-42047
X54717Y-43213
X55146Y-39386
X55791Y-40913
X56047Y-43311
X56484Y-42606
X56809Y-41856
X57500Y-36736
X57524Y-42465
X57862Y-41610
X58258Y-41402
X58583Y-41898
X58929Y-41823
X59295Y-37366
X59752Y-39516
X59783Y-42894
X59898Y-38083
X60171Y-36344
X60448Y-37599
X60583Y-43827
X61705Y-38827
X61862Y-41850
X62217Y-41807
T2
X53559Y-40311
X53559Y-45461
X54559Y-40311
X54559Y-45461
X55559Y-40311
X55559Y-45461
X56559Y-40311
X56559Y-45461
T3
X50850Y-43984
X51850Y-43984
X56098Y-38020
X57098Y-38020
T4
X50850Y-44984
X51850Y-44984
X56098Y-39020
X57098Y-39020
T5
X49860Y-40840
X60800Y-40760
T0
M30
