G04 #@! TF.GenerationSoftware,KiCad,Pcbnew,6.0.1*
G04 #@! TF.CreationDate,2022-03-11T23:02:45+01:00*
G04 #@! TF.ProjectId,load cell,6c6f6164-2063-4656-9c6c-2e6b69636164,rev?*
G04 #@! TF.SameCoordinates,Original*
G04 #@! TF.FileFunction,Legend,Top*
G04 #@! TF.FilePolarity,Positive*
%FSLAX46Y46*%
G04 Gerber Fmt 4.6, Leading zero omitted, Abs format (unit mm)*
G04 Created by KiCad (PCBNEW 6.0.1) date 2022-03-11 23:02:45*
%MOMM*%
%LPD*%
G01*
G04 APERTURE LIST*
%ADD10C,0.150000*%
%ADD11C,0.125000*%
%ADD12C,0.254000*%
%ADD13C,0.120000*%
%ADD14C,0.200000*%
%ADD15C,0.100000*%
G04 APERTURE END LIST*
D10*
X126490000Y-103730000D02*
X126490000Y-104160000D01*
X126210000Y-103990000D02*
X126730000Y-103990000D01*
X129840000Y-89770000D02*
X129975000Y-89770000D01*
X130110000Y-89770000D02*
X129840000Y-89770000D01*
X126490000Y-104160000D02*
X126490000Y-104180000D01*
X129830000Y-89770000D02*
X129970000Y-89910000D01*
X129970000Y-89910000D02*
X130110000Y-89770000D01*
X129200000Y-104050000D02*
X129670000Y-104050000D01*
X129960000Y-89710000D02*
X129960000Y-89500000D01*
X128400000Y-89331428D02*
X128457142Y-89331428D01*
X128514285Y-89360000D01*
X128542857Y-89388571D01*
X128571428Y-89445714D01*
X128600000Y-89560000D01*
X128600000Y-89702857D01*
X128571428Y-89817142D01*
X128542857Y-89874285D01*
X128514285Y-89902857D01*
X128457142Y-89931428D01*
X128400000Y-89931428D01*
X128342857Y-89902857D01*
X128314285Y-89874285D01*
X128285714Y-89817142D01*
X128257142Y-89702857D01*
X128257142Y-89560000D01*
X128285714Y-89445714D01*
X128314285Y-89388571D01*
X128342857Y-89360000D01*
X128400000Y-89331428D01*
X128857142Y-89702857D02*
X129314285Y-89702857D01*
X126850000Y-89341428D02*
X126907142Y-89341428D01*
X126964285Y-89370000D01*
X126992857Y-89398571D01*
X127021428Y-89455714D01*
X127050000Y-89570000D01*
X127050000Y-89712857D01*
X127021428Y-89827142D01*
X126992857Y-89884285D01*
X126964285Y-89912857D01*
X126907142Y-89941428D01*
X126850000Y-89941428D01*
X126792857Y-89912857D01*
X126764285Y-89884285D01*
X126735714Y-89827142D01*
X126707142Y-89712857D01*
X126707142Y-89570000D01*
X126735714Y-89455714D01*
X126764285Y-89398571D01*
X126792857Y-89370000D01*
X126850000Y-89341428D01*
X127307142Y-89712857D02*
X127764285Y-89712857D01*
X127535714Y-89941428D02*
X127535714Y-89484285D01*
D11*
X124008095Y-103966190D02*
X124008095Y-103466190D01*
X124127142Y-103466190D01*
X124198571Y-103490000D01*
X124246190Y-103537619D01*
X124270000Y-103585238D01*
X124293809Y-103680476D01*
X124293809Y-103751904D01*
X124270000Y-103847142D01*
X124246190Y-103894761D01*
X124198571Y-103942380D01*
X124127142Y-103966190D01*
X124008095Y-103966190D01*
X124508095Y-103966190D02*
X124508095Y-103466190D01*
X124746190Y-103966190D02*
X124746190Y-103466190D01*
X125031904Y-103966190D01*
X125031904Y-103466190D01*
D10*
X135260000Y-98791428D02*
X135060000Y-98505714D01*
X134917142Y-98791428D02*
X134917142Y-98191428D01*
X135145714Y-98191428D01*
X135202857Y-98220000D01*
X135231428Y-98248571D01*
X135260000Y-98305714D01*
X135260000Y-98391428D01*
X135231428Y-98448571D01*
X135202857Y-98477142D01*
X135145714Y-98505714D01*
X134917142Y-98505714D01*
X135831428Y-98791428D02*
X135488571Y-98791428D01*
X135660000Y-98791428D02*
X135660000Y-98191428D01*
X135602857Y-98277142D01*
X135545714Y-98334285D01*
X135488571Y-98362857D01*
D12*
X121906666Y-91044523D02*
X121906666Y-91951666D01*
X121846190Y-92133095D01*
X121725238Y-92254047D01*
X121543809Y-92314523D01*
X121422857Y-92314523D01*
X123176666Y-92314523D02*
X122450952Y-92314523D01*
X122813809Y-92314523D02*
X122813809Y-91044523D01*
X122692857Y-91225952D01*
X122571904Y-91346904D01*
X122450952Y-91407380D01*
X120980238Y-99594523D02*
X120980238Y-98324523D01*
X122310714Y-99473571D02*
X122250238Y-99534047D01*
X122068809Y-99594523D01*
X121947857Y-99594523D01*
X121766428Y-99534047D01*
X121645476Y-99413095D01*
X121585000Y-99292142D01*
X121524523Y-99050238D01*
X121524523Y-98868809D01*
X121585000Y-98626904D01*
X121645476Y-98505952D01*
X121766428Y-98385000D01*
X121947857Y-98324523D01*
X122068809Y-98324523D01*
X122250238Y-98385000D01*
X122310714Y-98445476D01*
X123520238Y-99594523D02*
X122794523Y-99594523D01*
X123157380Y-99594523D02*
X123157380Y-98324523D01*
X123036428Y-98505952D01*
X122915476Y-98626904D01*
X122794523Y-98687380D01*
D10*
X127556666Y-103672380D02*
X127556666Y-104386666D01*
X127509047Y-104529523D01*
X127413809Y-104624761D01*
X127270952Y-104672380D01*
X127175714Y-104672380D01*
X127985238Y-103767619D02*
X128032857Y-103720000D01*
X128128095Y-103672380D01*
X128366190Y-103672380D01*
X128461428Y-103720000D01*
X128509047Y-103767619D01*
X128556666Y-103862857D01*
X128556666Y-103958095D01*
X128509047Y-104100952D01*
X127937619Y-104672380D01*
X128556666Y-104672380D01*
X135220000Y-100381428D02*
X135020000Y-100095714D01*
X134877142Y-100381428D02*
X134877142Y-99781428D01*
X135105714Y-99781428D01*
X135162857Y-99810000D01*
X135191428Y-99838571D01*
X135220000Y-99895714D01*
X135220000Y-99981428D01*
X135191428Y-100038571D01*
X135162857Y-100067142D01*
X135105714Y-100095714D01*
X134877142Y-100095714D01*
X135448571Y-99838571D02*
X135477142Y-99810000D01*
X135534285Y-99781428D01*
X135677142Y-99781428D01*
X135734285Y-99810000D01*
X135762857Y-99838571D01*
X135791428Y-99895714D01*
X135791428Y-99952857D01*
X135762857Y-100038571D01*
X135420000Y-100381428D01*
X135791428Y-100381428D01*
D13*
X133487258Y-98017500D02*
X133012742Y-98017500D01*
X133487258Y-99062500D02*
X133012742Y-99062500D01*
D14*
X126045000Y-89505000D02*
X126045000Y-89505000D01*
D15*
X124545000Y-93475000D02*
X124545000Y-90275000D01*
X124545000Y-90275000D02*
X131295000Y-90275000D01*
X131295000Y-90275000D02*
X131295000Y-93475000D01*
X131295000Y-93475000D02*
X124545000Y-93475000D01*
D14*
X126045000Y-89605000D02*
X126045000Y-89605000D01*
X126045000Y-89505000D02*
X126045000Y-89505000D01*
X126045000Y-89505000D02*
G75*
G03*
X126045000Y-89605000I0J-50000D01*
G01*
X126045000Y-89505000D02*
G75*
G03*
X126045000Y-89605000I0J-50000D01*
G01*
X126045000Y-89605000D02*
G75*
G03*
X126045000Y-89505000I0J50000D01*
G01*
X124095000Y-95110000D02*
X125620000Y-95110000D01*
X129170000Y-100140000D02*
X125970000Y-100140000D01*
X129170000Y-95240000D02*
X129170000Y-100140000D01*
X125970000Y-95240000D02*
X129170000Y-95240000D01*
X125970000Y-100140000D02*
X125970000Y-95240000D01*
D13*
X133482258Y-100722500D02*
X133007742Y-100722500D01*
X133482258Y-99677500D02*
X133007742Y-99677500D01*
M02*
