G04 #@! TF.GenerationSoftware,KiCad,Pcbnew,6.0.1*
G04 #@! TF.CreationDate,2022-03-11T23:02:45+01:00*
G04 #@! TF.ProjectId,load cell,6c6f6164-2063-4656-9c6c-2e6b69636164,rev?*
G04 #@! TF.SameCoordinates,Original*
G04 #@! TF.FileFunction,Copper,L2,Bot*
G04 #@! TF.FilePolarity,Positive*
%FSLAX46Y46*%
G04 Gerber Fmt 4.6, Leading zero omitted, Abs format (unit mm)*
G04 Created by KiCad (PCBNEW 6.0.1) date 2022-03-11 23:02:45*
%MOMM*%
%LPD*%
G01*
G04 APERTURE LIST*
G04 #@! TA.AperFunction,ComponentPad*
%ADD10C,1.000000*%
G04 #@! TD*
G04 #@! TA.AperFunction,ViaPad*
%ADD11C,0.450000*%
G04 #@! TD*
G04 #@! TA.AperFunction,ViaPad*
%ADD12C,2.900000*%
G04 #@! TD*
G04 #@! TA.AperFunction,Conductor*
%ADD13C,0.700000*%
G04 #@! TD*
G04 #@! TA.AperFunction,Conductor*
%ADD14C,0.200000*%
G04 #@! TD*
G04 APERTURE END LIST*
D10*
X126045000Y-91405000D03*
X127295000Y-91405000D03*
X128545000Y-91405000D03*
X129795000Y-91405000D03*
D11*
X121450000Y-100410000D03*
X125290000Y-100770000D03*
X129010000Y-99590000D03*
X130620000Y-94990000D03*
X129090000Y-103550000D03*
X131440000Y-100650000D03*
D12*
X134290000Y-96060000D03*
X121870000Y-96120000D03*
D13*
X121810000Y-100770000D02*
X121450000Y-100410000D01*
X125290000Y-100770000D02*
X121810000Y-100770000D01*
D14*
X127295000Y-97875000D02*
X129010000Y-99590000D01*
X127295000Y-91405000D02*
X127295000Y-97875000D01*
G04 #@! TA.AperFunction,Conductor*
G36*
X128050610Y-87303186D02*
G01*
X128366920Y-87307051D01*
X128375267Y-87307430D01*
X128951451Y-87352777D01*
X128959754Y-87353709D01*
X129112255Y-87375956D01*
X129531652Y-87437139D01*
X129539849Y-87438614D01*
X130065329Y-87551267D01*
X130104996Y-87559771D01*
X130113103Y-87561793D01*
X130668937Y-87720127D01*
X130676892Y-87722681D01*
X130911594Y-87806716D01*
X131221030Y-87917510D01*
X131228758Y-87920569D01*
X131758820Y-88151046D01*
X131766358Y-88154626D01*
X132279955Y-88419714D01*
X132287222Y-88423774D01*
X132590891Y-88606960D01*
X132782125Y-88722320D01*
X132789132Y-88726871D01*
X133263134Y-89057538D01*
X133269825Y-89062543D01*
X133720888Y-89423913D01*
X133727231Y-89429350D01*
X134153339Y-89819807D01*
X134159309Y-89825653D01*
X134558607Y-90243494D01*
X134564176Y-90249722D01*
X134933091Y-90690938D01*
X134934910Y-90693114D01*
X134940047Y-90699689D01*
X135280591Y-91166693D01*
X135285273Y-91173581D01*
X135594122Y-91662132D01*
X135598336Y-91669313D01*
X135853279Y-92138861D01*
X135874119Y-92177243D01*
X135877858Y-92184709D01*
X135973359Y-92392345D01*
X136119365Y-92709785D01*
X136122603Y-92717487D01*
X136328785Y-93257424D01*
X136331505Y-93265323D01*
X136501450Y-93817739D01*
X136503633Y-93825771D01*
X136613817Y-94291883D01*
X136636598Y-94388252D01*
X136638249Y-94396442D01*
X136733638Y-94966467D01*
X136734743Y-94974749D01*
X136792145Y-95549843D01*
X136792699Y-95558179D01*
X136811880Y-96136383D01*
X136811911Y-96143639D01*
X136801533Y-96568300D01*
X136801148Y-96575536D01*
X136758106Y-97099062D01*
X136753745Y-97152103D01*
X136752785Y-97160403D01*
X136667357Y-97732012D01*
X136665849Y-97740230D01*
X136542725Y-98304929D01*
X136540675Y-98313029D01*
X136380400Y-98868315D01*
X136377818Y-98876261D01*
X136181093Y-99419709D01*
X136177991Y-99427463D01*
X135958533Y-99927403D01*
X135945684Y-99956673D01*
X135942076Y-99964203D01*
X135691237Y-100446063D01*
X135675206Y-100476858D01*
X135671107Y-100484133D01*
X135484366Y-100791268D01*
X135370845Y-100977977D01*
X135366270Y-100984969D01*
X135033936Y-101457831D01*
X135028908Y-101464503D01*
X134665972Y-101914295D01*
X134660512Y-101920620D01*
X134268572Y-102345361D01*
X134262706Y-102351310D01*
X133843466Y-102749156D01*
X133837218Y-102754703D01*
X133392540Y-103123881D01*
X133385938Y-103129002D01*
X132917767Y-103467901D01*
X132910840Y-103472573D01*
X132464296Y-103752690D01*
X132421246Y-103779695D01*
X132414025Y-103783898D01*
X131905143Y-104057902D01*
X131897670Y-104061612D01*
X131371726Y-104301299D01*
X131364045Y-104304496D01*
X131086186Y-104409491D01*
X130823386Y-104508794D01*
X130815476Y-104511487D01*
X130262472Y-104679502D01*
X130254402Y-104681664D01*
X129691493Y-104812657D01*
X129683297Y-104814280D01*
X129491503Y-104845688D01*
X129112925Y-104907682D01*
X129104660Y-104908756D01*
X128529356Y-104964151D01*
X128521025Y-104964676D01*
X128361319Y-104969416D01*
X127943301Y-104981822D01*
X127934946Y-104981792D01*
X127646175Y-104971204D01*
X127357392Y-104960614D01*
X127349078Y-104960034D01*
X126774148Y-104900620D01*
X126765894Y-104899490D01*
X126196190Y-104802108D01*
X126188004Y-104800428D01*
X126058923Y-104769439D01*
X125626005Y-104665505D01*
X125617966Y-104663290D01*
X125066144Y-104491417D01*
X125058267Y-104488674D01*
X124519062Y-104280612D01*
X124511372Y-104277348D01*
X123987118Y-104033997D01*
X123979661Y-104030229D01*
X123472726Y-103752690D01*
X123465534Y-103748437D01*
X122978092Y-103437903D01*
X122971198Y-103433183D01*
X122505401Y-103091021D01*
X122498836Y-103085854D01*
X122056742Y-102713577D01*
X122050532Y-102707986D01*
X121634095Y-102307239D01*
X121628270Y-102301250D01*
X121239289Y-101873765D01*
X121233874Y-101867402D01*
X121041514Y-101625572D01*
X120874080Y-101415078D01*
X120869110Y-101408386D01*
X120842852Y-101370464D01*
X120820518Y-101303072D01*
X120838164Y-101234303D01*
X120890188Y-101185991D01*
X120960073Y-101173475D01*
X121025630Y-101200729D01*
X121035533Y-101209635D01*
X121128969Y-101303072D01*
X121173685Y-101347788D01*
X121180827Y-101355555D01*
X121214471Y-101395367D01*
X121219895Y-101399514D01*
X121219896Y-101399515D01*
X121278962Y-101444674D01*
X121281379Y-101446568D01*
X121344738Y-101497510D01*
X121350857Y-101500547D01*
X121353652Y-101502335D01*
X121354013Y-101502588D01*
X121354380Y-101502790D01*
X121357238Y-101504521D01*
X121362652Y-101508660D01*
X121436262Y-101542985D01*
X121439033Y-101544319D01*
X121511814Y-101580447D01*
X121518435Y-101582098D01*
X121521563Y-101583249D01*
X121521956Y-101583413D01*
X121522361Y-101583532D01*
X121525525Y-101584609D01*
X121531704Y-101587490D01*
X121605498Y-101603985D01*
X121611002Y-101605215D01*
X121613998Y-101605924D01*
X121644051Y-101613417D01*
X121692801Y-101625572D01*
X121699622Y-101625763D01*
X121702925Y-101626215D01*
X121703809Y-101626374D01*
X121708692Y-101627052D01*
X121713740Y-101628180D01*
X121719463Y-101628500D01*
X121795844Y-101628500D01*
X121799363Y-101628549D01*
X121879257Y-101630781D01*
X121885961Y-101629502D01*
X121892762Y-101628955D01*
X121892804Y-101629475D01*
X121903125Y-101628500D01*
X125336596Y-101628500D01*
X125475437Y-101613417D01*
X125652223Y-101553922D01*
X125812109Y-101457853D01*
X125947636Y-101329692D01*
X126052480Y-101175418D01*
X126121751Y-101002229D01*
X126152216Y-100818205D01*
X126150805Y-100791268D01*
X126142810Y-100638746D01*
X126142453Y-100631933D01*
X126092920Y-100452102D01*
X126005925Y-100287102D01*
X126001520Y-100281889D01*
X126001517Y-100281885D01*
X125889936Y-100149847D01*
X125889932Y-100149843D01*
X125885529Y-100144633D01*
X125880104Y-100140485D01*
X125742769Y-100035484D01*
X125742765Y-100035481D01*
X125737348Y-100031340D01*
X125568296Y-99952510D01*
X125386260Y-99911820D01*
X125380537Y-99911500D01*
X122217793Y-99911500D01*
X122149672Y-99891498D01*
X122128698Y-99874595D01*
X122024103Y-99770000D01*
X121970516Y-99726915D01*
X121920578Y-99686764D01*
X121920577Y-99686763D01*
X121915262Y-99682490D01*
X121909156Y-99679459D01*
X121909153Y-99679457D01*
X121754297Y-99602586D01*
X121754293Y-99602585D01*
X121748186Y-99599553D01*
X121567199Y-99554428D01*
X121560381Y-99554238D01*
X121560377Y-99554237D01*
X121479425Y-99551976D01*
X121380743Y-99549219D01*
X121354438Y-99554237D01*
X121204226Y-99582891D01*
X121204221Y-99582893D01*
X121197519Y-99584171D01*
X121191248Y-99586859D01*
X121191244Y-99586860D01*
X121126677Y-99614534D01*
X121026074Y-99657653D01*
X120874407Y-99766235D01*
X120749597Y-99904853D01*
X120657462Y-100067038D01*
X120655444Y-100073556D01*
X120655443Y-100073559D01*
X120622013Y-100181555D01*
X120602304Y-100245225D01*
X120586696Y-100431099D01*
X120587598Y-100437859D01*
X120587598Y-100437861D01*
X120605556Y-100572445D01*
X120594739Y-100642613D01*
X120547704Y-100695794D01*
X120479384Y-100715104D01*
X120411470Y-100694411D01*
X120372547Y-100653816D01*
X120238764Y-100430281D01*
X120234713Y-100422974D01*
X119971420Y-99908455D01*
X119967863Y-99900895D01*
X119739260Y-99370086D01*
X119736211Y-99362307D01*
X119543282Y-98817491D01*
X119540756Y-98809527D01*
X119384362Y-98253137D01*
X119382369Y-98245023D01*
X119337868Y-98033851D01*
X119263189Y-97679475D01*
X119261744Y-97671277D01*
X119180305Y-97099060D01*
X119179403Y-97090755D01*
X119136070Y-96514435D01*
X119135720Y-96506088D01*
X119130675Y-95928153D01*
X119130879Y-95919815D01*
X119164149Y-95342799D01*
X119164906Y-95334483D01*
X119236345Y-94760939D01*
X119237650Y-94752701D01*
X119306255Y-94396442D01*
X119346939Y-94185171D01*
X119348789Y-94177027D01*
X119495453Y-93617981D01*
X119497840Y-93609975D01*
X119681230Y-93061881D01*
X119684143Y-93054050D01*
X119903443Y-92519341D01*
X119906867Y-92511720D01*
X120161138Y-91992686D01*
X120165061Y-91985308D01*
X120453171Y-91484271D01*
X120457574Y-91477171D01*
X120515142Y-91390851D01*
X125031719Y-91390851D01*
X125048268Y-91587934D01*
X125102783Y-91778050D01*
X125193187Y-91953956D01*
X125316035Y-92108953D01*
X125320728Y-92112947D01*
X125320729Y-92112948D01*
X125458315Y-92230042D01*
X125466650Y-92237136D01*
X125639294Y-92333624D01*
X125827392Y-92394740D01*
X126023777Y-92418158D01*
X126029912Y-92417686D01*
X126029914Y-92417686D01*
X126214830Y-92403457D01*
X126214834Y-92403456D01*
X126220972Y-92402984D01*
X126411463Y-92349798D01*
X126416967Y-92347018D01*
X126416969Y-92347017D01*
X126503690Y-92303211D01*
X126573512Y-92290351D01*
X126639203Y-92317280D01*
X126679906Y-92375450D01*
X126686500Y-92415677D01*
X126686500Y-97826864D01*
X126685422Y-97843307D01*
X126681250Y-97875000D01*
X126686500Y-97914880D01*
X126686500Y-97914885D01*
X126696141Y-97988117D01*
X126702162Y-98033851D01*
X126763476Y-98181876D01*
X126768503Y-98188427D01*
X126768504Y-98188429D01*
X126836520Y-98277069D01*
X126836526Y-98277075D01*
X126861013Y-98308987D01*
X126867568Y-98314017D01*
X126886379Y-98328452D01*
X126898770Y-98339319D01*
X128259485Y-99700034D01*
X128289948Y-99749357D01*
X128339932Y-99899615D01*
X128425179Y-100040373D01*
X128539491Y-100158747D01*
X128677189Y-100248854D01*
X128831428Y-100306215D01*
X128838409Y-100307146D01*
X128838411Y-100307147D01*
X128987561Y-100327048D01*
X128987565Y-100327048D01*
X128994542Y-100327979D01*
X129001553Y-100327341D01*
X129001557Y-100327341D01*
X129151403Y-100313704D01*
X129151404Y-100313704D01*
X129158424Y-100313065D01*
X129219734Y-100293144D01*
X129308230Y-100264390D01*
X129308233Y-100264389D01*
X129314929Y-100262213D01*
X129456279Y-100177951D01*
X129575449Y-100064468D01*
X129594706Y-100035484D01*
X129662614Y-99933275D01*
X129662615Y-99933273D01*
X129666515Y-99927403D01*
X129724951Y-99773568D01*
X129741242Y-99657653D01*
X129747302Y-99614534D01*
X129747303Y-99614527D01*
X129747853Y-99610610D01*
X129748141Y-99590000D01*
X129729798Y-99426466D01*
X129675680Y-99271060D01*
X129623650Y-99187794D01*
X129592209Y-99137479D01*
X129588476Y-99131505D01*
X129530499Y-99073122D01*
X129477486Y-99019737D01*
X129477482Y-99019734D01*
X129472522Y-99014739D01*
X129333580Y-98926563D01*
X129178555Y-98871361D01*
X129177582Y-98871245D01*
X129119419Y-98838870D01*
X127940405Y-97659856D01*
X127906379Y-97597544D01*
X127903500Y-97570761D01*
X127903500Y-92416605D01*
X127923502Y-92348484D01*
X127977158Y-92301991D01*
X128047432Y-92291887D01*
X128090971Y-92306617D01*
X128139294Y-92333624D01*
X128327392Y-92394740D01*
X128523777Y-92418158D01*
X128529912Y-92417686D01*
X128529914Y-92417686D01*
X128714830Y-92403457D01*
X128714834Y-92403456D01*
X128720972Y-92402984D01*
X128911463Y-92349798D01*
X128916967Y-92347018D01*
X128916969Y-92347017D01*
X129082495Y-92263404D01*
X129082497Y-92263403D01*
X129087996Y-92260625D01*
X129093635Y-92256219D01*
X129094116Y-92256029D01*
X129098053Y-92253530D01*
X129098528Y-92254278D01*
X129159624Y-92230042D01*
X129232679Y-92245520D01*
X129384121Y-92330159D01*
X129395356Y-92335067D01*
X129571641Y-92392345D01*
X129583615Y-92394978D01*
X129767676Y-92416926D01*
X129779925Y-92417183D01*
X129964742Y-92402962D01*
X129976822Y-92400831D01*
X130155345Y-92350986D01*
X130166778Y-92346552D01*
X130290507Y-92284052D01*
X130300791Y-92274407D01*
X130298553Y-92267763D01*
X129591100Y-91560310D01*
X129557074Y-91497998D01*
X129555189Y-91455426D01*
X129557985Y-91433295D01*
X129558364Y-91406132D01*
X130159408Y-91406132D01*
X130159539Y-91407965D01*
X130163790Y-91414580D01*
X130651661Y-91902451D01*
X130664041Y-91909211D01*
X130670775Y-91904170D01*
X130717262Y-91822337D01*
X130722256Y-91811121D01*
X130780759Y-91635253D01*
X130783479Y-91623281D01*
X130807039Y-91436784D01*
X130807531Y-91429757D01*
X130807828Y-91408523D01*
X130807533Y-91401494D01*
X130789188Y-91214397D01*
X130786805Y-91202362D01*
X130733233Y-91024924D01*
X130728559Y-91013584D01*
X130673562Y-90910148D01*
X130663702Y-90900067D01*
X130656575Y-90902635D01*
X130167022Y-91392188D01*
X130159408Y-91406132D01*
X129558364Y-91406132D01*
X129558380Y-91405000D01*
X129553245Y-91352631D01*
X129566504Y-91282885D01*
X129589549Y-91251241D01*
X130292834Y-90547956D01*
X130299594Y-90535576D01*
X130294935Y-90529353D01*
X130192924Y-90474196D01*
X130181619Y-90469444D01*
X130004554Y-90414633D01*
X129992541Y-90412167D01*
X129808199Y-90392792D01*
X129795931Y-90392707D01*
X129611345Y-90409505D01*
X129599296Y-90411803D01*
X129421479Y-90464138D01*
X129410111Y-90468731D01*
X129245846Y-90554607D01*
X129239404Y-90558822D01*
X129171450Y-90579385D01*
X129110483Y-90564225D01*
X129026412Y-90518768D01*
X128937701Y-90470802D01*
X128748768Y-90412318D01*
X128742643Y-90411674D01*
X128742642Y-90411674D01*
X128558204Y-90392289D01*
X128558202Y-90392289D01*
X128552075Y-90391645D01*
X128469576Y-90399153D01*
X128361251Y-90409011D01*
X128361248Y-90409012D01*
X128355112Y-90409570D01*
X128349206Y-90411308D01*
X128349202Y-90411309D01*
X128244076Y-90442249D01*
X128165381Y-90465410D01*
X128159923Y-90468263D01*
X128159919Y-90468265D01*
X127995566Y-90554187D01*
X127995561Y-90554190D01*
X127990110Y-90557040D01*
X127987831Y-90558872D01*
X127920950Y-90579113D01*
X127859979Y-90563953D01*
X127854338Y-90560903D01*
X127687701Y-90470802D01*
X127498768Y-90412318D01*
X127492643Y-90411674D01*
X127492642Y-90411674D01*
X127308204Y-90392289D01*
X127308202Y-90392289D01*
X127302075Y-90391645D01*
X127219576Y-90399153D01*
X127111251Y-90409011D01*
X127111248Y-90409012D01*
X127105112Y-90409570D01*
X127099206Y-90411308D01*
X127099202Y-90411309D01*
X126994076Y-90442249D01*
X126915381Y-90465410D01*
X126909923Y-90468263D01*
X126909919Y-90468265D01*
X126745566Y-90554187D01*
X126745561Y-90554190D01*
X126740110Y-90557040D01*
X126737831Y-90558872D01*
X126670950Y-90579113D01*
X126609979Y-90563953D01*
X126604338Y-90560903D01*
X126437701Y-90470802D01*
X126248768Y-90412318D01*
X126242643Y-90411674D01*
X126242642Y-90411674D01*
X126058204Y-90392289D01*
X126058202Y-90392289D01*
X126052075Y-90391645D01*
X125969576Y-90399153D01*
X125861251Y-90409011D01*
X125861248Y-90409012D01*
X125855112Y-90409570D01*
X125849206Y-90411308D01*
X125849202Y-90411309D01*
X125744076Y-90442249D01*
X125665381Y-90465410D01*
X125659923Y-90468263D01*
X125659919Y-90468265D01*
X125569147Y-90515720D01*
X125490110Y-90557040D01*
X125335975Y-90680968D01*
X125208846Y-90832474D01*
X125205879Y-90837872D01*
X125205875Y-90837877D01*
X125127095Y-90981180D01*
X125113567Y-91005787D01*
X125111706Y-91011654D01*
X125111705Y-91011656D01*
X125109429Y-91018831D01*
X125053765Y-91194306D01*
X125031719Y-91390851D01*
X120515142Y-91390851D01*
X120636977Y-91208167D01*
X120778250Y-90996338D01*
X120783086Y-90989581D01*
X121134967Y-90531001D01*
X121140240Y-90524583D01*
X121521699Y-90090376D01*
X121527413Y-90084290D01*
X121936815Y-89676317D01*
X121942926Y-89670619D01*
X122378439Y-89290696D01*
X122384913Y-89285415D01*
X122844674Y-88935171D01*
X122851485Y-88930332D01*
X123333429Y-88611339D01*
X123340531Y-88606969D01*
X123842597Y-88320595D01*
X123849970Y-88316709D01*
X124369872Y-88064258D01*
X124377501Y-88060861D01*
X124912999Y-87843418D01*
X124920840Y-87840533D01*
X125469568Y-87659059D01*
X125477583Y-87656700D01*
X125852377Y-87559771D01*
X126037148Y-87511986D01*
X126045285Y-87510168D01*
X126613208Y-87402858D01*
X126621439Y-87401584D01*
X126941835Y-87362811D01*
X127195207Y-87332150D01*
X127203530Y-87331421D01*
X127703691Y-87304333D01*
X127780655Y-87300165D01*
X127789004Y-87299990D01*
X128050610Y-87303186D01*
G37*
G04 #@! TD.AperFunction*
M02*
