G04 #@! TF.GenerationSoftware,KiCad,Pcbnew,6.0.1*
G04 #@! TF.CreationDate,2022-03-01T21:25:20+01:00*
G04 #@! TF.ProjectId,PCB_v1,5043425f-7631-42e6-9b69-6361645f7063,rev?*
G04 #@! TF.SameCoordinates,Original*
G04 #@! TF.FileFunction,Copper,L1,Top*
G04 #@! TF.FilePolarity,Positive*
%FSLAX46Y46*%
G04 Gerber Fmt 4.6, Leading zero omitted, Abs format (unit mm)*
G04 Created by KiCad (PCBNEW 6.0.1) date 2022-03-01 21:25:20*
%MOMM*%
%LPD*%
G01*
G04 APERTURE LIST*
G04 Aperture macros list*
%AMRoundRect*
0 Rectangle with rounded corners*
0 $1 Rounding radius*
0 $2 $3 $4 $5 $6 $7 $8 $9 X,Y pos of 4 corners*
0 Add a 4 corners polygon primitive as box body*
4,1,4,$2,$3,$4,$5,$6,$7,$8,$9,$2,$3,0*
0 Add four circle primitives for the rounded corners*
1,1,$1+$1,$2,$3*
1,1,$1+$1,$4,$5*
1,1,$1+$1,$6,$7*
1,1,$1+$1,$8,$9*
0 Add four rect primitives between the rounded corners*
20,1,$1+$1,$2,$3,$4,$5,0*
20,1,$1+$1,$4,$5,$6,$7,0*
20,1,$1+$1,$6,$7,$8,$9,0*
20,1,$1+$1,$8,$9,$2,$3,0*%
G04 Aperture macros list end*
G04 #@! TA.AperFunction,SMDPad,CuDef*
%ADD10RoundRect,0.218750X0.218750X0.256250X-0.218750X0.256250X-0.218750X-0.256250X0.218750X-0.256250X0*%
G04 #@! TD*
G04 #@! TA.AperFunction,SMDPad,CuDef*
%ADD11RoundRect,0.225000X-0.225000X-0.250000X0.225000X-0.250000X0.225000X0.250000X-0.225000X0.250000X0*%
G04 #@! TD*
G04 #@! TA.AperFunction,SMDPad,CuDef*
%ADD12RoundRect,0.200000X0.200000X0.275000X-0.200000X0.275000X-0.200000X-0.275000X0.200000X-0.275000X0*%
G04 #@! TD*
G04 #@! TA.AperFunction,SMDPad,CuDef*
%ADD13R,1.520000X2.800000*%
G04 #@! TD*
G04 #@! TA.AperFunction,SMDPad,CuDef*
%ADD14R,2.800000X1.520000*%
G04 #@! TD*
G04 #@! TA.AperFunction,SMDPad,CuDef*
%ADD15R,2.790000X2.790000*%
G04 #@! TD*
G04 #@! TA.AperFunction,SMDPad,CuDef*
%ADD16RoundRect,0.200000X-0.200000X-0.275000X0.200000X-0.275000X0.200000X0.275000X-0.200000X0.275000X0*%
G04 #@! TD*
G04 #@! TA.AperFunction,SMDPad,CuDef*
%ADD17R,0.950000X0.950000*%
G04 #@! TD*
G04 #@! TA.AperFunction,SMDPad,CuDef*
%ADD18RoundRect,0.225000X0.225000X0.250000X-0.225000X0.250000X-0.225000X-0.250000X0.225000X-0.250000X0*%
G04 #@! TD*
G04 #@! TA.AperFunction,SMDPad,CuDef*
%ADD19R,3.100000X2.200000*%
G04 #@! TD*
G04 #@! TA.AperFunction,SMDPad,CuDef*
%ADD20R,1.500000X1.520000*%
G04 #@! TD*
G04 #@! TA.AperFunction,ComponentPad*
%ADD21C,1.000000*%
G04 #@! TD*
G04 #@! TA.AperFunction,SMDPad,CuDef*
%ADD22R,5.000000X0.750000*%
G04 #@! TD*
G04 #@! TA.AperFunction,SMDPad,CuDef*
%ADD23R,2.960000X1.270000*%
G04 #@! TD*
G04 #@! TA.AperFunction,ComponentPad*
%ADD24R,1.600000X1.600000*%
G04 #@! TD*
G04 #@! TA.AperFunction,ComponentPad*
%ADD25C,1.600000*%
G04 #@! TD*
G04 #@! TA.AperFunction,SMDPad,CuDef*
%ADD26R,1.680000X3.150000*%
G04 #@! TD*
G04 #@! TA.AperFunction,SMDPad,CuDef*
%ADD27RoundRect,0.218750X-0.218750X-0.256250X0.218750X-0.256250X0.218750X0.256250X-0.218750X0.256250X0*%
G04 #@! TD*
G04 #@! TA.AperFunction,ComponentPad*
%ADD28C,1.440000*%
G04 #@! TD*
G04 #@! TA.AperFunction,ComponentPad*
%ADD29R,1.110000X1.110000*%
G04 #@! TD*
G04 #@! TA.AperFunction,ComponentPad*
%ADD30C,1.110000*%
G04 #@! TD*
G04 #@! TA.AperFunction,ComponentPad*
%ADD31R,1.350000X1.350000*%
G04 #@! TD*
G04 #@! TA.AperFunction,ComponentPad*
%ADD32O,1.350000X1.350000*%
G04 #@! TD*
G04 #@! TA.AperFunction,ComponentPad*
%ADD33R,2.200000X2.200000*%
G04 #@! TD*
G04 #@! TA.AperFunction,ComponentPad*
%ADD34C,2.200000*%
G04 #@! TD*
G04 #@! TA.AperFunction,ViaPad*
%ADD35C,0.450000*%
G04 #@! TD*
G04 #@! TA.AperFunction,Conductor*
%ADD36C,0.500000*%
G04 #@! TD*
G04 #@! TA.AperFunction,Conductor*
%ADD37C,0.300000*%
G04 #@! TD*
G04 #@! TA.AperFunction,Conductor*
%ADD38C,0.400000*%
G04 #@! TD*
G04 #@! TA.AperFunction,Conductor*
%ADD39C,0.700000*%
G04 #@! TD*
G04 #@! TA.AperFunction,Conductor*
%ADD40C,0.250000*%
G04 #@! TD*
G04 APERTURE END LIST*
D10*
X188260000Y-131040000D03*
X186685000Y-131040000D03*
D11*
X159020000Y-135390000D03*
X160570000Y-135390000D03*
D12*
X184497500Y-129840000D03*
X182847500Y-129840000D03*
D13*
X106091000Y-154095000D03*
X108091000Y-154095000D03*
X110091000Y-154095000D03*
X112091000Y-154095000D03*
X114091000Y-154095000D03*
X116091000Y-154095000D03*
X118091000Y-154095000D03*
X120091000Y-154095000D03*
X122091000Y-154095000D03*
X124091000Y-154095000D03*
X126091000Y-154095000D03*
X128091000Y-154095000D03*
X130091000Y-154095000D03*
D14*
X132071000Y-150245000D03*
X132071000Y-148245000D03*
X132071000Y-146245000D03*
X132071000Y-144245000D03*
X132071000Y-142245000D03*
X132071000Y-140245000D03*
X132189000Y-138245000D03*
X132189000Y-136245000D03*
D13*
X130091000Y-132395000D03*
X128091000Y-132395000D03*
X126091000Y-132395000D03*
X124091000Y-132395000D03*
X122091000Y-132395000D03*
X120091000Y-132395000D03*
X118091000Y-132395000D03*
X116091000Y-132395000D03*
X114091000Y-132395000D03*
X112091000Y-132395000D03*
X110091000Y-132395000D03*
X108091000Y-132395000D03*
X106091000Y-132395000D03*
X104091000Y-132395000D03*
X102091000Y-132395000D03*
X100091000Y-132395000D03*
D15*
X109085000Y-148100000D03*
D12*
X168550000Y-132910000D03*
X166900000Y-132910000D03*
D16*
X195647500Y-131840000D03*
X197297500Y-131840000D03*
D17*
X83655000Y-141920000D03*
X85155000Y-141920000D03*
D12*
X118530000Y-157980000D03*
X116880000Y-157980000D03*
D16*
X116580000Y-128920000D03*
X118230000Y-128920000D03*
D12*
X81540000Y-141820000D03*
X79890000Y-141820000D03*
D16*
X86705000Y-146780000D03*
X88355000Y-146780000D03*
D18*
X81550000Y-146950000D03*
X80000000Y-146950000D03*
D19*
X138795000Y-143030000D03*
D20*
X142015000Y-143030000D03*
D17*
X113015075Y-158139925D03*
X114515075Y-158139925D03*
D16*
X182847500Y-131840000D03*
X184497500Y-131840000D03*
D12*
X207855000Y-128920000D03*
X206205000Y-128920000D03*
D21*
X205815000Y-132970000D03*
X204565000Y-132970000D03*
X203315000Y-132970000D03*
X202065000Y-132970000D03*
D22*
X92205000Y-152920000D03*
X94205000Y-150920000D03*
X92205000Y-148920000D03*
X94205000Y-146920000D03*
X92205000Y-144920000D03*
X94205000Y-142920000D03*
X92205000Y-140920000D03*
X94205000Y-138920000D03*
X92205000Y-136920000D03*
X94205000Y-134920000D03*
D23*
X158745000Y-142790000D03*
X155145000Y-145330000D03*
X158745000Y-147870000D03*
D24*
X203005000Y-138120000D03*
D25*
X200465000Y-138120000D03*
X197925000Y-138120000D03*
X195385000Y-138120000D03*
X192845000Y-138120000D03*
X190305000Y-138120000D03*
X187765000Y-138120000D03*
X185225000Y-138120000D03*
X182685000Y-138120000D03*
X180145000Y-138120000D03*
X177605000Y-138120000D03*
X175065000Y-138120000D03*
X172525000Y-138120000D03*
X169985000Y-138120000D03*
X167445000Y-138120000D03*
X164905000Y-138120000D03*
X162365000Y-138120000D03*
X159825000Y-138120000D03*
X157285000Y-138120000D03*
X154745000Y-138120000D03*
X152205000Y-138120000D03*
X149665000Y-138120000D03*
X147125000Y-138120000D03*
X144585000Y-138120000D03*
X144585000Y-153360000D03*
X147125000Y-153360000D03*
X149665000Y-153360000D03*
X152205000Y-153360000D03*
X154745000Y-153360000D03*
X157285000Y-153360000D03*
X159825000Y-153360000D03*
X162365000Y-153360000D03*
X164905000Y-153360000D03*
X167445000Y-153360000D03*
X169985000Y-153360000D03*
X172525000Y-153360000D03*
X175065000Y-153360000D03*
X177605000Y-153360000D03*
X180145000Y-153360000D03*
X182685000Y-153360000D03*
X185225000Y-153360000D03*
X187765000Y-153360000D03*
X190305000Y-153360000D03*
X192845000Y-153360000D03*
X195385000Y-153360000D03*
X197925000Y-153360000D03*
X200465000Y-153360000D03*
X203005000Y-153360000D03*
D26*
X136705000Y-148630000D03*
X141485000Y-148630000D03*
D27*
X191485000Y-131040000D03*
X193060000Y-131040000D03*
D16*
X201300000Y-128900000D03*
X202950000Y-128900000D03*
D12*
X197177500Y-129840000D03*
X195527500Y-129840000D03*
D18*
X81490000Y-143910000D03*
X79940000Y-143910000D03*
D16*
X86600000Y-144010000D03*
X88250000Y-144010000D03*
D17*
X113255000Y-128920000D03*
X114755000Y-128920000D03*
D28*
X87443500Y-149194000D03*
X84903500Y-149194000D03*
X82363500Y-149194000D03*
D29*
X82572500Y-137465000D03*
D30*
X85112500Y-137465000D03*
X87652500Y-137465000D03*
D31*
X149365000Y-131500000D03*
D32*
X149365000Y-133500000D03*
X151365000Y-131500000D03*
X151365000Y-133500000D03*
X153365000Y-131500000D03*
X153365000Y-133500000D03*
X155365000Y-131500000D03*
X155365000Y-133500000D03*
X157365000Y-131500000D03*
X157365000Y-133500000D03*
X159365000Y-131500000D03*
X159365000Y-133500000D03*
X161365000Y-131500000D03*
X161365000Y-133500000D03*
X163365000Y-131500000D03*
X163365000Y-133500000D03*
D33*
X149715000Y-143480000D03*
D34*
X147175000Y-143480000D03*
D35*
X123655000Y-136710000D03*
X121755000Y-136670000D03*
X119875000Y-136630000D03*
X118035000Y-136670000D03*
X123935000Y-143520000D03*
X121585000Y-143460000D03*
X119805000Y-143520000D03*
X118035000Y-143580000D03*
X123975000Y-140990000D03*
X121565000Y-140870000D03*
X119615000Y-140780000D03*
X117875000Y-140890000D03*
X123855000Y-138600000D03*
X121625000Y-138660000D03*
X119695000Y-138600000D03*
X117895000Y-138570000D03*
X195615000Y-147680000D03*
X199575000Y-147770000D03*
X87585000Y-145230000D03*
X136175000Y-130690000D03*
X130195000Y-137820000D03*
X129075000Y-145980000D03*
X204175000Y-129090000D03*
X192815000Y-156218000D03*
X88773000Y-141224000D03*
X205058000Y-129102000D03*
X129355000Y-140080000D03*
X173810000Y-157279000D03*
X134275000Y-132580000D03*
X102015000Y-148160000D03*
X189505000Y-141940000D03*
X106985000Y-151500000D03*
X80275000Y-140390000D03*
X142295000Y-132450000D03*
X185615000Y-131800000D03*
X120925000Y-146310000D03*
X86665000Y-151310000D03*
X110665000Y-146440000D03*
X93435000Y-141840000D03*
X127155000Y-134870000D03*
X122735000Y-134900000D03*
X109465000Y-141020000D03*
X111415000Y-146430000D03*
X79635000Y-143000000D03*
X112245000Y-146420000D03*
X109585000Y-146360000D03*
X113585000Y-142420000D03*
X119855000Y-134910000D03*
X179455000Y-156060000D03*
X111675000Y-143700000D03*
X99805000Y-148090000D03*
X118245000Y-146310000D03*
X125175000Y-146280000D03*
X118365000Y-134890000D03*
X111855000Y-157384031D03*
X133955000Y-144720000D03*
X111505000Y-140920000D03*
X98679000Y-133096000D03*
X163957000Y-129680480D03*
X114075000Y-134920000D03*
X122345000Y-146310000D03*
X123775000Y-146310000D03*
X116915000Y-146280000D03*
X109435000Y-144730000D03*
X114335000Y-145080000D03*
X199517000Y-149860000D03*
X128085000Y-141970000D03*
X108565000Y-148650000D03*
X89185000Y-133340000D03*
X109465000Y-141730000D03*
X104605000Y-129920000D03*
X110715000Y-140920000D03*
X113295000Y-146180000D03*
X116835000Y-134880000D03*
X128015000Y-145120000D03*
X109435000Y-145560000D03*
X127895000Y-156000000D03*
X140175000Y-134490000D03*
X115455000Y-134870000D03*
X194085000Y-147940000D03*
X93345000Y-132334000D03*
X121265000Y-134920000D03*
X108255000Y-148110000D03*
X109435000Y-148690000D03*
X119595000Y-146280000D03*
X161765000Y-135350000D03*
X113585000Y-141460000D03*
X187579000Y-157226000D03*
X111885000Y-129650000D03*
X124215000Y-134920000D03*
X172845000Y-142930000D03*
X193270000Y-142975000D03*
X109445000Y-142750000D03*
X160877000Y-147860000D03*
X114035000Y-139760000D03*
X113985000Y-136660000D03*
X113425000Y-145100000D03*
X169725000Y-133680000D03*
X108945000Y-148170000D03*
X109425000Y-143700000D03*
X109545000Y-147560000D03*
X114005000Y-138240000D03*
X115665000Y-146260000D03*
X139200000Y-138845000D03*
X95377000Y-155702000D03*
X110505000Y-143700000D03*
X90755000Y-156570000D03*
X131440000Y-130905000D03*
X196482000Y-145993000D03*
X194555000Y-132040000D03*
X94025000Y-134000000D03*
X114295000Y-142940000D03*
X108655000Y-147580000D03*
X79855000Y-147810000D03*
X109785000Y-148220000D03*
X104995000Y-151510000D03*
X115081916Y-130638799D03*
X128425000Y-134870000D03*
X173040000Y-148005000D03*
X114315000Y-144410000D03*
X112795000Y-140920000D03*
X189872500Y-131040000D03*
X182755000Y-140820000D03*
X198475000Y-143790000D03*
X106125000Y-149010000D03*
X95205000Y-153470000D03*
X95975000Y-136920000D03*
X140843000Y-129495500D03*
X106195000Y-128990000D03*
X101005000Y-155980000D03*
X96445000Y-151800000D03*
X83855000Y-143950000D03*
X86785000Y-138580000D03*
X187415000Y-149110000D03*
X102483767Y-157811233D03*
X134335000Y-143750000D03*
X136405000Y-143190000D03*
X177115000Y-145330000D03*
X157445000Y-145330000D03*
X152875000Y-145350000D03*
X127325000Y-141620000D03*
X163885000Y-145330000D03*
X143485000Y-145340000D03*
X176825000Y-155840000D03*
X117405000Y-151415500D03*
X168795000Y-146460000D03*
X176465000Y-154450000D03*
X136175000Y-146465500D03*
X110215000Y-152270498D03*
X132945000Y-152240000D03*
X95700556Y-157435556D03*
X107070000Y-156125000D03*
X141365000Y-128764500D03*
X135335000Y-154740000D03*
X146695000Y-154810000D03*
X148821233Y-134483767D03*
X144805000Y-157495489D03*
X112125000Y-156600000D03*
X150775000Y-135870000D03*
X149575000Y-129130000D03*
X98905000Y-152560000D03*
X155705000Y-158690000D03*
X96805000Y-146020000D03*
X103801233Y-158026233D03*
X148865000Y-159460000D03*
X147185000Y-155470000D03*
X133735000Y-155860000D03*
X189755000Y-156270000D03*
X129705000Y-141360000D03*
X106385000Y-140570000D03*
X101015000Y-150110000D03*
X152168767Y-134626233D03*
X138895000Y-150550000D03*
X141795000Y-157495489D03*
X97695000Y-158340000D03*
X143465000Y-156650000D03*
X143135000Y-148040000D03*
X93745000Y-131220000D03*
X98735000Y-133870000D03*
X89675000Y-151020000D03*
X86315000Y-155290000D03*
X129525000Y-136020000D03*
X153125000Y-139570000D03*
X109360500Y-136010000D03*
X149535000Y-139580000D03*
X134565000Y-135840000D03*
D36*
X204149000Y-129102000D02*
X204037000Y-128990000D01*
X157365000Y-133500000D02*
X157365000Y-133735000D01*
X86705000Y-146780000D02*
X86705000Y-146110000D01*
X157385000Y-133220000D02*
X157665000Y-133500000D01*
X108091000Y-152606000D02*
X108091000Y-154095000D01*
X203030000Y-128990000D02*
X204037000Y-128990000D01*
X206115000Y-128980000D02*
X205180000Y-128980000D01*
X81550000Y-148380500D02*
X82363500Y-149194000D01*
X92205000Y-140920000D02*
X89077000Y-140920000D01*
D37*
X134275000Y-132580000D02*
X134285000Y-132570000D01*
D36*
X130195000Y-137820000D02*
X129355000Y-138660000D01*
X86705000Y-146110000D02*
X87585000Y-145230000D01*
D38*
X194115000Y-154918000D02*
X194115000Y-149970000D01*
D36*
X89077000Y-140920000D02*
X88773000Y-141224000D01*
D38*
X194115000Y-149970000D02*
X195615000Y-148470000D01*
X195615000Y-148470000D02*
X195615000Y-147680000D01*
D36*
X205180000Y-128980000D02*
X205058000Y-129102000D01*
D38*
X192815000Y-156218000D02*
X194115000Y-154918000D01*
D37*
X134285000Y-132570000D02*
X134295000Y-132570000D01*
D36*
X81550000Y-146950000D02*
X81550000Y-148380500D01*
D39*
X134295000Y-132570000D02*
X136175000Y-130690000D01*
D36*
X129355000Y-138660000D02*
X129355000Y-140080000D01*
X106985000Y-151500000D02*
X108091000Y-152606000D01*
X87585000Y-145230000D02*
X86600000Y-144245000D01*
X157365000Y-133735000D02*
X159020000Y-135390000D01*
X86600000Y-144245000D02*
X86600000Y-144010000D01*
X188260000Y-131040000D02*
X189872500Y-131040000D01*
X160877000Y-147860000D02*
X159405000Y-147860000D01*
X184672500Y-131840000D02*
X184712500Y-131800000D01*
X127895000Y-156000000D02*
X129045022Y-156000000D01*
X80000000Y-147665000D02*
X79855000Y-147810000D01*
X194755000Y-131840000D02*
X194555000Y-132040000D01*
X112525000Y-129650000D02*
X113255000Y-128920000D01*
X126091000Y-155008000D02*
X126091000Y-154095000D01*
X104995000Y-151510000D02*
X106091000Y-152606000D01*
X130091000Y-154954022D02*
X130091000Y-154095000D01*
X104091000Y-132395000D02*
X104091000Y-130434000D01*
X130091000Y-132395000D02*
X130091000Y-132254000D01*
X161725000Y-135390000D02*
X161765000Y-135350000D01*
X79890000Y-141820000D02*
X79890000Y-140775000D01*
X129045022Y-156000000D02*
X130091000Y-154954022D01*
X79890000Y-140775000D02*
X80275000Y-140390000D01*
X106091000Y-152606000D02*
X106091000Y-154095000D01*
X127083000Y-156000000D02*
X126091000Y-155008000D01*
X195647500Y-131840000D02*
X194755000Y-131840000D01*
X111855000Y-157384031D02*
X112409181Y-157384031D01*
X104091000Y-130434000D02*
X104605000Y-129920000D01*
X79635000Y-143605000D02*
X79940000Y-143910000D01*
X160570000Y-135390000D02*
X161725000Y-135390000D01*
X94025000Y-134740000D02*
X94205000Y-134920000D01*
X184712500Y-131800000D02*
X185615000Y-131800000D01*
X127895000Y-156000000D02*
X127083000Y-156000000D01*
X79635000Y-143000000D02*
X79635000Y-143605000D01*
X168550000Y-133275000D02*
X168955000Y-133680000D01*
X168955000Y-133680000D02*
X169725000Y-133680000D01*
X111885000Y-129650000D02*
X112525000Y-129650000D01*
X189872500Y-131040000D02*
X191485000Y-131040000D01*
X130091000Y-132254000D02*
X131440000Y-130905000D01*
X168550000Y-132910000D02*
X168550000Y-133275000D01*
X112409181Y-157384031D02*
X113165075Y-158139925D01*
X94025000Y-134000000D02*
X94025000Y-134740000D01*
X79890000Y-143860000D02*
X79940000Y-143910000D01*
X80000000Y-146950000D02*
X80000000Y-147665000D01*
X185485000Y-129840000D02*
X186685000Y-131040000D01*
X184497500Y-129840000D02*
X185485000Y-129840000D01*
X194260000Y-129840000D02*
X193060000Y-131040000D01*
X194260000Y-129840000D02*
X195527500Y-129840000D01*
D37*
X92776399Y-153491399D02*
X92205000Y-152920000D01*
X107165000Y-150050000D02*
X120935000Y-150050000D01*
X142740489Y-151354511D02*
X144795000Y-149300000D01*
X182755000Y-140820000D02*
X181615000Y-139680000D01*
X122239511Y-151354511D02*
X142740489Y-151354511D01*
X169055000Y-149300000D02*
X169985000Y-148370000D01*
X144795000Y-149300000D02*
X169055000Y-149300000D01*
X194085000Y-139680000D02*
X180335000Y-139680000D01*
X95183601Y-153491399D02*
X95205000Y-153470000D01*
X198475000Y-143790000D02*
X198195000Y-143790000D01*
X92776399Y-153491399D02*
X95183601Y-153491399D01*
X169985000Y-148370000D02*
X169985000Y-138120000D01*
X171545000Y-139680000D02*
X169985000Y-138120000D01*
X181615000Y-139680000D02*
X180335000Y-139680000D01*
X180335000Y-139680000D02*
X171545000Y-139680000D01*
X120935000Y-150050000D02*
X122239511Y-151354511D01*
X198195000Y-143790000D02*
X194085000Y-139680000D01*
X106125000Y-149010000D02*
X107165000Y-150050000D01*
X97855000Y-135040000D02*
X97855000Y-131050000D01*
X106145000Y-128910000D02*
X106195000Y-128960000D01*
X97855000Y-131050000D02*
X99995000Y-128910000D01*
X100625000Y-128910000D02*
X106145000Y-128910000D01*
X99995000Y-128910000D02*
X100625000Y-128910000D01*
X141602491Y-130254991D02*
X169559991Y-130254991D01*
X172525000Y-133220000D02*
X172525000Y-138120000D01*
X140843000Y-129495500D02*
X141602491Y-130254991D01*
X95975000Y-136920000D02*
X92205000Y-136920000D01*
X101005000Y-155980000D02*
X100625000Y-155980000D01*
X169559991Y-130254991D02*
X172525000Y-133220000D01*
X95975000Y-136920000D02*
X97855000Y-135040000D01*
X100625000Y-155980000D02*
X96445000Y-151800000D01*
D36*
X85275000Y-142580000D02*
X85275000Y-142040000D01*
X86605000Y-140320000D02*
X86605000Y-138760000D01*
X86785000Y-138580000D02*
X86785000Y-140290000D01*
X85275000Y-142040000D02*
X85155000Y-141920000D01*
X83815000Y-143910000D02*
X83855000Y-143950000D01*
X81490000Y-143910000D02*
X83815000Y-143910000D01*
X83855000Y-143950000D02*
X85225000Y-142580000D01*
X85225000Y-142580000D02*
X85275000Y-142580000D01*
X86785000Y-140290000D02*
X85155000Y-141920000D01*
X86605000Y-138760000D02*
X86785000Y-138580000D01*
D37*
X172605000Y-150740000D02*
X185805000Y-150740000D01*
X98195000Y-155470000D02*
X98195000Y-154910000D01*
X100405000Y-157680000D02*
X98195000Y-155470000D01*
X98195000Y-154910000D02*
X94205000Y-150920000D01*
X185805000Y-150740000D02*
X187415000Y-149130000D01*
X187415000Y-149130000D02*
X187415000Y-149110000D01*
X102483767Y-157811233D02*
X102352534Y-157680000D01*
X102352534Y-157680000D02*
X100405000Y-157680000D01*
X169985000Y-153360000D02*
X172605000Y-150740000D01*
D36*
X134815000Y-143190000D02*
X136405000Y-143190000D01*
X155145000Y-145330000D02*
X157445000Y-145330000D01*
X152895000Y-145330000D02*
X152875000Y-145350000D01*
X134335000Y-143670000D02*
X134815000Y-143190000D01*
D37*
X134335000Y-143750000D02*
X134335000Y-143670000D01*
D36*
X155145000Y-145330000D02*
X152895000Y-145330000D01*
D37*
X114515075Y-158139925D02*
X116720075Y-158139925D01*
X116720075Y-158139925D02*
X116880000Y-157980000D01*
X114755000Y-128920000D02*
X116580000Y-128920000D01*
X151265000Y-140640000D02*
X152050000Y-139855000D01*
X147675000Y-133190000D02*
X149365000Y-131500000D01*
X158745000Y-142790000D02*
X155035000Y-142790000D01*
X143485000Y-145340000D02*
X143485000Y-144930000D01*
X150814511Y-138569511D02*
X150814511Y-137643856D01*
X152050000Y-139855000D02*
X152050000Y-139805000D01*
X152050000Y-139805000D02*
X150814511Y-138569511D01*
X168795000Y-144410978D02*
X168795000Y-146460000D01*
X117405000Y-151415500D02*
X116091000Y-152729500D01*
X143485000Y-144930000D02*
X147775000Y-140640000D01*
X176465000Y-154450000D02*
X176825000Y-154810000D01*
X176825000Y-154810000D02*
X176825000Y-155840000D01*
X167174022Y-142790000D02*
X168795000Y-144410978D01*
X147775000Y-140640000D02*
X151265000Y-140640000D01*
X155035000Y-142790000D02*
X152050000Y-139805000D01*
X158745000Y-142790000D02*
X167174022Y-142790000D01*
X116091000Y-152729500D02*
X116091000Y-154095000D01*
X150814511Y-137643856D02*
X147760655Y-134590000D01*
X147675000Y-134590000D02*
X147675000Y-133190000D01*
X81540000Y-141820000D02*
X83555000Y-141820000D01*
X83555000Y-141820000D02*
X83655000Y-141920000D01*
D36*
X136209500Y-146465500D02*
X138925000Y-143750000D01*
X136175000Y-146465500D02*
X136209500Y-146465500D01*
X138925000Y-143750000D02*
X138925000Y-143020000D01*
D37*
X118091000Y-154095000D02*
X118091000Y-157541000D01*
X118091000Y-157541000D02*
X118530000Y-157980000D01*
X118091000Y-129059000D02*
X118091000Y-132395000D01*
X118230000Y-128920000D02*
X118091000Y-129059000D01*
X145681428Y-150340000D02*
X166050655Y-150340000D01*
X106960000Y-156125000D02*
X107070000Y-156125000D01*
X132975000Y-152270000D02*
X143751428Y-152270000D01*
X132945000Y-152240000D02*
X132975000Y-152270000D01*
X169995000Y-155090000D02*
X170795000Y-155090000D01*
X104455000Y-158630000D02*
X106960000Y-156125000D01*
X170795000Y-155090000D02*
X172525000Y-153360000D01*
X168594511Y-152883856D02*
X168594511Y-153689511D01*
X143751428Y-152270000D02*
X145681428Y-150340000D01*
X166050655Y-150340000D02*
X168594511Y-152883856D01*
X95700556Y-157435556D02*
X97880556Y-157435556D01*
X97880556Y-157435556D02*
X99075000Y-158630000D01*
X168594511Y-153689511D02*
X169995000Y-155090000D01*
X99075000Y-158630000D02*
X104455000Y-158630000D01*
D36*
X197177500Y-131720000D02*
X197297500Y-131840000D01*
X192845000Y-137020000D02*
X197345000Y-132520000D01*
X197177500Y-129840000D02*
X197177500Y-131720000D01*
X192845000Y-138120000D02*
X192845000Y-137020000D01*
X197345000Y-131887500D02*
X197297500Y-131840000D01*
X197345000Y-132520000D02*
X197345000Y-131887500D01*
X182847500Y-131840000D02*
X187765000Y-136757500D01*
X182847500Y-129840000D02*
X182825000Y-129862500D01*
X187765000Y-136757500D02*
X187765000Y-138120000D01*
X182825000Y-129862500D02*
X182825000Y-131850000D01*
D37*
X137095000Y-128190000D02*
X176495000Y-128190000D01*
X94205000Y-138920000D02*
X98175000Y-138920000D01*
X185225000Y-136920000D02*
X185225000Y-138120000D01*
X131190489Y-134144511D02*
X137145000Y-128190000D01*
X98175000Y-138920000D02*
X102950489Y-134144511D01*
X102950489Y-134144511D02*
X131190489Y-134144511D01*
X176495000Y-128190000D02*
X185225000Y-136920000D01*
X109598471Y-135435489D02*
X105559511Y-135435489D01*
X133139511Y-135135489D02*
X129277029Y-135135489D01*
X141365000Y-128764500D02*
X139510500Y-128764500D01*
X105559511Y-135435489D02*
X98075000Y-142920000D01*
X139510500Y-128764500D02*
X133139511Y-135135489D01*
X129277029Y-135135489D02*
X128902038Y-135510480D01*
X109673462Y-135510480D02*
X109598471Y-135435489D01*
X128902038Y-135510480D02*
X109673462Y-135510480D01*
X98075000Y-142920000D02*
X94205000Y-142920000D01*
X146625000Y-154740000D02*
X135335000Y-154740000D01*
X146695000Y-154810000D02*
X146625000Y-154740000D01*
X164785978Y-134840000D02*
X164905000Y-134959022D01*
X161385000Y-133220000D02*
X163005000Y-134840000D01*
X164905000Y-134959022D02*
X165085978Y-134959022D01*
X163005000Y-134840000D02*
X164785978Y-134840000D01*
X164905000Y-134959022D02*
X164905000Y-138120000D01*
X165085978Y-134959022D02*
X167010000Y-133035000D01*
X156985000Y-135280000D02*
X159825000Y-138120000D01*
X149617466Y-135280000D02*
X156985000Y-135280000D01*
X148821233Y-134483767D02*
X149617466Y-135280000D01*
X143580489Y-158720000D02*
X119042138Y-158720000D01*
X111365000Y-158970000D02*
X110085000Y-157690000D01*
X144805000Y-157495489D02*
X143580489Y-158720000D01*
X119042138Y-158720000D02*
X118792138Y-158970000D01*
X110085000Y-154101000D02*
X110091000Y-154095000D01*
X118792138Y-158970000D02*
X111365000Y-158970000D01*
X110085000Y-157690000D02*
X110085000Y-154101000D01*
X112091000Y-156544000D02*
X112091000Y-154095000D01*
X157285000Y-137280000D02*
X157285000Y-138120000D01*
X150855000Y-135950000D02*
X155955000Y-135950000D01*
X155955000Y-135950000D02*
X157285000Y-137280000D01*
X150775000Y-135870000D02*
X150855000Y-135950000D01*
X149575000Y-129130000D02*
X149673000Y-129032000D01*
X175507000Y-129032000D02*
X180145000Y-133670000D01*
X149673000Y-129032000D02*
X175507000Y-129032000D01*
X180145000Y-133670000D02*
X180145000Y-138120000D01*
X157285000Y-157110000D02*
X157285000Y-153360000D01*
X96805000Y-146020000D02*
X95905000Y-146920000D01*
X88495000Y-146920000D02*
X88355000Y-146780000D01*
X103801233Y-158026233D02*
X103801233Y-157676233D01*
X95905000Y-146920000D02*
X94205000Y-146920000D01*
X94205000Y-146920000D02*
X88495000Y-146920000D01*
X98905000Y-152780000D02*
X98905000Y-152560000D01*
X155705000Y-158690000D02*
X157285000Y-157110000D01*
X103801233Y-157676233D02*
X98905000Y-152780000D01*
X148865000Y-159460000D02*
X152205000Y-156120000D01*
X152205000Y-156120000D02*
X152205000Y-153360000D01*
X130750511Y-151920000D02*
X120082982Y-151920000D01*
X147185000Y-155470000D02*
X147165000Y-155490000D01*
X134320511Y-155490000D02*
X130750511Y-151920000D01*
X97700011Y-150840989D02*
X95779022Y-148920000D01*
X120082982Y-151920000D02*
X119003971Y-150840989D01*
X119003971Y-150840989D02*
X97700011Y-150840989D01*
X95779022Y-148920000D02*
X92205000Y-148920000D01*
X147165000Y-155490000D02*
X134320511Y-155490000D01*
X141555480Y-155989520D02*
X144134520Y-155989520D01*
X141275000Y-156270000D02*
X141555480Y-155989520D01*
X134125000Y-156250000D02*
X141265000Y-156250000D01*
X133735000Y-155860000D02*
X134125000Y-156250000D01*
X151995000Y-151830000D02*
X160305000Y-151830000D01*
X160305000Y-151830000D02*
X161085000Y-152610000D01*
X150965000Y-152860000D02*
X151995000Y-151830000D01*
X144395000Y-156250000D02*
X148400655Y-156250000D01*
X161085000Y-153860000D02*
X163425000Y-156200000D01*
X144134520Y-155989520D02*
X144395000Y-156250000D01*
X150965000Y-153685655D02*
X150965000Y-152860000D01*
X161085000Y-152610000D02*
X161085000Y-153860000D01*
X163425000Y-156200000D02*
X172225000Y-156200000D01*
X172225000Y-156200000D02*
X175065000Y-153360000D01*
X148400655Y-156250000D02*
X150965000Y-153685655D01*
X190305000Y-155720000D02*
X190305000Y-153360000D01*
X189755000Y-156270000D02*
X190305000Y-155720000D01*
X124605000Y-137510000D02*
X109455000Y-137510000D01*
X128455000Y-141360000D02*
X124605000Y-137510000D01*
X129705000Y-141360000D02*
X128455000Y-141360000D01*
X109455000Y-137510000D02*
X106395000Y-140570000D01*
X88250000Y-144010000D02*
X89160000Y-144920000D01*
X101015000Y-150110000D02*
X101015000Y-148410000D01*
X97525000Y-144920000D02*
X95495000Y-144920000D01*
X92205000Y-144920000D02*
X95495000Y-144920000D01*
X89160000Y-144920000D02*
X92205000Y-144920000D01*
X101015000Y-148410000D02*
X97525000Y-144920000D01*
D40*
X152365489Y-133913034D02*
X152365489Y-132500489D01*
X152168767Y-134109756D02*
X152365489Y-133913034D01*
X152168767Y-134626233D02*
X152168767Y-134109756D01*
X152365489Y-132500489D02*
X151365000Y-131500000D01*
D36*
X142725000Y-156650000D02*
X143465000Y-156650000D01*
X143135000Y-147520000D02*
X147175000Y-143480000D01*
X136705000Y-149365000D02*
X137890000Y-150550000D01*
X137890000Y-150550000D02*
X138895000Y-150550000D01*
X143135000Y-148040000D02*
X143135000Y-147520000D01*
X141795000Y-157495489D02*
X141879511Y-157495489D01*
X141879511Y-157495489D02*
X142725000Y-156650000D01*
X136705000Y-148630000D02*
X136705000Y-149365000D01*
X141485000Y-148630000D02*
X141485000Y-143560000D01*
X141485000Y-143560000D02*
X142015000Y-143030000D01*
D37*
X149535000Y-139580000D02*
X149499345Y-139580000D01*
X148405000Y-137102000D02*
X147143000Y-135840000D01*
X153125000Y-139570000D02*
X160915000Y-139570000D01*
X148405000Y-138485655D02*
X148405000Y-137102000D01*
X149499345Y-139580000D02*
X148405000Y-138485655D01*
X129525000Y-136020000D02*
X129515000Y-136010000D01*
X160915000Y-139570000D02*
X162365000Y-138120000D01*
X147143000Y-135840000D02*
X134565000Y-135840000D01*
X129515000Y-136010000D02*
X109360500Y-136010000D01*
X200540655Y-157450000D02*
X189315000Y-157450000D01*
X202065000Y-132970000D02*
X202065000Y-133930000D01*
X201300000Y-128900000D02*
X202065000Y-129665000D01*
X204565000Y-136430000D02*
X204565000Y-153425655D01*
X204565000Y-153425655D02*
X200540655Y-157450000D01*
X202065000Y-133930000D02*
X204565000Y-136430000D01*
X189315000Y-157450000D02*
X185225000Y-153360000D01*
X202065000Y-129665000D02*
X202065000Y-132970000D01*
X207855000Y-128920000D02*
X205815000Y-130960000D01*
X205815000Y-130960000D02*
X205815000Y-132970000D01*
X205815000Y-132970000D02*
X205815000Y-154030000D01*
X205815000Y-154030000D02*
X201335000Y-158510000D01*
X201335000Y-158510000D02*
X187835000Y-158510000D01*
X187835000Y-158510000D02*
X182685000Y-153360000D01*
M02*
