G04 #@! TF.GenerationSoftware,KiCad,Pcbnew,6.0.1*
G04 #@! TF.CreationDate,2022-03-01T21:25:21+01:00*
G04 #@! TF.ProjectId,PCB_v1,5043425f-7631-42e6-9b69-6361645f7063,rev?*
G04 #@! TF.SameCoordinates,Original*
G04 #@! TF.FileFunction,Paste,Top*
G04 #@! TF.FilePolarity,Positive*
%FSLAX46Y46*%
G04 Gerber Fmt 4.6, Leading zero omitted, Abs format (unit mm)*
G04 Created by KiCad (PCBNEW 6.0.1) date 2022-03-01 21:25:21*
%MOMM*%
%LPD*%
G01*
G04 APERTURE LIST*
G04 Aperture macros list*
%AMRoundRect*
0 Rectangle with rounded corners*
0 $1 Rounding radius*
0 $2 $3 $4 $5 $6 $7 $8 $9 X,Y pos of 4 corners*
0 Add a 4 corners polygon primitive as box body*
4,1,4,$2,$3,$4,$5,$6,$7,$8,$9,$2,$3,0*
0 Add four circle primitives for the rounded corners*
1,1,$1+$1,$2,$3*
1,1,$1+$1,$4,$5*
1,1,$1+$1,$6,$7*
1,1,$1+$1,$8,$9*
0 Add four rect primitives between the rounded corners*
20,1,$1+$1,$2,$3,$4,$5,0*
20,1,$1+$1,$4,$5,$6,$7,0*
20,1,$1+$1,$6,$7,$8,$9,0*
20,1,$1+$1,$8,$9,$2,$3,0*%
G04 Aperture macros list end*
%ADD10RoundRect,0.218750X0.218750X0.256250X-0.218750X0.256250X-0.218750X-0.256250X0.218750X-0.256250X0*%
%ADD11RoundRect,0.225000X-0.225000X-0.250000X0.225000X-0.250000X0.225000X0.250000X-0.225000X0.250000X0*%
%ADD12RoundRect,0.200000X0.200000X0.275000X-0.200000X0.275000X-0.200000X-0.275000X0.200000X-0.275000X0*%
%ADD13R,1.520000X2.800000*%
%ADD14R,2.800000X1.520000*%
%ADD15R,2.790000X2.790000*%
%ADD16RoundRect,0.200000X-0.200000X-0.275000X0.200000X-0.275000X0.200000X0.275000X-0.200000X0.275000X0*%
%ADD17R,0.950000X0.950000*%
%ADD18RoundRect,0.225000X0.225000X0.250000X-0.225000X0.250000X-0.225000X-0.250000X0.225000X-0.250000X0*%
%ADD19R,3.100000X2.200000*%
%ADD20R,1.500000X1.520000*%
%ADD21R,5.000000X0.750000*%
%ADD22R,2.960000X1.270000*%
%ADD23R,1.680000X3.150000*%
%ADD24RoundRect,0.218750X-0.218750X-0.256250X0.218750X-0.256250X0.218750X0.256250X-0.218750X0.256250X0*%
G04 APERTURE END LIST*
D10*
X188260000Y-131040000D03*
X186685000Y-131040000D03*
D11*
X159020000Y-135390000D03*
X160570000Y-135390000D03*
D12*
X184497500Y-129840000D03*
X182847500Y-129840000D03*
D13*
X106091000Y-154095000D03*
X108091000Y-154095000D03*
X110091000Y-154095000D03*
X112091000Y-154095000D03*
X114091000Y-154095000D03*
X116091000Y-154095000D03*
X118091000Y-154095000D03*
X120091000Y-154095000D03*
X122091000Y-154095000D03*
X124091000Y-154095000D03*
X126091000Y-154095000D03*
X128091000Y-154095000D03*
X130091000Y-154095000D03*
D14*
X132071000Y-150245000D03*
X132071000Y-148245000D03*
X132071000Y-146245000D03*
X132071000Y-144245000D03*
X132071000Y-142245000D03*
X132071000Y-140245000D03*
X132189000Y-138245000D03*
X132189000Y-136245000D03*
D13*
X130091000Y-132395000D03*
X128091000Y-132395000D03*
X126091000Y-132395000D03*
X124091000Y-132395000D03*
X122091000Y-132395000D03*
X120091000Y-132395000D03*
X118091000Y-132395000D03*
X116091000Y-132395000D03*
X114091000Y-132395000D03*
X112091000Y-132395000D03*
X110091000Y-132395000D03*
X108091000Y-132395000D03*
X106091000Y-132395000D03*
X104091000Y-132395000D03*
X102091000Y-132395000D03*
X100091000Y-132395000D03*
D15*
X109085000Y-148100000D03*
D12*
X168550000Y-132910000D03*
X166900000Y-132910000D03*
D16*
X195647500Y-131840000D03*
X197297500Y-131840000D03*
D17*
X83655000Y-141920000D03*
X85155000Y-141920000D03*
D12*
X118530000Y-157980000D03*
X116880000Y-157980000D03*
D16*
X116580000Y-128920000D03*
X118230000Y-128920000D03*
D12*
X81540000Y-141820000D03*
X79890000Y-141820000D03*
D16*
X86705000Y-146780000D03*
X88355000Y-146780000D03*
D18*
X81550000Y-146950000D03*
X80000000Y-146950000D03*
D19*
X138795000Y-143030000D03*
D20*
X142015000Y-143030000D03*
D17*
X113015075Y-158139925D03*
X114515075Y-158139925D03*
D16*
X182847500Y-131840000D03*
X184497500Y-131840000D03*
D12*
X207855000Y-128920000D03*
X206205000Y-128920000D03*
D21*
X92205000Y-152920000D03*
X94205000Y-150920000D03*
X92205000Y-148920000D03*
X94205000Y-146920000D03*
X92205000Y-144920000D03*
X94205000Y-142920000D03*
X92205000Y-140920000D03*
X94205000Y-138920000D03*
X92205000Y-136920000D03*
X94205000Y-134920000D03*
D22*
X158745000Y-142790000D03*
X155145000Y-145330000D03*
X158745000Y-147870000D03*
D23*
X136705000Y-148630000D03*
X141485000Y-148630000D03*
D24*
X191485000Y-131040000D03*
X193060000Y-131040000D03*
D16*
X201300000Y-128900000D03*
X202950000Y-128900000D03*
D12*
X197177500Y-129840000D03*
X195527500Y-129840000D03*
D18*
X81490000Y-143910000D03*
X79940000Y-143910000D03*
D16*
X86600000Y-144010000D03*
X88250000Y-144010000D03*
D17*
X113255000Y-128920000D03*
X114755000Y-128920000D03*
M02*
