G04 #@! TF.GenerationSoftware,KiCad,Pcbnew,6.0.1*
G04 #@! TF.CreationDate,2022-03-01T21:25:21+01:00*
G04 #@! TF.ProjectId,PCB_v1,5043425f-7631-42e6-9b69-6361645f7063,rev?*
G04 #@! TF.SameCoordinates,Original*
G04 #@! TF.FileFunction,Legend,Top*
G04 #@! TF.FilePolarity,Positive*
%FSLAX46Y46*%
G04 Gerber Fmt 4.6, Leading zero omitted, Abs format (unit mm)*
G04 Created by KiCad (PCBNEW 6.0.1) date 2022-03-01 21:25:21*
%MOMM*%
%LPD*%
G01*
G04 APERTURE LIST*
%ADD10C,0.200000*%
%ADD11C,0.150000*%
%ADD12C,0.254000*%
%ADD13C,0.120000*%
%ADD14C,0.100000*%
G04 APERTURE END LIST*
D10*
X143409816Y-136908051D02*
X143409816Y-154688051D01*
X143409816Y-154688051D02*
X204369816Y-154688051D01*
X204369816Y-154688051D02*
X204369816Y-136908051D01*
X204369816Y-136908051D02*
X143409816Y-136908051D01*
X112200916Y-132749051D02*
X112203195Y-132801547D01*
X112203195Y-132801547D02*
X112239104Y-132900208D01*
X112239104Y-132900208D02*
X112306592Y-132980637D01*
X112306592Y-132980637D02*
X112397519Y-133033133D01*
X112397519Y-133033133D02*
X112500916Y-133051365D01*
X112500916Y-133051365D02*
X112604313Y-133033133D01*
X112604313Y-133033133D02*
X112695240Y-132980637D01*
X112695240Y-132980637D02*
X112762728Y-132900208D01*
X112762728Y-132900208D02*
X112798637Y-132801547D01*
X112798637Y-132801547D02*
X112800916Y-132749051D01*
X112800916Y-132749051D02*
X114207516Y-132749051D01*
X114207516Y-132749051D02*
X114209795Y-132801547D01*
X114209795Y-132801547D02*
X114245704Y-132900208D01*
X114245704Y-132900208D02*
X114313192Y-132980637D01*
X114313192Y-132980637D02*
X114404119Y-133033133D01*
X114404119Y-133033133D02*
X114507516Y-133051365D01*
X114507516Y-133051365D02*
X114610913Y-133033133D01*
X114610913Y-133033133D02*
X114701840Y-132980637D01*
X114701840Y-132980637D02*
X114769328Y-132900208D01*
X114769328Y-132900208D02*
X114805237Y-132801547D01*
X114805237Y-132801547D02*
X114807516Y-132749051D01*
X114807516Y-132749051D02*
X116214116Y-132749051D01*
X116214116Y-132749051D02*
X116216395Y-132801547D01*
X116216395Y-132801547D02*
X116252304Y-132900208D01*
X116252304Y-132900208D02*
X116319792Y-132980637D01*
X116319792Y-132980637D02*
X116410719Y-133033133D01*
X116410719Y-133033133D02*
X116514116Y-133051365D01*
X116514116Y-133051365D02*
X116617513Y-133033133D01*
X116617513Y-133033133D02*
X116708440Y-132980637D01*
X116708440Y-132980637D02*
X116775928Y-132900208D01*
X116775928Y-132900208D02*
X116811837Y-132801547D01*
X116811837Y-132801547D02*
X116814116Y-132749051D01*
X116814116Y-132749051D02*
X118220716Y-132749051D01*
X118220716Y-132749051D02*
X118222995Y-132801547D01*
X118222995Y-132801547D02*
X118258904Y-132900208D01*
X118258904Y-132900208D02*
X118326392Y-132980637D01*
X118326392Y-132980637D02*
X118417319Y-133033133D01*
X118417319Y-133033133D02*
X118520716Y-133051365D01*
X118520716Y-133051365D02*
X118624113Y-133033133D01*
X118624113Y-133033133D02*
X118715040Y-132980637D01*
X118715040Y-132980637D02*
X118782528Y-132900208D01*
X118782528Y-132900208D02*
X118818437Y-132801547D01*
X118818437Y-132801547D02*
X118820716Y-132749051D01*
X118820716Y-132749051D02*
X120227316Y-132749051D01*
X120227316Y-132749051D02*
X120229595Y-132801547D01*
X120229595Y-132801547D02*
X120265504Y-132900208D01*
X120265504Y-132900208D02*
X120332992Y-132980637D01*
X120332992Y-132980637D02*
X120423919Y-133033133D01*
X120423919Y-133033133D02*
X120527316Y-133051365D01*
X120527316Y-133051365D02*
X120630713Y-133033133D01*
X120630713Y-133033133D02*
X120721640Y-132980637D01*
X120721640Y-132980637D02*
X120789128Y-132900208D01*
X120789128Y-132900208D02*
X120825037Y-132801547D01*
X120825037Y-132801547D02*
X120827316Y-132749051D01*
X120827316Y-132749051D02*
X122233916Y-132749051D01*
X122233916Y-132749051D02*
X122236195Y-132801547D01*
X122236195Y-132801547D02*
X122272104Y-132900208D01*
X122272104Y-132900208D02*
X122339592Y-132980637D01*
X122339592Y-132980637D02*
X122430519Y-133033133D01*
X122430519Y-133033133D02*
X122533916Y-133051365D01*
X122533916Y-133051365D02*
X122637313Y-133033133D01*
X122637313Y-133033133D02*
X122728240Y-132980637D01*
X122728240Y-132980637D02*
X122795728Y-132900208D01*
X122795728Y-132900208D02*
X122831637Y-132801547D01*
X122831637Y-132801547D02*
X122833916Y-132749051D01*
X122833916Y-132749051D02*
X124240516Y-132749051D01*
X124240516Y-132749051D02*
X124242795Y-132801547D01*
X124242795Y-132801547D02*
X124278704Y-132900208D01*
X124278704Y-132900208D02*
X124346192Y-132980637D01*
X124346192Y-132980637D02*
X124437119Y-133033133D01*
X124437119Y-133033133D02*
X124540516Y-133051365D01*
X124540516Y-133051365D02*
X124643913Y-133033133D01*
X124643913Y-133033133D02*
X124734840Y-132980637D01*
X124734840Y-132980637D02*
X124802328Y-132900208D01*
X124802328Y-132900208D02*
X124838237Y-132801547D01*
X124838237Y-132801547D02*
X124840516Y-132749051D01*
X124840516Y-132749051D02*
X126247116Y-132749051D01*
X126247116Y-132749051D02*
X126249395Y-132801547D01*
X126249395Y-132801547D02*
X126285304Y-132900208D01*
X126285304Y-132900208D02*
X126352792Y-132980637D01*
X126352792Y-132980637D02*
X126443719Y-133033133D01*
X126443719Y-133033133D02*
X126547116Y-133051365D01*
X126547116Y-133051365D02*
X126650513Y-133033133D01*
X126650513Y-133033133D02*
X126741440Y-132980637D01*
X126741440Y-132980637D02*
X126808928Y-132900208D01*
X126808928Y-132900208D02*
X126844837Y-132801547D01*
X126844837Y-132801547D02*
X126847116Y-132749051D01*
X126847116Y-132749051D02*
X128253716Y-132749051D01*
X128253716Y-132749051D02*
X128255995Y-132801547D01*
X128255995Y-132801547D02*
X128291904Y-132900208D01*
X128291904Y-132900208D02*
X128359392Y-132980637D01*
X128359392Y-132980637D02*
X128450319Y-133033133D01*
X128450319Y-133033133D02*
X128553716Y-133051365D01*
X128553716Y-133051365D02*
X128657113Y-133033133D01*
X128657113Y-133033133D02*
X128748040Y-132980637D01*
X128748040Y-132980637D02*
X128815528Y-132900208D01*
X128815528Y-132900208D02*
X128851437Y-132801547D01*
X128851437Y-132801547D02*
X128853716Y-132749051D01*
X128853716Y-132749051D02*
X130260316Y-132749051D01*
X130260316Y-132749051D02*
X130262595Y-132801547D01*
X130262595Y-132801547D02*
X130298504Y-132900208D01*
X130298504Y-132900208D02*
X130365992Y-132980637D01*
X130365992Y-132980637D02*
X130456919Y-133033133D01*
X130456919Y-133033133D02*
X130560316Y-133051365D01*
X130560316Y-133051365D02*
X130663713Y-133033133D01*
X130663713Y-133033133D02*
X130754640Y-132980637D01*
X130754640Y-132980637D02*
X130822128Y-132900208D01*
X130822128Y-132900208D02*
X130858037Y-132801547D01*
X130858037Y-132801547D02*
X130860316Y-132749051D01*
X130860316Y-132749051D02*
X132401816Y-132749051D01*
X132401816Y-132749051D02*
X132401816Y-136474951D01*
X132401816Y-136474951D02*
X132349320Y-136477230D01*
X132349320Y-136477230D02*
X132250659Y-136513139D01*
X132250659Y-136513139D02*
X132170230Y-136580627D01*
X132170230Y-136580627D02*
X132117734Y-136671554D01*
X132117734Y-136671554D02*
X132099502Y-136774951D01*
X132099502Y-136774951D02*
X132117734Y-136878348D01*
X132117734Y-136878348D02*
X132170230Y-136969275D01*
X132170230Y-136969275D02*
X132250659Y-137036763D01*
X132250659Y-137036763D02*
X132349320Y-137072672D01*
X132349320Y-137072672D02*
X132401816Y-137074951D01*
X132401816Y-137074951D02*
X132401816Y-138481551D01*
X132401816Y-138481551D02*
X132349320Y-138483830D01*
X132349320Y-138483830D02*
X132250659Y-138519739D01*
X132250659Y-138519739D02*
X132170230Y-138587227D01*
X132170230Y-138587227D02*
X132117734Y-138678154D01*
X132117734Y-138678154D02*
X132099502Y-138781551D01*
X132099502Y-138781551D02*
X132117734Y-138884948D01*
X132117734Y-138884948D02*
X132170230Y-138975875D01*
X132170230Y-138975875D02*
X132250659Y-139043363D01*
X132250659Y-139043363D02*
X132349320Y-139079272D01*
X132349320Y-139079272D02*
X132401816Y-139081551D01*
X132401816Y-139081551D02*
X132401816Y-140488151D01*
X132401816Y-140488151D02*
X132349320Y-140490430D01*
X132349320Y-140490430D02*
X132250659Y-140526339D01*
X132250659Y-140526339D02*
X132170230Y-140593827D01*
X132170230Y-140593827D02*
X132117734Y-140684754D01*
X132117734Y-140684754D02*
X132099502Y-140788151D01*
X132099502Y-140788151D02*
X132117734Y-140891548D01*
X132117734Y-140891548D02*
X132170230Y-140982475D01*
X132170230Y-140982475D02*
X132250659Y-141049963D01*
X132250659Y-141049963D02*
X132349320Y-141085872D01*
X132349320Y-141085872D02*
X132401816Y-141088151D01*
X132401816Y-141088151D02*
X132401816Y-142494751D01*
X132401816Y-142494751D02*
X132349320Y-142497030D01*
X132349320Y-142497030D02*
X132250659Y-142532939D01*
X132250659Y-142532939D02*
X132170230Y-142600427D01*
X132170230Y-142600427D02*
X132117734Y-142691354D01*
X132117734Y-142691354D02*
X132099502Y-142794751D01*
X132099502Y-142794751D02*
X132117734Y-142898148D01*
X132117734Y-142898148D02*
X132170230Y-142989075D01*
X132170230Y-142989075D02*
X132250659Y-143056563D01*
X132250659Y-143056563D02*
X132349320Y-143092472D01*
X132349320Y-143092472D02*
X132401816Y-143094751D01*
X132401816Y-143094751D02*
X132401816Y-144501351D01*
X132401816Y-144501351D02*
X132349320Y-144503630D01*
X132349320Y-144503630D02*
X132250659Y-144539539D01*
X132250659Y-144539539D02*
X132170230Y-144607027D01*
X132170230Y-144607027D02*
X132117734Y-144697954D01*
X132117734Y-144697954D02*
X132099502Y-144801351D01*
X132099502Y-144801351D02*
X132117734Y-144904748D01*
X132117734Y-144904748D02*
X132170230Y-144995675D01*
X132170230Y-144995675D02*
X132250659Y-145063163D01*
X132250659Y-145063163D02*
X132349320Y-145099072D01*
X132349320Y-145099072D02*
X132401816Y-145101351D01*
X132401816Y-145101351D02*
X132401816Y-146507951D01*
X132401816Y-146507951D02*
X132349320Y-146510230D01*
X132349320Y-146510230D02*
X132250659Y-146546139D01*
X132250659Y-146546139D02*
X132170230Y-146613627D01*
X132170230Y-146613627D02*
X132117734Y-146704554D01*
X132117734Y-146704554D02*
X132099502Y-146807951D01*
X132099502Y-146807951D02*
X132117734Y-146911348D01*
X132117734Y-146911348D02*
X132170230Y-147002275D01*
X132170230Y-147002275D02*
X132250659Y-147069763D01*
X132250659Y-147069763D02*
X132349320Y-147105672D01*
X132349320Y-147105672D02*
X132401816Y-147107951D01*
X132401816Y-147107951D02*
X132401816Y-148514551D01*
X132401816Y-148514551D02*
X132349320Y-148516830D01*
X132349320Y-148516830D02*
X132250659Y-148552739D01*
X132250659Y-148552739D02*
X132170230Y-148620227D01*
X132170230Y-148620227D02*
X132117734Y-148711154D01*
X132117734Y-148711154D02*
X132099502Y-148814551D01*
X132099502Y-148814551D02*
X132117734Y-148917948D01*
X132117734Y-148917948D02*
X132170230Y-149008875D01*
X132170230Y-149008875D02*
X132250659Y-149076363D01*
X132250659Y-149076363D02*
X132349320Y-149112272D01*
X132349320Y-149112272D02*
X132401816Y-149114551D01*
X132401816Y-149114551D02*
X132401816Y-150521151D01*
X132401816Y-150521151D02*
X132349320Y-150523430D01*
X132349320Y-150523430D02*
X132250659Y-150559339D01*
X132250659Y-150559339D02*
X132170230Y-150626827D01*
X132170230Y-150626827D02*
X132117734Y-150717754D01*
X132117734Y-150717754D02*
X132099502Y-150821151D01*
X132099502Y-150821151D02*
X132117734Y-150924548D01*
X132117734Y-150924548D02*
X132170230Y-151015475D01*
X132170230Y-151015475D02*
X132250659Y-151082963D01*
X132250659Y-151082963D02*
X132349320Y-151118872D01*
X132349320Y-151118872D02*
X132401816Y-151121151D01*
X132401816Y-151121151D02*
X132401816Y-154847051D01*
X132401816Y-154847051D02*
X130860316Y-154847051D01*
X130860316Y-154847051D02*
X130858037Y-154794555D01*
X130858037Y-154794555D02*
X130822128Y-154695894D01*
X130822128Y-154695894D02*
X130754640Y-154615465D01*
X130754640Y-154615465D02*
X130663713Y-154562969D01*
X130663713Y-154562969D02*
X130560316Y-154544737D01*
X130560316Y-154544737D02*
X130456919Y-154562969D01*
X130456919Y-154562969D02*
X130365992Y-154615465D01*
X130365992Y-154615465D02*
X130298504Y-154695894D01*
X130298504Y-154695894D02*
X130262595Y-154794555D01*
X130262595Y-154794555D02*
X130260316Y-154847051D01*
X130260316Y-154847051D02*
X128853716Y-154847051D01*
X128853716Y-154847051D02*
X128851437Y-154794555D01*
X128851437Y-154794555D02*
X128815528Y-154695894D01*
X128815528Y-154695894D02*
X128748040Y-154615465D01*
X128748040Y-154615465D02*
X128657113Y-154562969D01*
X128657113Y-154562969D02*
X128553716Y-154544737D01*
X128553716Y-154544737D02*
X128450319Y-154562969D01*
X128450319Y-154562969D02*
X128359392Y-154615465D01*
X128359392Y-154615465D02*
X128291904Y-154695894D01*
X128291904Y-154695894D02*
X128255995Y-154794555D01*
X128255995Y-154794555D02*
X128253716Y-154847051D01*
X128253716Y-154847051D02*
X126847116Y-154847051D01*
X126847116Y-154847051D02*
X126844837Y-154794555D01*
X126844837Y-154794555D02*
X126808928Y-154695894D01*
X126808928Y-154695894D02*
X126741440Y-154615465D01*
X126741440Y-154615465D02*
X126650513Y-154562969D01*
X126650513Y-154562969D02*
X126547116Y-154544737D01*
X126547116Y-154544737D02*
X126443719Y-154562969D01*
X126443719Y-154562969D02*
X126352792Y-154615465D01*
X126352792Y-154615465D02*
X126285304Y-154695894D01*
X126285304Y-154695894D02*
X126249395Y-154794555D01*
X126249395Y-154794555D02*
X126247116Y-154847051D01*
X126247116Y-154847051D02*
X124840516Y-154847051D01*
X124840516Y-154847051D02*
X124838237Y-154794555D01*
X124838237Y-154794555D02*
X124802328Y-154695894D01*
X124802328Y-154695894D02*
X124734840Y-154615465D01*
X124734840Y-154615465D02*
X124643913Y-154562969D01*
X124643913Y-154562969D02*
X124540516Y-154544737D01*
X124540516Y-154544737D02*
X124437119Y-154562969D01*
X124437119Y-154562969D02*
X124346192Y-154615465D01*
X124346192Y-154615465D02*
X124278704Y-154695894D01*
X124278704Y-154695894D02*
X124242795Y-154794555D01*
X124242795Y-154794555D02*
X124240516Y-154847051D01*
X124240516Y-154847051D02*
X122833916Y-154847051D01*
X122833916Y-154847051D02*
X122831637Y-154794555D01*
X122831637Y-154794555D02*
X122795728Y-154695894D01*
X122795728Y-154695894D02*
X122728240Y-154615465D01*
X122728240Y-154615465D02*
X122637313Y-154562969D01*
X122637313Y-154562969D02*
X122533916Y-154544737D01*
X122533916Y-154544737D02*
X122430519Y-154562969D01*
X122430519Y-154562969D02*
X122339592Y-154615465D01*
X122339592Y-154615465D02*
X122272104Y-154695894D01*
X122272104Y-154695894D02*
X122236195Y-154794555D01*
X122236195Y-154794555D02*
X122233916Y-154847051D01*
X122233916Y-154847051D02*
X120827316Y-154847051D01*
X120827316Y-154847051D02*
X120825037Y-154794555D01*
X120825037Y-154794555D02*
X120789128Y-154695894D01*
X120789128Y-154695894D02*
X120721640Y-154615465D01*
X120721640Y-154615465D02*
X120630713Y-154562969D01*
X120630713Y-154562969D02*
X120527316Y-154544737D01*
X120527316Y-154544737D02*
X120423919Y-154562969D01*
X120423919Y-154562969D02*
X120332992Y-154615465D01*
X120332992Y-154615465D02*
X120265504Y-154695894D01*
X120265504Y-154695894D02*
X120229595Y-154794555D01*
X120229595Y-154794555D02*
X120227316Y-154847051D01*
X120227316Y-154847051D02*
X118820716Y-154847051D01*
X118820716Y-154847051D02*
X118818437Y-154794555D01*
X118818437Y-154794555D02*
X118782528Y-154695894D01*
X118782528Y-154695894D02*
X118715040Y-154615465D01*
X118715040Y-154615465D02*
X118624113Y-154562969D01*
X118624113Y-154562969D02*
X118520716Y-154544737D01*
X118520716Y-154544737D02*
X118417319Y-154562969D01*
X118417319Y-154562969D02*
X118326392Y-154615465D01*
X118326392Y-154615465D02*
X118258904Y-154695894D01*
X118258904Y-154695894D02*
X118222995Y-154794555D01*
X118222995Y-154794555D02*
X118220716Y-154847051D01*
X118220716Y-154847051D02*
X116814116Y-154847051D01*
X116814116Y-154847051D02*
X116811837Y-154794555D01*
X116811837Y-154794555D02*
X116775928Y-154695894D01*
X116775928Y-154695894D02*
X116708440Y-154615465D01*
X116708440Y-154615465D02*
X116617513Y-154562969D01*
X116617513Y-154562969D02*
X116514116Y-154544737D01*
X116514116Y-154544737D02*
X116410719Y-154562969D01*
X116410719Y-154562969D02*
X116319792Y-154615465D01*
X116319792Y-154615465D02*
X116252304Y-154695894D01*
X116252304Y-154695894D02*
X116216395Y-154794555D01*
X116216395Y-154794555D02*
X116214116Y-154847051D01*
X116214116Y-154847051D02*
X114807516Y-154847051D01*
X114807516Y-154847051D02*
X114805237Y-154794555D01*
X114805237Y-154794555D02*
X114769328Y-154695894D01*
X114769328Y-154695894D02*
X114701840Y-154615465D01*
X114701840Y-154615465D02*
X114610913Y-154562969D01*
X114610913Y-154562969D02*
X114507516Y-154544737D01*
X114507516Y-154544737D02*
X114404119Y-154562969D01*
X114404119Y-154562969D02*
X114313192Y-154615465D01*
X114313192Y-154615465D02*
X114245704Y-154695894D01*
X114245704Y-154695894D02*
X114209795Y-154794555D01*
X114209795Y-154794555D02*
X114207516Y-154847051D01*
X114207516Y-154847051D02*
X112800916Y-154847051D01*
X112800916Y-154847051D02*
X112798637Y-154794555D01*
X112798637Y-154794555D02*
X112762728Y-154695894D01*
X112762728Y-154695894D02*
X112695240Y-154615465D01*
X112695240Y-154615465D02*
X112604313Y-154562969D01*
X112604313Y-154562969D02*
X112500916Y-154544737D01*
X112500916Y-154544737D02*
X112397519Y-154562969D01*
X112397519Y-154562969D02*
X112306592Y-154615465D01*
X112306592Y-154615465D02*
X112239104Y-154695894D01*
X112239104Y-154695894D02*
X112203195Y-154794555D01*
X112203195Y-154794555D02*
X112200916Y-154847051D01*
X112200916Y-154847051D02*
X110794316Y-154847051D01*
X110794316Y-154847051D02*
X110792037Y-154794555D01*
X110792037Y-154794555D02*
X110756128Y-154695894D01*
X110756128Y-154695894D02*
X110688640Y-154615465D01*
X110688640Y-154615465D02*
X110597713Y-154562969D01*
X110597713Y-154562969D02*
X110494316Y-154544737D01*
X110494316Y-154544737D02*
X110390919Y-154562969D01*
X110390919Y-154562969D02*
X110299992Y-154615465D01*
X110299992Y-154615465D02*
X110232504Y-154695894D01*
X110232504Y-154695894D02*
X110196595Y-154794555D01*
X110196595Y-154794555D02*
X110194316Y-154847051D01*
X110194316Y-154847051D02*
X108787716Y-154847051D01*
X108787716Y-154847051D02*
X108785437Y-154794555D01*
X108785437Y-154794555D02*
X108749528Y-154695894D01*
X108749528Y-154695894D02*
X108682040Y-154615465D01*
X108682040Y-154615465D02*
X108591113Y-154562969D01*
X108591113Y-154562969D02*
X108487716Y-154544737D01*
X108487716Y-154544737D02*
X108384319Y-154562969D01*
X108384319Y-154562969D02*
X108293392Y-154615465D01*
X108293392Y-154615465D02*
X108225904Y-154695894D01*
X108225904Y-154695894D02*
X108189995Y-154794555D01*
X108189995Y-154794555D02*
X108187716Y-154847051D01*
X108187716Y-154847051D02*
X106781116Y-154847051D01*
X106781116Y-154847051D02*
X106778837Y-154794555D01*
X106778837Y-154794555D02*
X106742928Y-154695894D01*
X106742928Y-154695894D02*
X106675440Y-154615465D01*
X106675440Y-154615465D02*
X106584513Y-154562969D01*
X106584513Y-154562969D02*
X106481116Y-154544737D01*
X106481116Y-154544737D02*
X106377719Y-154562969D01*
X106377719Y-154562969D02*
X106286792Y-154615465D01*
X106286792Y-154615465D02*
X106219304Y-154695894D01*
X106219304Y-154695894D02*
X106183395Y-154794555D01*
X106183395Y-154794555D02*
X106181116Y-154847051D01*
X106181116Y-154847051D02*
X98619816Y-154847051D01*
X98619816Y-154847051D02*
X98619816Y-132749051D01*
X98619816Y-132749051D02*
X100161316Y-132749051D01*
X100161316Y-132749051D02*
X100163595Y-132801547D01*
X100163595Y-132801547D02*
X100199504Y-132900208D01*
X100199504Y-132900208D02*
X100266992Y-132980637D01*
X100266992Y-132980637D02*
X100357919Y-133033133D01*
X100357919Y-133033133D02*
X100461316Y-133051365D01*
X100461316Y-133051365D02*
X100564713Y-133033133D01*
X100564713Y-133033133D02*
X100655640Y-132980637D01*
X100655640Y-132980637D02*
X100723128Y-132900208D01*
X100723128Y-132900208D02*
X100759037Y-132801547D01*
X100759037Y-132801547D02*
X100761316Y-132749051D01*
X100761316Y-132749051D02*
X102167916Y-132749051D01*
X102167916Y-132749051D02*
X102170195Y-132801547D01*
X102170195Y-132801547D02*
X102206104Y-132900208D01*
X102206104Y-132900208D02*
X102273592Y-132980637D01*
X102273592Y-132980637D02*
X102364519Y-133033133D01*
X102364519Y-133033133D02*
X102467916Y-133051365D01*
X102467916Y-133051365D02*
X102571313Y-133033133D01*
X102571313Y-133033133D02*
X102662240Y-132980637D01*
X102662240Y-132980637D02*
X102729728Y-132900208D01*
X102729728Y-132900208D02*
X102765637Y-132801547D01*
X102765637Y-132801547D02*
X102767916Y-132749051D01*
X102767916Y-132749051D02*
X104174516Y-132749051D01*
X104174516Y-132749051D02*
X104176795Y-132801547D01*
X104176795Y-132801547D02*
X104212704Y-132900208D01*
X104212704Y-132900208D02*
X104280192Y-132980637D01*
X104280192Y-132980637D02*
X104371119Y-133033133D01*
X104371119Y-133033133D02*
X104474516Y-133051365D01*
X104474516Y-133051365D02*
X104577913Y-133033133D01*
X104577913Y-133033133D02*
X104668840Y-132980637D01*
X104668840Y-132980637D02*
X104736328Y-132900208D01*
X104736328Y-132900208D02*
X104772237Y-132801547D01*
X104772237Y-132801547D02*
X104774516Y-132749051D01*
X104774516Y-132749051D02*
X106181116Y-132749051D01*
X106181116Y-132749051D02*
X106183395Y-132801547D01*
X106183395Y-132801547D02*
X106219304Y-132900208D01*
X106219304Y-132900208D02*
X106286792Y-132980637D01*
X106286792Y-132980637D02*
X106377719Y-133033133D01*
X106377719Y-133033133D02*
X106481116Y-133051365D01*
X106481116Y-133051365D02*
X106584513Y-133033133D01*
X106584513Y-133033133D02*
X106675440Y-132980637D01*
X106675440Y-132980637D02*
X106742928Y-132900208D01*
X106742928Y-132900208D02*
X106778837Y-132801547D01*
X106778837Y-132801547D02*
X106781116Y-132749051D01*
X106781116Y-132749051D02*
X108187716Y-132749051D01*
X108187716Y-132749051D02*
X108189995Y-132801547D01*
X108189995Y-132801547D02*
X108225904Y-132900208D01*
X108225904Y-132900208D02*
X108293392Y-132980637D01*
X108293392Y-132980637D02*
X108384319Y-133033133D01*
X108384319Y-133033133D02*
X108487716Y-133051365D01*
X108487716Y-133051365D02*
X108591113Y-133033133D01*
X108591113Y-133033133D02*
X108682040Y-132980637D01*
X108682040Y-132980637D02*
X108749528Y-132900208D01*
X108749528Y-132900208D02*
X108785437Y-132801547D01*
X108785437Y-132801547D02*
X108787716Y-132749051D01*
X108787716Y-132749051D02*
X110194316Y-132749051D01*
X110194316Y-132749051D02*
X110196595Y-132801547D01*
X110196595Y-132801547D02*
X110232504Y-132900208D01*
X110232504Y-132900208D02*
X110299992Y-132980637D01*
X110299992Y-132980637D02*
X110390919Y-133033133D01*
X110390919Y-133033133D02*
X110494316Y-133051365D01*
X110494316Y-133051365D02*
X110597713Y-133033133D01*
X110597713Y-133033133D02*
X110688640Y-132980637D01*
X110688640Y-132980637D02*
X110756128Y-132900208D01*
X110756128Y-132900208D02*
X110792037Y-132801547D01*
X110792037Y-132801547D02*
X110794316Y-132749051D01*
X110794316Y-132749051D02*
X112200916Y-132749051D01*
X140619816Y-153958051D02*
X90619816Y-153958051D01*
X90619816Y-153958051D02*
X90619816Y-133638051D01*
X90619816Y-133638051D02*
X140619816Y-133638051D01*
X140619816Y-133638051D02*
X140619816Y-153958051D01*
X109457676Y-127748051D02*
X78619816Y-129555889D01*
X78619816Y-129555889D02*
X78619816Y-158040213D01*
X78619816Y-158040213D02*
X109457676Y-159848051D01*
X109457676Y-159848051D02*
X219369816Y-159848051D01*
X219369816Y-159848051D02*
X219369816Y-127748051D01*
X219369816Y-127748051D02*
X109457676Y-127748051D01*
X205178589Y-142457438D02*
X201168623Y-142440787D01*
X201168623Y-142440787D02*
X201166420Y-142971478D01*
X201166420Y-142971478D02*
X200578925Y-142969038D01*
X200578925Y-142969038D02*
X200577679Y-143269035D01*
X200577679Y-143269035D02*
X201165174Y-143271475D01*
X201165174Y-143271475D02*
X201163513Y-143671472D01*
X201163513Y-143671472D02*
X200413520Y-143668357D01*
X200413520Y-143668357D02*
X200396481Y-147771644D01*
X200396481Y-147771644D02*
X201146475Y-147774758D01*
X201146475Y-147774758D02*
X201144814Y-148174755D01*
X201144814Y-148174755D02*
X200557319Y-148172316D01*
X200557319Y-148172316D02*
X200556073Y-148472313D01*
X200556073Y-148472313D02*
X201143568Y-148474753D01*
X201143568Y-148474753D02*
X201141364Y-149005444D01*
X201141364Y-149005444D02*
X205151330Y-149022095D01*
X205151330Y-149022095D02*
X205178589Y-142457438D01*
D11*
X82193095Y-151922380D02*
X82193095Y-150922380D01*
X82193095Y-151398571D02*
X82764523Y-151398571D01*
X82764523Y-151922380D02*
X82764523Y-150922380D01*
X83669285Y-151255714D02*
X83669285Y-151922380D01*
X83431190Y-150874761D02*
X83193095Y-151589047D01*
X83812142Y-151589047D01*
X186936904Y-129902380D02*
X186936904Y-128902380D01*
X187175000Y-128902380D01*
X187317857Y-128950000D01*
X187413095Y-129045238D01*
X187460714Y-129140476D01*
X187508333Y-129330952D01*
X187508333Y-129473809D01*
X187460714Y-129664285D01*
X187413095Y-129759523D01*
X187317857Y-129854761D01*
X187175000Y-129902380D01*
X186936904Y-129902380D01*
X188460714Y-129902380D02*
X187889285Y-129902380D01*
X188175000Y-129902380D02*
X188175000Y-128902380D01*
X188079761Y-129045238D01*
X187984523Y-129140476D01*
X187889285Y-129188095D01*
X159628333Y-134317142D02*
X159580714Y-134364761D01*
X159437857Y-134412380D01*
X159342619Y-134412380D01*
X159199761Y-134364761D01*
X159104523Y-134269523D01*
X159056904Y-134174285D01*
X159009285Y-133983809D01*
X159009285Y-133840952D01*
X159056904Y-133650476D01*
X159104523Y-133555238D01*
X159199761Y-133460000D01*
X159342619Y-133412380D01*
X159437857Y-133412380D01*
X159580714Y-133460000D01*
X159628333Y-133507619D01*
X160533095Y-133412380D02*
X160056904Y-133412380D01*
X160009285Y-133888571D01*
X160056904Y-133840952D01*
X160152142Y-133793333D01*
X160390238Y-133793333D01*
X160485476Y-133840952D01*
X160533095Y-133888571D01*
X160580714Y-133983809D01*
X160580714Y-134221904D01*
X160533095Y-134317142D01*
X160485476Y-134364761D01*
X160390238Y-134412380D01*
X160152142Y-134412380D01*
X160056904Y-134364761D01*
X160009285Y-134317142D01*
X180518333Y-132352380D02*
X180185000Y-131876190D01*
X179946904Y-132352380D02*
X179946904Y-131352380D01*
X180327857Y-131352380D01*
X180423095Y-131400000D01*
X180470714Y-131447619D01*
X180518333Y-131542857D01*
X180518333Y-131685714D01*
X180470714Y-131780952D01*
X180423095Y-131828571D01*
X180327857Y-131876190D01*
X179946904Y-131876190D01*
X180851666Y-131352380D02*
X181470714Y-131352380D01*
X181137380Y-131733333D01*
X181280238Y-131733333D01*
X181375476Y-131780952D01*
X181423095Y-131828571D01*
X181470714Y-131923809D01*
X181470714Y-132161904D01*
X181423095Y-132257142D01*
X181375476Y-132304761D01*
X181280238Y-132352380D01*
X180994523Y-132352380D01*
X180899285Y-132304761D01*
X180851666Y-132257142D01*
X210643095Y-135932380D02*
X210643095Y-134932380D01*
X210643095Y-135408571D02*
X211214523Y-135408571D01*
X211214523Y-135932380D02*
X211214523Y-134932380D01*
X211595476Y-134932380D02*
X212214523Y-134932380D01*
X211881190Y-135313333D01*
X212024047Y-135313333D01*
X212119285Y-135360952D01*
X212166904Y-135408571D01*
X212214523Y-135503809D01*
X212214523Y-135741904D01*
X212166904Y-135837142D01*
X212119285Y-135884761D01*
X212024047Y-135932380D01*
X211738333Y-135932380D01*
X211643095Y-135884761D01*
X211595476Y-135837142D01*
D12*
X116469523Y-144569761D02*
X115199523Y-144569761D01*
X116348571Y-143239285D02*
X116409047Y-143299761D01*
X116469523Y-143481190D01*
X116469523Y-143602142D01*
X116409047Y-143783571D01*
X116288095Y-143904523D01*
X116167142Y-143965000D01*
X115925238Y-144025476D01*
X115743809Y-144025476D01*
X115501904Y-143965000D01*
X115380952Y-143904523D01*
X115260000Y-143783571D01*
X115199523Y-143602142D01*
X115199523Y-143481190D01*
X115260000Y-143299761D01*
X115320476Y-143239285D01*
X115320476Y-142755476D02*
X115260000Y-142695000D01*
X115199523Y-142574047D01*
X115199523Y-142271666D01*
X115260000Y-142150714D01*
X115320476Y-142090238D01*
X115441428Y-142029761D01*
X115562380Y-142029761D01*
X115743809Y-142090238D01*
X116469523Y-142815952D01*
X116469523Y-142029761D01*
D11*
X167082142Y-134792380D02*
X166748809Y-134316190D01*
X166510714Y-134792380D02*
X166510714Y-133792380D01*
X166891666Y-133792380D01*
X166986904Y-133840000D01*
X167034523Y-133887619D01*
X167082142Y-133982857D01*
X167082142Y-134125714D01*
X167034523Y-134220952D01*
X166986904Y-134268571D01*
X166891666Y-134316190D01*
X166510714Y-134316190D01*
X167463095Y-133887619D02*
X167510714Y-133840000D01*
X167605952Y-133792380D01*
X167844047Y-133792380D01*
X167939285Y-133840000D01*
X167986904Y-133887619D01*
X168034523Y-133982857D01*
X168034523Y-134078095D01*
X167986904Y-134220952D01*
X167415476Y-134792380D01*
X168034523Y-134792380D01*
X168653571Y-133792380D02*
X168748809Y-133792380D01*
X168844047Y-133840000D01*
X168891666Y-133887619D01*
X168939285Y-133982857D01*
X168986904Y-134173333D01*
X168986904Y-134411428D01*
X168939285Y-134601904D01*
X168891666Y-134697142D01*
X168844047Y-134744761D01*
X168748809Y-134792380D01*
X168653571Y-134792380D01*
X168558333Y-134744761D01*
X168510714Y-134697142D01*
X168463095Y-134601904D01*
X168415476Y-134411428D01*
X168415476Y-134173333D01*
X168463095Y-133982857D01*
X168510714Y-133887619D01*
X168558333Y-133840000D01*
X168653571Y-133792380D01*
X83093095Y-136082380D02*
X83093095Y-135082380D01*
X83093095Y-135558571D02*
X83664523Y-135558571D01*
X83664523Y-136082380D02*
X83664523Y-135082380D01*
X84664523Y-136082380D02*
X84093095Y-136082380D01*
X84378809Y-136082380D02*
X84378809Y-135082380D01*
X84283571Y-135225238D01*
X84188333Y-135320476D01*
X84093095Y-135368095D01*
X196048333Y-128992380D02*
X195715000Y-128516190D01*
X195476904Y-128992380D02*
X195476904Y-127992380D01*
X195857857Y-127992380D01*
X195953095Y-128040000D01*
X196000714Y-128087619D01*
X196048333Y-128182857D01*
X196048333Y-128325714D01*
X196000714Y-128420952D01*
X195953095Y-128468571D01*
X195857857Y-128516190D01*
X195476904Y-128516190D01*
X196905476Y-127992380D02*
X196715000Y-127992380D01*
X196619761Y-128040000D01*
X196572142Y-128087619D01*
X196476904Y-128230476D01*
X196429285Y-128420952D01*
X196429285Y-128801904D01*
X196476904Y-128897142D01*
X196524523Y-128944761D01*
X196619761Y-128992380D01*
X196810238Y-128992380D01*
X196905476Y-128944761D01*
X196953095Y-128897142D01*
X197000714Y-128801904D01*
X197000714Y-128563809D01*
X196953095Y-128468571D01*
X196905476Y-128420952D01*
X196810238Y-128373333D01*
X196619761Y-128373333D01*
X196524523Y-128420952D01*
X196476904Y-128468571D01*
X196429285Y-128563809D01*
D12*
X82743809Y-140544523D02*
X82139047Y-140544523D01*
X82139047Y-139274523D01*
X83167142Y-139879285D02*
X83590476Y-139879285D01*
X83771904Y-140544523D02*
X83167142Y-140544523D01*
X83167142Y-139274523D01*
X83771904Y-139274523D01*
X84316190Y-140544523D02*
X84316190Y-139274523D01*
X84618571Y-139274523D01*
X84800000Y-139335000D01*
X84920952Y-139455952D01*
X84981428Y-139576904D01*
X85041904Y-139818809D01*
X85041904Y-140000238D01*
X84981428Y-140242142D01*
X84920952Y-140363095D01*
X84800000Y-140484047D01*
X84618571Y-140544523D01*
X84316190Y-140544523D01*
X85465238Y-139274523D02*
X86251428Y-139274523D01*
X85828095Y-139758333D01*
X86009523Y-139758333D01*
X86130476Y-139818809D01*
X86190952Y-139879285D01*
X86251428Y-140000238D01*
X86251428Y-140302619D01*
X86190952Y-140423571D01*
X86130476Y-140484047D01*
X86009523Y-140544523D01*
X85646666Y-140544523D01*
X85525714Y-140484047D01*
X85465238Y-140423571D01*
D11*
X120162142Y-158402380D02*
X119828809Y-157926190D01*
X119590714Y-158402380D02*
X119590714Y-157402380D01*
X119971666Y-157402380D01*
X120066904Y-157450000D01*
X120114523Y-157497619D01*
X120162142Y-157592857D01*
X120162142Y-157735714D01*
X120114523Y-157830952D01*
X120066904Y-157878571D01*
X119971666Y-157926190D01*
X119590714Y-157926190D01*
X120543095Y-157497619D02*
X120590714Y-157450000D01*
X120685952Y-157402380D01*
X120924047Y-157402380D01*
X121019285Y-157450000D01*
X121066904Y-157497619D01*
X121114523Y-157592857D01*
X121114523Y-157688095D01*
X121066904Y-157830952D01*
X120495476Y-158402380D01*
X121114523Y-158402380D01*
X121971666Y-157735714D02*
X121971666Y-158402380D01*
X121733571Y-157354761D02*
X121495476Y-158069047D01*
X122114523Y-158069047D01*
X119852142Y-129402380D02*
X119518809Y-128926190D01*
X119280714Y-129402380D02*
X119280714Y-128402380D01*
X119661666Y-128402380D01*
X119756904Y-128450000D01*
X119804523Y-128497619D01*
X119852142Y-128592857D01*
X119852142Y-128735714D01*
X119804523Y-128830952D01*
X119756904Y-128878571D01*
X119661666Y-128926190D01*
X119280714Y-128926190D01*
X120233095Y-128497619D02*
X120280714Y-128450000D01*
X120375952Y-128402380D01*
X120614047Y-128402380D01*
X120709285Y-128450000D01*
X120756904Y-128497619D01*
X120804523Y-128592857D01*
X120804523Y-128688095D01*
X120756904Y-128830952D01*
X120185476Y-129402380D01*
X120804523Y-129402380D01*
X121709285Y-128402380D02*
X121233095Y-128402380D01*
X121185476Y-128878571D01*
X121233095Y-128830952D01*
X121328333Y-128783333D01*
X121566428Y-128783333D01*
X121661666Y-128830952D01*
X121709285Y-128878571D01*
X121756904Y-128973809D01*
X121756904Y-129211904D01*
X121709285Y-129307142D01*
X121661666Y-129354761D01*
X121566428Y-129402380D01*
X121328333Y-129402380D01*
X121233095Y-129354761D01*
X121185476Y-129307142D01*
X79652142Y-139932380D02*
X79318809Y-139456190D01*
X79080714Y-139932380D02*
X79080714Y-138932380D01*
X79461666Y-138932380D01*
X79556904Y-138980000D01*
X79604523Y-139027619D01*
X79652142Y-139122857D01*
X79652142Y-139265714D01*
X79604523Y-139360952D01*
X79556904Y-139408571D01*
X79461666Y-139456190D01*
X79080714Y-139456190D01*
X80604523Y-139932380D02*
X80033095Y-139932380D01*
X80318809Y-139932380D02*
X80318809Y-138932380D01*
X80223571Y-139075238D01*
X80128333Y-139170476D01*
X80033095Y-139218095D01*
X81461666Y-139265714D02*
X81461666Y-139932380D01*
X81223571Y-138884761D02*
X80985476Y-139599047D01*
X81604523Y-139599047D01*
X89978333Y-147232380D02*
X89645000Y-146756190D01*
X89406904Y-147232380D02*
X89406904Y-146232380D01*
X89787857Y-146232380D01*
X89883095Y-146280000D01*
X89930714Y-146327619D01*
X89978333Y-146422857D01*
X89978333Y-146565714D01*
X89930714Y-146660952D01*
X89883095Y-146708571D01*
X89787857Y-146756190D01*
X89406904Y-146756190D01*
X90311666Y-146232380D02*
X90978333Y-146232380D01*
X90549761Y-147232380D01*
X83142142Y-147307142D02*
X83094523Y-147354761D01*
X82951666Y-147402380D01*
X82856428Y-147402380D01*
X82713571Y-147354761D01*
X82618333Y-147259523D01*
X82570714Y-147164285D01*
X82523095Y-146973809D01*
X82523095Y-146830952D01*
X82570714Y-146640476D01*
X82618333Y-146545238D01*
X82713571Y-146450000D01*
X82856428Y-146402380D01*
X82951666Y-146402380D01*
X83094523Y-146450000D01*
X83142142Y-146497619D01*
X84094523Y-147402380D02*
X83523095Y-147402380D01*
X83808809Y-147402380D02*
X83808809Y-146402380D01*
X83713571Y-146545238D01*
X83618333Y-146640476D01*
X83523095Y-146688095D01*
X84951666Y-146735714D02*
X84951666Y-147402380D01*
X84713571Y-146354761D02*
X84475476Y-147069047D01*
X85094523Y-147069047D01*
D12*
X138297619Y-143604523D02*
X138297619Y-142334523D01*
X138600000Y-142334523D01*
X138781428Y-142395000D01*
X138902380Y-142515952D01*
X138962857Y-142636904D01*
X139023333Y-142878809D01*
X139023333Y-143060238D01*
X138962857Y-143302142D01*
X138902380Y-143423095D01*
X138781428Y-143544047D01*
X138600000Y-143604523D01*
X138297619Y-143604523D01*
X139446666Y-142334523D02*
X140232857Y-142334523D01*
X139809523Y-142818333D01*
X139990952Y-142818333D01*
X140111904Y-142878809D01*
X140172380Y-142939285D01*
X140232857Y-143060238D01*
X140232857Y-143362619D01*
X140172380Y-143483571D01*
X140111904Y-143544047D01*
X139990952Y-143604523D01*
X139628095Y-143604523D01*
X139507142Y-143544047D01*
X139446666Y-143483571D01*
X107503809Y-158634523D02*
X106899047Y-158634523D01*
X106899047Y-157364523D01*
X107927142Y-157969285D02*
X108350476Y-157969285D01*
X108531904Y-158634523D02*
X107927142Y-158634523D01*
X107927142Y-157364523D01*
X108531904Y-157364523D01*
X109076190Y-158634523D02*
X109076190Y-157364523D01*
X109378571Y-157364523D01*
X109560000Y-157425000D01*
X109680952Y-157545952D01*
X109741428Y-157666904D01*
X109801904Y-157908809D01*
X109801904Y-158090238D01*
X109741428Y-158332142D01*
X109680952Y-158453095D01*
X109560000Y-158574047D01*
X109378571Y-158634523D01*
X109076190Y-158634523D01*
X111011428Y-158634523D02*
X110285714Y-158634523D01*
X110648571Y-158634523D02*
X110648571Y-157364523D01*
X110527619Y-157545952D01*
X110406666Y-157666904D01*
X110285714Y-157727380D01*
D11*
X180608333Y-130342380D02*
X180275000Y-129866190D01*
X180036904Y-130342380D02*
X180036904Y-129342380D01*
X180417857Y-129342380D01*
X180513095Y-129390000D01*
X180560714Y-129437619D01*
X180608333Y-129532857D01*
X180608333Y-129675714D01*
X180560714Y-129770952D01*
X180513095Y-129818571D01*
X180417857Y-129866190D01*
X180036904Y-129866190D01*
X181465476Y-129675714D02*
X181465476Y-130342380D01*
X181227380Y-129294761D02*
X180989285Y-130009047D01*
X181608333Y-130009047D01*
X209432142Y-129372380D02*
X209098809Y-128896190D01*
X208860714Y-129372380D02*
X208860714Y-128372380D01*
X209241666Y-128372380D01*
X209336904Y-128420000D01*
X209384523Y-128467619D01*
X209432142Y-128562857D01*
X209432142Y-128705714D01*
X209384523Y-128800952D01*
X209336904Y-128848571D01*
X209241666Y-128896190D01*
X208860714Y-128896190D01*
X210384523Y-129372380D02*
X209813095Y-129372380D01*
X210098809Y-129372380D02*
X210098809Y-128372380D01*
X210003571Y-128515238D01*
X209908333Y-128610476D01*
X209813095Y-128658095D01*
X211289285Y-128372380D02*
X210813095Y-128372380D01*
X210765476Y-128848571D01*
X210813095Y-128800952D01*
X210908333Y-128753333D01*
X211146428Y-128753333D01*
X211241666Y-128800952D01*
X211289285Y-128848571D01*
X211336904Y-128943809D01*
X211336904Y-129181904D01*
X211289285Y-129277142D01*
X211241666Y-129324761D01*
X211146428Y-129372380D01*
X210908333Y-129372380D01*
X210813095Y-129324761D01*
X210765476Y-129277142D01*
D12*
X197711666Y-134544523D02*
X197711666Y-135451666D01*
X197651190Y-135633095D01*
X197530238Y-135754047D01*
X197348809Y-135814523D01*
X197227857Y-135814523D01*
X198195476Y-134544523D02*
X199042142Y-134544523D01*
X198497857Y-135814523D01*
X89809523Y-139917619D02*
X90837619Y-139917619D01*
X90958571Y-139857142D01*
X91019047Y-139796666D01*
X91079523Y-139675714D01*
X91079523Y-139433809D01*
X91019047Y-139312857D01*
X90958571Y-139252380D01*
X90837619Y-139191904D01*
X89809523Y-139191904D01*
X89809523Y-138708095D02*
X89809523Y-137921904D01*
X90293333Y-138345238D01*
X90293333Y-138163809D01*
X90353809Y-138042857D01*
X90414285Y-137982380D01*
X90535238Y-137921904D01*
X90837619Y-137921904D01*
X90958571Y-137982380D01*
X91019047Y-138042857D01*
X91079523Y-138163809D01*
X91079523Y-138526666D01*
X91019047Y-138647619D01*
X90958571Y-138708095D01*
X156409523Y-145753333D02*
X157316666Y-145753333D01*
X157498095Y-145813809D01*
X157619047Y-145934761D01*
X157679523Y-146116190D01*
X157679523Y-146237142D01*
X156530476Y-145209047D02*
X156470000Y-145148571D01*
X156409523Y-145027619D01*
X156409523Y-144725238D01*
X156470000Y-144604285D01*
X156530476Y-144543809D01*
X156651428Y-144483333D01*
X156772380Y-144483333D01*
X156953809Y-144543809D01*
X157679523Y-145269523D01*
X157679523Y-144483333D01*
D11*
X173033095Y-155352380D02*
X173033095Y-156161904D01*
X173080714Y-156257142D01*
X173128333Y-156304761D01*
X173223571Y-156352380D01*
X173414047Y-156352380D01*
X173509285Y-156304761D01*
X173556904Y-156257142D01*
X173604523Y-156161904D01*
X173604523Y-155352380D01*
X174509285Y-155685714D02*
X174509285Y-156352380D01*
X174271190Y-155304761D02*
X174033095Y-156019047D01*
X174652142Y-156019047D01*
X200473095Y-145192380D02*
X200473095Y-146001904D01*
X200520714Y-146097142D01*
X200568333Y-146144761D01*
X200663571Y-146192380D01*
X200854047Y-146192380D01*
X200949285Y-146144761D01*
X200996904Y-146097142D01*
X201044523Y-146001904D01*
X201044523Y-145192380D01*
X201473095Y-146144761D02*
X201615952Y-146192380D01*
X201854047Y-146192380D01*
X201949285Y-146144761D01*
X201996904Y-146097142D01*
X202044523Y-146001904D01*
X202044523Y-145906666D01*
X201996904Y-145811428D01*
X201949285Y-145763809D01*
X201854047Y-145716190D01*
X201663571Y-145668571D01*
X201568333Y-145620952D01*
X201520714Y-145573333D01*
X201473095Y-145478095D01*
X201473095Y-145382857D01*
X201520714Y-145287619D01*
X201568333Y-145240000D01*
X201663571Y-145192380D01*
X201901666Y-145192380D01*
X202044523Y-145240000D01*
X202806428Y-145668571D02*
X202949285Y-145716190D01*
X202996904Y-145763809D01*
X203044523Y-145859047D01*
X203044523Y-146001904D01*
X202996904Y-146097142D01*
X202949285Y-146144761D01*
X202854047Y-146192380D01*
X202473095Y-146192380D01*
X202473095Y-145192380D01*
X202806428Y-145192380D01*
X202901666Y-145240000D01*
X202949285Y-145287619D01*
X202996904Y-145382857D01*
X202996904Y-145478095D01*
X202949285Y-145573333D01*
X202901666Y-145620952D01*
X202806428Y-145668571D01*
X202473095Y-145668571D01*
X146784047Y-146144761D02*
X146926904Y-146192380D01*
X147165000Y-146192380D01*
X147260238Y-146144761D01*
X147307857Y-146097142D01*
X147355476Y-146001904D01*
X147355476Y-145906666D01*
X147307857Y-145811428D01*
X147260238Y-145763809D01*
X147165000Y-145716190D01*
X146974523Y-145668571D01*
X146879285Y-145620952D01*
X146831666Y-145573333D01*
X146784047Y-145478095D01*
X146784047Y-145382857D01*
X146831666Y-145287619D01*
X146879285Y-145240000D01*
X146974523Y-145192380D01*
X147212619Y-145192380D01*
X147355476Y-145240000D01*
X147784047Y-146192380D02*
X147784047Y-145192380D01*
X148022142Y-145192380D01*
X148165000Y-145240000D01*
X148260238Y-145335238D01*
X148307857Y-145430476D01*
X148355476Y-145620952D01*
X148355476Y-145763809D01*
X148307857Y-145954285D01*
X148260238Y-146049523D01*
X148165000Y-146144761D01*
X148022142Y-146192380D01*
X147784047Y-146192380D01*
X150117380Y-146097142D02*
X150069761Y-146144761D01*
X149926904Y-146192380D01*
X149831666Y-146192380D01*
X149688809Y-146144761D01*
X149593571Y-146049523D01*
X149545952Y-145954285D01*
X149498333Y-145763809D01*
X149498333Y-145620952D01*
X149545952Y-145430476D01*
X149593571Y-145335238D01*
X149688809Y-145240000D01*
X149831666Y-145192380D01*
X149926904Y-145192380D01*
X150069761Y-145240000D01*
X150117380Y-145287619D01*
X150974523Y-146192380D02*
X150974523Y-145668571D01*
X150926904Y-145573333D01*
X150831666Y-145525714D01*
X150641190Y-145525714D01*
X150545952Y-145573333D01*
X150974523Y-146144761D02*
X150879285Y-146192380D01*
X150641190Y-146192380D01*
X150545952Y-146144761D01*
X150498333Y-146049523D01*
X150498333Y-145954285D01*
X150545952Y-145859047D01*
X150641190Y-145811428D01*
X150879285Y-145811428D01*
X150974523Y-145763809D01*
X151450714Y-146192380D02*
X151450714Y-145525714D01*
X151450714Y-145716190D02*
X151498333Y-145620952D01*
X151545952Y-145573333D01*
X151641190Y-145525714D01*
X151736428Y-145525714D01*
X152498333Y-146192380D02*
X152498333Y-145192380D01*
X152498333Y-146144761D02*
X152403095Y-146192380D01*
X152212619Y-146192380D01*
X152117380Y-146144761D01*
X152069761Y-146097142D01*
X152022142Y-146001904D01*
X152022142Y-145716190D01*
X152069761Y-145620952D01*
X152117380Y-145573333D01*
X152212619Y-145525714D01*
X152403095Y-145525714D01*
X152498333Y-145573333D01*
D12*
X138911666Y-151979285D02*
X138488333Y-151979285D01*
X138488333Y-152644523D02*
X138488333Y-151374523D01*
X139093095Y-151374523D01*
X140242142Y-152644523D02*
X139516428Y-152644523D01*
X139879285Y-152644523D02*
X139879285Y-151374523D01*
X139758333Y-151555952D01*
X139637380Y-151676904D01*
X139516428Y-151737380D01*
D11*
X209453095Y-153132380D02*
X209453095Y-152132380D01*
X209453095Y-152608571D02*
X210024523Y-152608571D01*
X210024523Y-153132380D02*
X210024523Y-152132380D01*
X210453095Y-152227619D02*
X210500714Y-152180000D01*
X210595952Y-152132380D01*
X210834047Y-152132380D01*
X210929285Y-152180000D01*
X210976904Y-152227619D01*
X211024523Y-152322857D01*
X211024523Y-152418095D01*
X210976904Y-152560952D01*
X210405476Y-153132380D01*
X211024523Y-153132380D01*
X191534404Y-129902380D02*
X191534404Y-128902380D01*
X191772500Y-128902380D01*
X191915357Y-128950000D01*
X192010595Y-129045238D01*
X192058214Y-129140476D01*
X192105833Y-129330952D01*
X192105833Y-129473809D01*
X192058214Y-129664285D01*
X192010595Y-129759523D01*
X191915357Y-129854761D01*
X191772500Y-129902380D01*
X191534404Y-129902380D01*
X192486785Y-128997619D02*
X192534404Y-128950000D01*
X192629642Y-128902380D01*
X192867738Y-128902380D01*
X192962976Y-128950000D01*
X193010595Y-128997619D01*
X193058214Y-129092857D01*
X193058214Y-129188095D01*
X193010595Y-129330952D01*
X192439166Y-129902380D01*
X193058214Y-129902380D01*
X198592142Y-129312380D02*
X198258809Y-128836190D01*
X198020714Y-129312380D02*
X198020714Y-128312380D01*
X198401666Y-128312380D01*
X198496904Y-128360000D01*
X198544523Y-128407619D01*
X198592142Y-128502857D01*
X198592142Y-128645714D01*
X198544523Y-128740952D01*
X198496904Y-128788571D01*
X198401666Y-128836190D01*
X198020714Y-128836190D01*
X199544523Y-129312380D02*
X198973095Y-129312380D01*
X199258809Y-129312380D02*
X199258809Y-128312380D01*
X199163571Y-128455238D01*
X199068333Y-128550476D01*
X198973095Y-128598095D01*
X200401666Y-128312380D02*
X200211190Y-128312380D01*
X200115952Y-128360000D01*
X200068333Y-128407619D01*
X199973095Y-128550476D01*
X199925476Y-128740952D01*
X199925476Y-129121904D01*
X199973095Y-129217142D01*
X200020714Y-129264761D01*
X200115952Y-129312380D01*
X200306428Y-129312380D01*
X200401666Y-129264761D01*
X200449285Y-129217142D01*
X200496904Y-129121904D01*
X200496904Y-128883809D01*
X200449285Y-128788571D01*
X200401666Y-128740952D01*
X200306428Y-128693333D01*
X200115952Y-128693333D01*
X200020714Y-128740952D01*
X199973095Y-128788571D01*
X199925476Y-128883809D01*
X196338333Y-133752380D02*
X196005000Y-133276190D01*
X195766904Y-133752380D02*
X195766904Y-132752380D01*
X196147857Y-132752380D01*
X196243095Y-132800000D01*
X196290714Y-132847619D01*
X196338333Y-132942857D01*
X196338333Y-133085714D01*
X196290714Y-133180952D01*
X196243095Y-133228571D01*
X196147857Y-133276190D01*
X195766904Y-133276190D01*
X197243095Y-132752380D02*
X196766904Y-132752380D01*
X196719285Y-133228571D01*
X196766904Y-133180952D01*
X196862142Y-133133333D01*
X197100238Y-133133333D01*
X197195476Y-133180952D01*
X197243095Y-133228571D01*
X197290714Y-133323809D01*
X197290714Y-133561904D01*
X197243095Y-133657142D01*
X197195476Y-133704761D01*
X197100238Y-133752380D01*
X196862142Y-133752380D01*
X196766904Y-133704761D01*
X196719285Y-133657142D01*
X79972142Y-145797142D02*
X79924523Y-145844761D01*
X79781666Y-145892380D01*
X79686428Y-145892380D01*
X79543571Y-145844761D01*
X79448333Y-145749523D01*
X79400714Y-145654285D01*
X79353095Y-145463809D01*
X79353095Y-145320952D01*
X79400714Y-145130476D01*
X79448333Y-145035238D01*
X79543571Y-144940000D01*
X79686428Y-144892380D01*
X79781666Y-144892380D01*
X79924523Y-144940000D01*
X79972142Y-144987619D01*
X80924523Y-145892380D02*
X80353095Y-145892380D01*
X80638809Y-145892380D02*
X80638809Y-144892380D01*
X80543571Y-145035238D01*
X80448333Y-145130476D01*
X80353095Y-145178095D01*
X81876904Y-145892380D02*
X81305476Y-145892380D01*
X81591190Y-145892380D02*
X81591190Y-144892380D01*
X81495952Y-145035238D01*
X81400714Y-145130476D01*
X81305476Y-145178095D01*
X89778333Y-144112380D02*
X89445000Y-143636190D01*
X89206904Y-144112380D02*
X89206904Y-143112380D01*
X89587857Y-143112380D01*
X89683095Y-143160000D01*
X89730714Y-143207619D01*
X89778333Y-143302857D01*
X89778333Y-143445714D01*
X89730714Y-143540952D01*
X89683095Y-143588571D01*
X89587857Y-143636190D01*
X89206904Y-143636190D01*
X90349761Y-143540952D02*
X90254523Y-143493333D01*
X90206904Y-143445714D01*
X90159285Y-143350476D01*
X90159285Y-143302857D01*
X90206904Y-143207619D01*
X90254523Y-143160000D01*
X90349761Y-143112380D01*
X90540238Y-143112380D01*
X90635476Y-143160000D01*
X90683095Y-143207619D01*
X90730714Y-143302857D01*
X90730714Y-143350476D01*
X90683095Y-143445714D01*
X90635476Y-143493333D01*
X90540238Y-143540952D01*
X90349761Y-143540952D01*
X90254523Y-143588571D01*
X90206904Y-143636190D01*
X90159285Y-143731428D01*
X90159285Y-143921904D01*
X90206904Y-144017142D01*
X90254523Y-144064761D01*
X90349761Y-144112380D01*
X90540238Y-144112380D01*
X90635476Y-144064761D01*
X90683095Y-144017142D01*
X90730714Y-143921904D01*
X90730714Y-143731428D01*
X90683095Y-143636190D01*
X90635476Y-143588571D01*
X90540238Y-143540952D01*
D12*
X107713809Y-129484523D02*
X107109047Y-129484523D01*
X107109047Y-128214523D01*
X108137142Y-128819285D02*
X108560476Y-128819285D01*
X108741904Y-129484523D02*
X108137142Y-129484523D01*
X108137142Y-128214523D01*
X108741904Y-128214523D01*
X109286190Y-129484523D02*
X109286190Y-128214523D01*
X109588571Y-128214523D01*
X109770000Y-128275000D01*
X109890952Y-128395952D01*
X109951428Y-128516904D01*
X110011904Y-128758809D01*
X110011904Y-128940238D01*
X109951428Y-129182142D01*
X109890952Y-129303095D01*
X109770000Y-129424047D01*
X109588571Y-129484523D01*
X109286190Y-129484523D01*
X110495714Y-128335476D02*
X110556190Y-128275000D01*
X110677142Y-128214523D01*
X110979523Y-128214523D01*
X111100476Y-128275000D01*
X111160952Y-128335476D01*
X111221428Y-128456428D01*
X111221428Y-128577380D01*
X111160952Y-128758809D01*
X110435238Y-129484523D01*
X111221428Y-129484523D01*
D13*
X188957500Y-131775000D02*
X188957500Y-130305000D01*
X186672500Y-131775000D02*
X188957500Y-131775000D01*
X188957500Y-130305000D02*
X186672500Y-130305000D01*
X159654420Y-134880000D02*
X159935580Y-134880000D01*
X159654420Y-135900000D02*
X159935580Y-135900000D01*
X183909758Y-130362500D02*
X183435242Y-130362500D01*
X183909758Y-129317500D02*
X183435242Y-129317500D01*
D14*
X131189000Y-132295000D02*
X132189000Y-132295000D01*
D10*
X105989000Y-155945000D02*
X105989000Y-155945000D01*
D14*
X132201000Y-154195000D02*
X132201000Y-151245000D01*
X98421000Y-132395000D02*
X98421000Y-154245000D01*
X132201000Y-135245000D02*
X132189000Y-132245000D01*
X131189000Y-154195000D02*
X132201000Y-154195000D01*
X98421000Y-154195000D02*
X104189000Y-154195000D01*
D10*
X106189000Y-155945000D02*
X106189000Y-155945000D01*
X105989000Y-155945000D02*
G75*
G03*
X106189000Y-155945000I100000J0D01*
G01*
X106189000Y-155945000D02*
G75*
G03*
X105989000Y-155945000I-100000J0D01*
G01*
D13*
X167962258Y-132387500D02*
X167487742Y-132387500D01*
X167962258Y-133432500D02*
X167487742Y-133432500D01*
X196235242Y-132362500D02*
X196709758Y-132362500D01*
X196235242Y-131317500D02*
X196709758Y-131317500D01*
D10*
X82830000Y-142745000D02*
X85155000Y-142745000D01*
X82830000Y-141095000D02*
X82830000Y-142745000D01*
X85155000Y-141095000D02*
X82830000Y-141095000D01*
D13*
X117942258Y-157457500D02*
X117467742Y-157457500D01*
X117942258Y-158502500D02*
X117467742Y-158502500D01*
X117167742Y-128397500D02*
X117642258Y-128397500D01*
X117167742Y-129442500D02*
X117642258Y-129442500D01*
X80952258Y-141297500D02*
X80477742Y-141297500D01*
X80952258Y-142342500D02*
X80477742Y-142342500D01*
X87292742Y-147302500D02*
X87767258Y-147302500D01*
X87292742Y-146257500D02*
X87767258Y-146257500D01*
X80915580Y-146440000D02*
X80634420Y-146440000D01*
X80915580Y-147460000D02*
X80634420Y-147460000D01*
D14*
X142130000Y-141730000D02*
X141015000Y-141730000D01*
X142130000Y-144330000D02*
X141015000Y-144330000D01*
X141015000Y-144330000D02*
X142130000Y-144330000D01*
X142130000Y-141730000D02*
X142130000Y-141730000D01*
X142130000Y-144330000D02*
X142130000Y-144330000D01*
D10*
X135705000Y-143030000D02*
X135705000Y-143030000D01*
X135705000Y-143030000D02*
X135705000Y-143030000D01*
X135805000Y-143030000D02*
X135805000Y-143030000D01*
D14*
X141015000Y-144330000D02*
X141015000Y-144330000D01*
X141015000Y-141730000D02*
X141015000Y-141730000D01*
X141015000Y-141730000D02*
X142130000Y-141730000D01*
D10*
X135705000Y-143030000D02*
G75*
G03*
X135805000Y-143030000I50000J0D01*
G01*
X135705000Y-143030000D02*
G75*
G03*
X135805000Y-143030000I50000J0D01*
G01*
X135805000Y-143030000D02*
G75*
G03*
X135705000Y-143030000I-50000J0D01*
G01*
X112190075Y-158964925D02*
X114515075Y-158964925D01*
X114515075Y-157314925D02*
X112190075Y-157314925D01*
X112190075Y-157314925D02*
X112190075Y-158964925D01*
D13*
X183435242Y-131317500D02*
X183909758Y-131317500D01*
X183435242Y-132362500D02*
X183909758Y-132362500D01*
X207267258Y-128397500D02*
X206792742Y-128397500D01*
X207267258Y-129442500D02*
X206792742Y-129442500D01*
D14*
X200565000Y-130900000D02*
X207315000Y-130900000D01*
X207315000Y-130900000D02*
X207315000Y-134100000D01*
D10*
X205815000Y-134870000D02*
X205815000Y-134870000D01*
X205815000Y-134770000D02*
X205815000Y-134770000D01*
D14*
X200565000Y-134100000D02*
X200565000Y-130900000D01*
X207315000Y-134100000D02*
X200565000Y-134100000D01*
D10*
X205815000Y-134870000D02*
X205815000Y-134870000D01*
X205815000Y-134870000D02*
G75*
G03*
X205815000Y-134770000I0J50000D01*
G01*
X205815000Y-134870000D02*
G75*
G03*
X205815000Y-134770000I0J50000D01*
G01*
X205815000Y-134770000D02*
G75*
G03*
X205815000Y-134870000I0J-50000D01*
G01*
X94205000Y-154120000D02*
X89705000Y-154120000D01*
X94205000Y-133720000D02*
X92205000Y-133720000D01*
D14*
X160445000Y-142730000D02*
X160445000Y-142730000D01*
X155690000Y-141530000D02*
X155690000Y-144330000D01*
X158200000Y-141530000D02*
X155690000Y-141530000D01*
X160545000Y-142730000D02*
X160545000Y-142730000D01*
X158200000Y-143730000D02*
X158200000Y-146930000D01*
X155690000Y-149140000D02*
X158200000Y-149130000D01*
X155690000Y-146330000D02*
X155690000Y-149140000D01*
X160545000Y-142730000D02*
G75*
G03*
X160445000Y-142730000I-50000J0D01*
G01*
X160445000Y-142730000D02*
G75*
G03*
X160545000Y-142730000I50000J0D01*
G01*
D11*
X143315000Y-152090000D02*
X156015000Y-152090000D01*
X144585000Y-148280000D02*
X143315000Y-148280000D01*
X204275000Y-141930000D02*
X205545000Y-141930000D01*
X205545000Y-141930000D02*
X205545000Y-149550000D01*
X144585000Y-144470000D02*
X143315000Y-144470000D01*
X144585000Y-140660000D02*
X144585000Y-150820000D01*
X144585000Y-141930000D02*
X143315000Y-141930000D01*
X204275000Y-136850000D02*
X204275000Y-154630000D01*
X144585000Y-140660000D02*
X143315000Y-140660000D01*
X199195000Y-141930000D02*
X199195000Y-149550000D01*
X144585000Y-145740000D02*
X143315000Y-145740000D01*
X199195000Y-141930000D02*
X204275000Y-141930000D01*
X143315000Y-154630000D02*
X143315000Y-136850000D01*
X156015000Y-139390000D02*
X143315000Y-139390000D01*
X143315000Y-154630000D02*
X204275000Y-154630000D01*
X144585000Y-143200000D02*
X143315000Y-143200000D01*
X144585000Y-147010000D02*
X143315000Y-147010000D01*
X144585000Y-150820000D02*
X143315000Y-152090000D01*
X144585000Y-150820000D02*
X143315000Y-150820000D01*
X204275000Y-136850000D02*
X143315000Y-136850000D01*
X143315000Y-139390000D02*
X144585000Y-140660000D01*
X205545000Y-149550000D02*
X204275000Y-149550000D01*
X199195000Y-149550000D02*
X204275000Y-149550000D01*
X144585000Y-149550000D02*
X143315000Y-149550000D01*
X156015000Y-152090000D02*
X156015000Y-139390000D01*
D10*
X139095000Y-147110000D02*
X139095000Y-150150000D01*
D13*
X190787500Y-130305000D02*
X190787500Y-131775000D01*
X193072500Y-130305000D02*
X190787500Y-130305000D01*
X190787500Y-131775000D02*
X193072500Y-131775000D01*
X201887742Y-129422500D02*
X202362258Y-129422500D01*
X201887742Y-128377500D02*
X202362258Y-128377500D01*
X196589758Y-129317500D02*
X196115242Y-129317500D01*
X196589758Y-130362500D02*
X196115242Y-130362500D01*
X80855580Y-143400000D02*
X80574420Y-143400000D01*
X80855580Y-144420000D02*
X80574420Y-144420000D01*
X87187742Y-144532500D02*
X87662258Y-144532500D01*
X87187742Y-143487500D02*
X87662258Y-143487500D01*
D10*
X112430000Y-129745000D02*
X114755000Y-129745000D01*
X114755000Y-128095000D02*
X112430000Y-128095000D01*
X112430000Y-128095000D02*
X112430000Y-129745000D01*
M02*
