G04 #@! TF.GenerationSoftware,KiCad,Pcbnew,6.0.1*
G04 #@! TF.CreationDate,2022-03-01T21:25:21+01:00*
G04 #@! TF.ProjectId,PCB_v1,5043425f-7631-42e6-9b69-6361645f7063,rev?*
G04 #@! TF.SameCoordinates,Original*
G04 #@! TF.FileFunction,Paste,Bot*
G04 #@! TF.FilePolarity,Positive*
%FSLAX46Y46*%
G04 Gerber Fmt 4.6, Leading zero omitted, Abs format (unit mm)*
G04 Created by KiCad (PCBNEW 6.0.1) date 2022-03-01 21:25:21*
%MOMM*%
%LPD*%
G01*
G04 APERTURE LIST*
G04 Aperture macros list*
%AMRoundRect*
0 Rectangle with rounded corners*
0 $1 Rounding radius*
0 $2 $3 $4 $5 $6 $7 $8 $9 X,Y pos of 4 corners*
0 Add a 4 corners polygon primitive as box body*
4,1,4,$2,$3,$4,$5,$6,$7,$8,$9,$2,$3,0*
0 Add four circle primitives for the rounded corners*
1,1,$1+$1,$2,$3*
1,1,$1+$1,$4,$5*
1,1,$1+$1,$6,$7*
1,1,$1+$1,$8,$9*
0 Add four rect primitives between the rounded corners*
20,1,$1+$1,$2,$3,$4,$5,0*
20,1,$1+$1,$4,$5,$6,$7,0*
20,1,$1+$1,$6,$7,$8,$9,0*
20,1,$1+$1,$8,$9,$2,$3,0*%
G04 Aperture macros list end*
%ADD10RoundRect,0.375000X-0.375000X-0.387000X0.375000X-0.387000X0.375000X0.387000X-0.375000X0.387000X0*%
%ADD11RoundRect,0.225000X-0.225000X-0.250000X0.225000X-0.250000X0.225000X0.250000X-0.225000X0.250000X0*%
%ADD12RoundRect,0.200000X0.200000X0.275000X-0.200000X0.275000X-0.200000X-0.275000X0.200000X-0.275000X0*%
%ADD13RoundRect,0.225000X0.225000X0.250000X-0.225000X0.250000X-0.225000X-0.250000X0.225000X-0.250000X0*%
%ADD14R,1.200000X0.975000*%
%ADD15R,1.050000X1.000000*%
%ADD16R,2.200000X1.050000*%
%ADD17RoundRect,0.200000X-0.200000X-0.275000X0.200000X-0.275000X0.200000X0.275000X-0.200000X0.275000X0*%
%ADD18R,1.525000X0.650000*%
%ADD19R,1.050000X0.500000*%
%ADD20R,1.800000X0.700000*%
%ADD21R,1.800000X0.800000*%
%ADD22R,2.600000X1.000000*%
%ADD23R,2.650000X2.500000*%
%ADD24R,1.300000X0.600000*%
%ADD25R,3.250000X1.120000*%
%ADD26R,2.900000X3.500000*%
%ADD27R,3.960000X3.960000*%
%ADD28R,1.000000X2.600000*%
G04 APERTURE END LIST*
D10*
X86335000Y-156460000D03*
X88735000Y-156460000D03*
D11*
X129680000Y-143760000D03*
X131230000Y-143760000D03*
D12*
X152870000Y-129210000D03*
X151220000Y-129210000D03*
D13*
X188660000Y-158300000D03*
X187110000Y-158300000D03*
D12*
X162460000Y-129080000D03*
X160810000Y-129080000D03*
D14*
X191715000Y-157752000D03*
X195715000Y-157752000D03*
X191715000Y-156228000D03*
X195715000Y-156228000D03*
D15*
X112985000Y-143680000D03*
D16*
X111460000Y-142205000D03*
X111460000Y-145155000D03*
D11*
X194932000Y-145250000D03*
X196482000Y-145250000D03*
D17*
X173810000Y-156370000D03*
X175460000Y-156370000D03*
D11*
X87590000Y-132080000D03*
X89140000Y-132080000D03*
X90680000Y-155340000D03*
X92230000Y-155340000D03*
D18*
X187533000Y-147755000D03*
X187533000Y-146485000D03*
X187533000Y-145215000D03*
X187533000Y-143945000D03*
X192957000Y-143945000D03*
X192957000Y-145215000D03*
X192957000Y-146485000D03*
X192957000Y-147755000D03*
D11*
X173850000Y-158460000D03*
X175400000Y-158460000D03*
D12*
X142070000Y-133440000D03*
X140420000Y-133440000D03*
D19*
X94017000Y-155300000D03*
X96293000Y-155300000D03*
D12*
X188790000Y-141940000D03*
X187140000Y-141940000D03*
X97980000Y-130190000D03*
X96330000Y-130190000D03*
D13*
X88050000Y-152310000D03*
X86500000Y-152310000D03*
D12*
X96590000Y-157500000D03*
X94940000Y-157500000D03*
D20*
X125735000Y-136060000D03*
D21*
X125735000Y-137160000D03*
X125735000Y-138260000D03*
X125735000Y-139360000D03*
X125735000Y-140460000D03*
X125735000Y-141560000D03*
X125735000Y-142660000D03*
X125735000Y-143760000D03*
D20*
X125735000Y-144860000D03*
X116235000Y-144860000D03*
D21*
X116235000Y-143760000D03*
X116235000Y-142660000D03*
X116235000Y-141560000D03*
X116235000Y-140460000D03*
X116235000Y-139360000D03*
X116235000Y-138260000D03*
X116235000Y-137160000D03*
D20*
X116235000Y-136060000D03*
D22*
X137080000Y-134820000D03*
X132980000Y-134820000D03*
X137080000Y-136820000D03*
X132980000Y-136820000D03*
X137080000Y-138820000D03*
X132980000Y-138820000D03*
D17*
X96390000Y-132060000D03*
X98040000Y-132060000D03*
X140430000Y-135400000D03*
X142080000Y-135400000D03*
D23*
X103790000Y-140540000D03*
X95440000Y-140540000D03*
D12*
X188740000Y-156330000D03*
X187090000Y-156330000D03*
D14*
X178255000Y-157824000D03*
X182255000Y-157824000D03*
X178255000Y-156300000D03*
X182255000Y-156300000D03*
D12*
X129984000Y-136870000D03*
X128334000Y-136870000D03*
D11*
X87590000Y-134060000D03*
X89140000Y-134060000D03*
D13*
X88070000Y-153940000D03*
X86520000Y-153940000D03*
D24*
X92415000Y-131160000D03*
X94515000Y-132110000D03*
X94515000Y-130210000D03*
D25*
X114130000Y-132120000D03*
X102280000Y-132120000D03*
D12*
X93200000Y-157380000D03*
X91550000Y-157380000D03*
D22*
X201355000Y-149770000D03*
X205455000Y-149770000D03*
X201355000Y-147770000D03*
X205455000Y-147770000D03*
X201355000Y-145770000D03*
X205455000Y-145770000D03*
X201355000Y-143770000D03*
X205455000Y-143770000D03*
X201355000Y-141770000D03*
X205455000Y-141770000D03*
D11*
X129665000Y-145390000D03*
X131215000Y-145390000D03*
D26*
X179205000Y-145520000D03*
D27*
X172605000Y-145520000D03*
D26*
X166005000Y-145520000D03*
D11*
X194932000Y-146812000D03*
X196482000Y-146812000D03*
D28*
X100005000Y-151070000D03*
X100005000Y-155170000D03*
X102005000Y-151070000D03*
X102005000Y-155170000D03*
X104005000Y-151070000D03*
X104005000Y-155170000D03*
X106005000Y-151070000D03*
X106005000Y-155170000D03*
X108005000Y-151070000D03*
X108005000Y-155170000D03*
M02*
