M48
; DRILL file {KiCad 6.0.1} date ven. 11 mars 2022 19:59:54
; FORMAT={-:-/ absolute / inch / decimal}
; #@! TF.CreationDate,2022-03-11T19:59:54+01:00
; #@! TF.GenerationSoftware,Kicad,Pcbnew,6.0.1
; #@! TF.FileFunction,MixedPlating,1,2
FMAT,2
INCH
; #@! TA.AperFunction,Plated,PTH,ViaDrill
T1C0.0118
; #@! TA.AperFunction,Plated,PTH,ComponentDrill
T2C0.0315
; #@! TA.AperFunction,Plated,PTH,ComponentDrill
T3C0.0433
; #@! TA.AperFunction,NonPlated,NPTH,ComponentDrill
T4C0.0433
%
G90
G05
T1
X2.9909Y-3.8787
X3.065Y-4.287
X3.0709Y-4.222
X3.0803Y-4.1898
X3.239Y-4.2449
X3.2677Y-3.9827
X3.2878Y-4.2138
X3.3886Y-3.9028
X3.4061Y-4.0242
X3.4764Y-4.0673
X3.4776Y-4.1929
X3.4791Y-3.9969
X3.5606Y-3.9185
X3.5949Y-4.1382
X3.6583Y-4.0437
X3.698Y-4.4067
X3.724Y-4.3748
X3.8508Y-4.1268
X3.8567Y-4.1764
X3.8839Y-4.4295
X3.9071Y-4.2465
X3.9291Y-4.0504
X4.061Y-4.335
X4.0656Y-4.1388
X4.1602Y-3.9819
X4.2189Y-3.9839
X4.3547Y-3.8681
X4.3657Y-4.0724
X4.4146Y-4.1138
T2
X3.3472Y-3.8472
X3.3472Y-4.3622
X3.4472Y-3.8472
X3.4472Y-4.3622
X3.5472Y-3.8472
X3.5472Y-4.3622
X3.6472Y-3.8472
X3.6472Y-4.3622
T3
X3.8811Y-3.8898
X3.8811Y-3.9898
X4.263Y-4.1386
X4.263Y-4.2386
T4
X3.9811Y-3.8898
X3.9811Y-3.9898
X4.363Y-4.1386
X4.363Y-4.2386
T0
M30
