G04 #@! TF.GenerationSoftware,KiCad,Pcbnew,6.0.1*
G04 #@! TF.CreationDate,2022-03-11T19:56:17+01:00*
G04 #@! TF.ProjectId,nosecone,6e6f7365-636f-46e6-952e-6b696361645f,rev?*
G04 #@! TF.SameCoordinates,Original*
G04 #@! TF.FileFunction,Copper,L2,Bot*
G04 #@! TF.FilePolarity,Positive*
%FSLAX46Y46*%
G04 Gerber Fmt 4.6, Leading zero omitted, Abs format (unit mm)*
G04 Created by KiCad (PCBNEW 6.0.1) date 2022-03-11 19:56:17*
%MOMM*%
%LPD*%
G01*
G04 APERTURE LIST*
G04 Aperture macros list*
%AMRoundRect*
0 Rectangle with rounded corners*
0 $1 Rounding radius*
0 $2 $3 $4 $5 $6 $7 $8 $9 X,Y pos of 4 corners*
0 Add a 4 corners polygon primitive as box body*
4,1,4,$2,$3,$4,$5,$6,$7,$8,$9,$2,$3,0*
0 Add four circle primitives for the rounded corners*
1,1,$1+$1,$2,$3*
1,1,$1+$1,$4,$5*
1,1,$1+$1,$6,$7*
1,1,$1+$1,$8,$9*
0 Add four rect primitives between the rounded corners*
20,1,$1+$1,$2,$3,$4,$5,0*
20,1,$1+$1,$4,$5,$6,$7,0*
20,1,$1+$1,$6,$7,$8,$9,0*
20,1,$1+$1,$8,$9,$2,$3,0*%
G04 Aperture macros list end*
G04 #@! TA.AperFunction,ComponentPad*
%ADD10R,1.600000X1.600000*%
G04 #@! TD*
G04 #@! TA.AperFunction,ComponentPad*
%ADD11O,1.600000X1.600000*%
G04 #@! TD*
G04 #@! TA.AperFunction,ComponentPad*
%ADD12R,1.650000X1.650000*%
G04 #@! TD*
G04 #@! TA.AperFunction,ComponentPad*
%ADD13C,1.650000*%
G04 #@! TD*
G04 #@! TA.AperFunction,SMDPad,CuDef*
%ADD14RoundRect,0.200000X-0.200000X-0.275000X0.200000X-0.275000X0.200000X0.275000X-0.200000X0.275000X0*%
G04 #@! TD*
G04 #@! TA.AperFunction,SMDPad,CuDef*
%ADD15RoundRect,0.225000X0.225000X0.250000X-0.225000X0.250000X-0.225000X-0.250000X0.225000X-0.250000X0*%
G04 #@! TD*
G04 #@! TA.AperFunction,SMDPad,CuDef*
%ADD16RoundRect,0.225000X-0.225000X-0.250000X0.225000X-0.250000X0.225000X0.250000X-0.225000X0.250000X0*%
G04 #@! TD*
G04 #@! TA.AperFunction,SMDPad,CuDef*
%ADD17R,1.525000X0.650000*%
G04 #@! TD*
G04 #@! TA.AperFunction,ViaPad*
%ADD18C,0.450000*%
G04 #@! TD*
G04 #@! TA.AperFunction,Conductor*
%ADD19C,0.250000*%
G04 #@! TD*
G04 #@! TA.AperFunction,Conductor*
%ADD20C,0.500000*%
G04 #@! TD*
G04 #@! TA.AperFunction,Conductor*
%ADD21C,0.700000*%
G04 #@! TD*
G04 APERTURE END LIST*
D10*
X92640000Y-97720000D03*
D11*
X90100000Y-97720000D03*
X87560000Y-97720000D03*
X85020000Y-97720000D03*
X85020000Y-110800000D03*
X87560000Y-110800000D03*
X90100000Y-110800000D03*
X92640000Y-110800000D03*
D12*
X98580000Y-101340000D03*
D13*
X98580000Y-98800000D03*
X108280000Y-105120000D03*
D12*
X108280000Y-107660000D03*
D14*
X95445000Y-111220000D03*
X97095000Y-111220000D03*
D15*
X112215000Y-102610000D03*
X110665000Y-102610000D03*
D14*
X103195000Y-104290000D03*
X104845000Y-104290000D03*
D16*
X110645000Y-100580000D03*
X112195000Y-100580000D03*
X103080000Y-107460000D03*
X104630000Y-107460000D03*
D17*
X108552000Y-98655000D03*
X108552000Y-99925000D03*
X108552000Y-101195000D03*
X108552000Y-102465000D03*
X103128000Y-102465000D03*
X103128000Y-101195000D03*
X103128000Y-99925000D03*
X103128000Y-98655000D03*
D15*
X104635000Y-109170000D03*
X103085000Y-109170000D03*
D17*
X101192000Y-105525000D03*
X101192000Y-106795000D03*
X101192000Y-108065000D03*
X101192000Y-109335000D03*
X95768000Y-109335000D03*
X95768000Y-108065000D03*
X95768000Y-106795000D03*
X95768000Y-105525000D03*
D18*
X86515000Y-102215000D03*
X78000000Y-107240000D03*
X86070000Y-99130000D03*
X77850000Y-108890011D03*
X82270000Y-107820000D03*
X83510000Y-107030000D03*
X75970000Y-98520000D03*
X112130000Y-104490000D03*
X110610000Y-98250000D03*
X92920000Y-102710000D03*
X90440000Y-99530000D03*
X83000000Y-101160000D03*
X78240000Y-106420000D03*
X88370000Y-101520000D03*
X88300000Y-103309011D03*
X97810000Y-104819500D03*
X99800000Y-102880000D03*
X97960000Y-106080000D03*
X91310000Y-105110000D03*
X88330000Y-106500000D03*
X103265000Y-105125000D03*
X110890000Y-103440000D03*
X103150000Y-110110000D03*
X94590000Y-111120000D03*
X99240000Y-107860000D03*
X93930000Y-111930000D03*
X98650000Y-112510000D03*
X107160000Y-101190000D03*
X105670000Y-101140000D03*
D19*
X103128000Y-101195000D02*
X102690500Y-101195000D01*
X102690500Y-101195000D02*
X99965500Y-103920000D01*
X99965500Y-103920000D02*
X85842873Y-103920000D01*
X85842873Y-103920000D02*
X82270000Y-107492873D01*
X82270000Y-107492873D02*
X82270000Y-107820000D01*
X86515000Y-102215000D02*
X81490000Y-107240000D01*
X81490000Y-107240000D02*
X78000000Y-107240000D01*
D20*
X78240000Y-106420000D02*
X79150000Y-106420000D01*
X83000000Y-102570000D02*
X83000000Y-101160000D01*
X79150000Y-106420000D02*
X83000000Y-102570000D01*
X90440000Y-99530000D02*
X90130000Y-99220000D01*
X91880000Y-102710000D02*
X92920000Y-102710000D01*
X90130000Y-99220000D02*
X86160000Y-99220000D01*
X86160000Y-99220000D02*
X86070000Y-99130000D01*
X90440000Y-99530000D02*
X90440000Y-101270000D01*
X90440000Y-101270000D02*
X91880000Y-102710000D01*
D19*
X83510000Y-107500000D02*
X83510000Y-107030000D01*
X92640000Y-110800000D02*
X90660000Y-108820000D01*
X84830000Y-108820000D02*
X83510000Y-107500000D01*
X90660000Y-108820000D02*
X84830000Y-108820000D01*
X77850000Y-108890011D02*
X82499989Y-113540000D01*
X82499989Y-113540000D02*
X94775000Y-113540000D01*
X94775000Y-113540000D02*
X97095000Y-111220000D01*
X88300000Y-103309011D02*
X88300000Y-101590000D01*
X88300000Y-101590000D02*
X88370000Y-101520000D01*
X95768000Y-109335000D02*
X96205500Y-109335000D01*
X98900000Y-106640500D02*
X98900000Y-105870000D01*
X98860500Y-105870000D02*
X98900000Y-105870000D01*
X96205500Y-109335000D02*
X98900000Y-106640500D01*
X102305000Y-102465000D02*
X103128000Y-102465000D01*
X97810000Y-104819500D02*
X98860500Y-105870000D01*
X98900000Y-105870000D02*
X102305000Y-102465000D01*
X97245000Y-106795000D02*
X97960000Y-106080000D01*
X100897529Y-99925000D02*
X99800000Y-101022529D01*
X95330500Y-106795000D02*
X92640000Y-109485500D01*
X95768000Y-106795000D02*
X95330500Y-106795000D01*
X95768000Y-106795000D02*
X97245000Y-106795000D01*
X99800000Y-101022529D02*
X99800000Y-102880000D01*
X103128000Y-99925000D02*
X100897529Y-99925000D01*
X92640000Y-109485500D02*
X92640000Y-110800000D01*
D20*
X88330000Y-106500000D02*
X89920000Y-106500000D01*
X103195000Y-105055000D02*
X103265000Y-105125000D01*
X95445000Y-111220000D02*
X94690000Y-111220000D01*
X102920000Y-109335000D02*
X103085000Y-109170000D01*
X103195000Y-104290000D02*
X103195000Y-105055000D01*
X108552000Y-102465000D02*
X110520000Y-102465000D01*
X103085000Y-110045000D02*
X103150000Y-110110000D01*
X110665000Y-102610000D02*
X110665000Y-103215000D01*
X94690000Y-111220000D02*
X94590000Y-111120000D01*
X89920000Y-106500000D02*
X91310000Y-105110000D01*
X101192000Y-109335000D02*
X102920000Y-109335000D01*
X103085000Y-109170000D02*
X103085000Y-110045000D01*
X110520000Y-102465000D02*
X110665000Y-102610000D01*
X110665000Y-103215000D02*
X110890000Y-103440000D01*
D21*
X100435000Y-105525000D02*
X101192000Y-105525000D01*
X99574520Y-107525480D02*
X99574520Y-106385480D01*
X99574520Y-106385480D02*
X100435000Y-105525000D01*
X99240000Y-107860000D02*
X99574520Y-107525480D01*
D19*
X107165000Y-101195000D02*
X108552000Y-101195000D01*
X108552000Y-101195000D02*
X110030000Y-101195000D01*
X110030000Y-101195000D02*
X110645000Y-100580000D01*
X107160000Y-101190000D02*
X107165000Y-101195000D01*
X103128000Y-101195000D02*
X103565500Y-101195000D01*
X104845000Y-102474500D02*
X104845000Y-104290000D01*
X103565500Y-101195000D02*
X104845000Y-102474500D01*
X96295480Y-110420480D02*
X97095000Y-111220000D01*
X95300480Y-110420480D02*
X96295480Y-110420480D01*
X94680989Y-109800989D02*
X95300480Y-110420480D01*
X95768000Y-108065000D02*
X95330500Y-108065000D01*
X94680989Y-108714511D02*
X94680989Y-109800989D01*
X95330500Y-108065000D02*
X94680989Y-108714511D01*
X108552000Y-99925000D02*
X106885000Y-99925000D01*
X106885000Y-99925000D02*
X105670000Y-101140000D01*
X111395480Y-99780480D02*
X112195000Y-100580000D01*
X108552000Y-99925000D02*
X108696520Y-99780480D01*
X108696520Y-99780480D02*
X111395480Y-99780480D01*
X108280000Y-107660000D02*
X107680480Y-108259520D01*
X103879520Y-108259520D02*
X103080000Y-107460000D01*
X102475000Y-108065000D02*
X103080000Y-107460000D01*
X101192000Y-108065000D02*
X102475000Y-108065000D01*
X107680480Y-108259520D02*
X103879520Y-108259520D01*
X101497000Y-106490000D02*
X103900000Y-106490000D01*
X101192000Y-106795000D02*
X101497000Y-106490000D01*
X103900000Y-106490000D02*
X104630000Y-107220000D01*
X104630000Y-107220000D02*
X104630000Y-107460000D01*
X105940000Y-107460000D02*
X108280000Y-105120000D01*
X104630000Y-107460000D02*
X105940000Y-107460000D01*
G04 #@! TA.AperFunction,Conductor*
G36*
X105594131Y-95491343D02*
G01*
X112576577Y-96102307D01*
X112642695Y-96128170D01*
X112684334Y-96185674D01*
X112691594Y-96227827D01*
X112691594Y-99479765D01*
X112671592Y-99547886D01*
X112617936Y-99594379D01*
X112552753Y-99605109D01*
X112468732Y-99596500D01*
X112159595Y-99596500D01*
X112091474Y-99576498D01*
X112070500Y-99559595D01*
X111899132Y-99388227D01*
X111891592Y-99379941D01*
X111887480Y-99373462D01*
X111837828Y-99326836D01*
X111834987Y-99324082D01*
X111815250Y-99304345D01*
X111812053Y-99301865D01*
X111803031Y-99294160D01*
X111800737Y-99292006D01*
X111770801Y-99263894D01*
X111763855Y-99260075D01*
X111763852Y-99260073D01*
X111753046Y-99254132D01*
X111736527Y-99243281D01*
X111736063Y-99242921D01*
X111720521Y-99230866D01*
X111713252Y-99227721D01*
X111713248Y-99227718D01*
X111679943Y-99213306D01*
X111669293Y-99208089D01*
X111630540Y-99186785D01*
X111610917Y-99181747D01*
X111592214Y-99175343D01*
X111580900Y-99170447D01*
X111580899Y-99170447D01*
X111573625Y-99167299D01*
X111565802Y-99166060D01*
X111565792Y-99166057D01*
X111529956Y-99160381D01*
X111518336Y-99157975D01*
X111483191Y-99148952D01*
X111483190Y-99148952D01*
X111475510Y-99146980D01*
X111455256Y-99146980D01*
X111435545Y-99145429D01*
X111423366Y-99143500D01*
X111415537Y-99142260D01*
X111407645Y-99143006D01*
X111371519Y-99146421D01*
X111359661Y-99146980D01*
X109948500Y-99146980D01*
X109880379Y-99126978D01*
X109833886Y-99073322D01*
X109822500Y-99020980D01*
X109822500Y-98927115D01*
X109818025Y-98911876D01*
X109816635Y-98910671D01*
X109808952Y-98909000D01*
X107299616Y-98909000D01*
X107284377Y-98913475D01*
X107283172Y-98914865D01*
X107281501Y-98922548D01*
X107281501Y-99024669D01*
X107281871Y-99031490D01*
X107287395Y-99082352D01*
X107291022Y-99097606D01*
X107299893Y-99121271D01*
X107305076Y-99192078D01*
X107271155Y-99254447D01*
X107208900Y-99288576D01*
X107181911Y-99291500D01*
X106963763Y-99291500D01*
X106952579Y-99290973D01*
X106945091Y-99289299D01*
X106937168Y-99289548D01*
X106877033Y-99291438D01*
X106873075Y-99291500D01*
X106845144Y-99291500D01*
X106841229Y-99291995D01*
X106841225Y-99291995D01*
X106841167Y-99292003D01*
X106841138Y-99292006D01*
X106829296Y-99292939D01*
X106785110Y-99294327D01*
X106767744Y-99299372D01*
X106765658Y-99299978D01*
X106746306Y-99303986D01*
X106734068Y-99305532D01*
X106734066Y-99305533D01*
X106726203Y-99306526D01*
X106685086Y-99322806D01*
X106673885Y-99326641D01*
X106631406Y-99338982D01*
X106624587Y-99343015D01*
X106624582Y-99343017D01*
X106613971Y-99349293D01*
X106596221Y-99357990D01*
X106577383Y-99365448D01*
X106570967Y-99370109D01*
X106570966Y-99370110D01*
X106541625Y-99391428D01*
X106531701Y-99397947D01*
X106500460Y-99416422D01*
X106500455Y-99416426D01*
X106493637Y-99420458D01*
X106479313Y-99434782D01*
X106464281Y-99447621D01*
X106447893Y-99459528D01*
X106429067Y-99482285D01*
X106419712Y-99493593D01*
X106411722Y-99502373D01*
X105507247Y-100406848D01*
X105458758Y-100437031D01*
X105362382Y-100469840D01*
X105362379Y-100469841D01*
X105355715Y-100472110D01*
X105258858Y-100531697D01*
X105231529Y-100548510D01*
X105215555Y-100558337D01*
X105097982Y-100673473D01*
X105008838Y-100811797D01*
X105006427Y-100818420D01*
X105006426Y-100818423D01*
X104954966Y-100959809D01*
X104954965Y-100959814D01*
X104952556Y-100966432D01*
X104931931Y-101129694D01*
X104947989Y-101293468D01*
X104966732Y-101349812D01*
X104973210Y-101369285D01*
X104975733Y-101440237D01*
X104939496Y-101501289D01*
X104876004Y-101533059D01*
X104805415Y-101525458D01*
X104764557Y-101498152D01*
X104435905Y-101169500D01*
X104401879Y-101107188D01*
X104399000Y-101080405D01*
X104399000Y-100821866D01*
X104392245Y-100759684D01*
X104374524Y-100712414D01*
X104344266Y-100631699D01*
X104344264Y-100631696D01*
X104341115Y-100623295D01*
X104337773Y-100618836D01*
X104322970Y-100551152D01*
X104337567Y-100501439D01*
X104341115Y-100496705D01*
X104350336Y-100472110D01*
X104389471Y-100367715D01*
X104392245Y-100360316D01*
X104399000Y-100298134D01*
X104399000Y-99551866D01*
X104392245Y-99489684D01*
X104364780Y-99416422D01*
X104344266Y-99361699D01*
X104344264Y-99361696D01*
X104341115Y-99353295D01*
X104337773Y-99348836D01*
X104322970Y-99281152D01*
X104337567Y-99231439D01*
X104341115Y-99226705D01*
X104346139Y-99213306D01*
X104389471Y-99097715D01*
X104392245Y-99090316D01*
X104399000Y-99028134D01*
X104399000Y-98382885D01*
X107281500Y-98382885D01*
X107285975Y-98398124D01*
X107287365Y-98399329D01*
X107295048Y-98401000D01*
X108279885Y-98401000D01*
X108295124Y-98396525D01*
X108296329Y-98395135D01*
X108298000Y-98387452D01*
X108298000Y-98382885D01*
X108806000Y-98382885D01*
X108810475Y-98398124D01*
X108811865Y-98399329D01*
X108819548Y-98401000D01*
X109804384Y-98401000D01*
X109819623Y-98396525D01*
X109820828Y-98395135D01*
X109822499Y-98387452D01*
X109822499Y-98285331D01*
X109822129Y-98278510D01*
X109816605Y-98227648D01*
X109812979Y-98212396D01*
X109767824Y-98091946D01*
X109759286Y-98076351D01*
X109682785Y-97974276D01*
X109670224Y-97961715D01*
X109568149Y-97885214D01*
X109552554Y-97876676D01*
X109432106Y-97831522D01*
X109416851Y-97827895D01*
X109365986Y-97822369D01*
X109359172Y-97822000D01*
X108824115Y-97822000D01*
X108808876Y-97826475D01*
X108807671Y-97827865D01*
X108806000Y-97835548D01*
X108806000Y-98382885D01*
X108298000Y-98382885D01*
X108298000Y-97840116D01*
X108293525Y-97824877D01*
X108292135Y-97823672D01*
X108284452Y-97822001D01*
X107744831Y-97822001D01*
X107738010Y-97822371D01*
X107687148Y-97827895D01*
X107671896Y-97831521D01*
X107551446Y-97876676D01*
X107535851Y-97885214D01*
X107433776Y-97961715D01*
X107421215Y-97974276D01*
X107344714Y-98076351D01*
X107336176Y-98091946D01*
X107291022Y-98212394D01*
X107287395Y-98227649D01*
X107281869Y-98278514D01*
X107281500Y-98285328D01*
X107281500Y-98382885D01*
X104399000Y-98382885D01*
X104399000Y-98281866D01*
X104392245Y-98219684D01*
X104341115Y-98083295D01*
X104253761Y-97966739D01*
X104137205Y-97879385D01*
X104000816Y-97828255D01*
X103938634Y-97821500D01*
X102317366Y-97821500D01*
X102255184Y-97828255D01*
X102118795Y-97879385D01*
X102002239Y-97966739D01*
X101996858Y-97973919D01*
X101996857Y-97973920D01*
X101993865Y-97977912D01*
X101937004Y-98020426D01*
X101866185Y-98025449D01*
X101812050Y-97998865D01*
X101725635Y-97926354D01*
X101725629Y-97926350D01*
X101720911Y-97922391D01*
X101715519Y-97919427D01*
X101715515Y-97919424D01*
X101544402Y-97825354D01*
X101539005Y-97822387D01*
X101341139Y-97759621D01*
X101335022Y-97758935D01*
X101335018Y-97758934D01*
X101258402Y-97750341D01*
X101179587Y-97741500D01*
X101067763Y-97741500D01*
X101064707Y-97741800D01*
X101064700Y-97741800D01*
X100919534Y-97756034D01*
X100919531Y-97756035D01*
X100913408Y-97756635D01*
X100781454Y-97796474D01*
X100720593Y-97814848D01*
X100720590Y-97814849D01*
X100714685Y-97816632D01*
X100709240Y-97819527D01*
X100709238Y-97819528D01*
X100536847Y-97911191D01*
X100536845Y-97911192D01*
X100531401Y-97914087D01*
X100500158Y-97939568D01*
X100375311Y-98041390D01*
X100375308Y-98041393D01*
X100370536Y-98045285D01*
X100366608Y-98050033D01*
X100366607Y-98050034D01*
X100295746Y-98135690D01*
X100238217Y-98205230D01*
X100235288Y-98210647D01*
X100235286Y-98210650D01*
X100142416Y-98382410D01*
X100142414Y-98382415D01*
X100139486Y-98387830D01*
X100134054Y-98405378D01*
X100113457Y-98471915D01*
X100074205Y-98531074D01*
X100009200Y-98559621D01*
X99939081Y-98548492D01*
X99886111Y-98501220D01*
X99871385Y-98467266D01*
X99839290Y-98347484D01*
X99839289Y-98347482D01*
X99837867Y-98342174D01*
X99784463Y-98227649D01*
X99741582Y-98135690D01*
X99741579Y-98135685D01*
X99739256Y-98130703D01*
X99736099Y-98126194D01*
X99608581Y-97944079D01*
X99608579Y-97944076D01*
X99605422Y-97939568D01*
X99440432Y-97774578D01*
X99435924Y-97771421D01*
X99435921Y-97771419D01*
X99253806Y-97643901D01*
X99253804Y-97643900D01*
X99249297Y-97640744D01*
X99244315Y-97638421D01*
X99244310Y-97638418D01*
X99042808Y-97544456D01*
X99042806Y-97544455D01*
X99037826Y-97542133D01*
X99032518Y-97540711D01*
X99032516Y-97540710D01*
X98817759Y-97483166D01*
X98817757Y-97483166D01*
X98812444Y-97481742D01*
X98580000Y-97461406D01*
X98347556Y-97481742D01*
X98342243Y-97483166D01*
X98342241Y-97483166D01*
X98127484Y-97540710D01*
X98127482Y-97540711D01*
X98122174Y-97542133D01*
X98117194Y-97544455D01*
X98117192Y-97544456D01*
X97915690Y-97638418D01*
X97915685Y-97638421D01*
X97910703Y-97640744D01*
X97906196Y-97643900D01*
X97906194Y-97643901D01*
X97724079Y-97771419D01*
X97724076Y-97771421D01*
X97719568Y-97774578D01*
X97554578Y-97939568D01*
X97551421Y-97944076D01*
X97551419Y-97944079D01*
X97423901Y-98126194D01*
X97420744Y-98130703D01*
X97418421Y-98135685D01*
X97418418Y-98135690D01*
X97375537Y-98227649D01*
X97322133Y-98342174D01*
X97320711Y-98347482D01*
X97320710Y-98347484D01*
X97266850Y-98548492D01*
X97261742Y-98567556D01*
X97241406Y-98800000D01*
X97261742Y-99032444D01*
X97263166Y-99037757D01*
X97263166Y-99037759D01*
X97318236Y-99243281D01*
X97322133Y-99257826D01*
X97324455Y-99262806D01*
X97324456Y-99262808D01*
X97418418Y-99464310D01*
X97418421Y-99464315D01*
X97420744Y-99469297D01*
X97423900Y-99473804D01*
X97423901Y-99473806D01*
X97516478Y-99606019D01*
X97554578Y-99660432D01*
X97698254Y-99804108D01*
X97732280Y-99866420D01*
X97727215Y-99937235D01*
X97684668Y-99994071D01*
X97644538Y-100012867D01*
X97644684Y-100013255D01*
X97637291Y-100016027D01*
X97637289Y-100016027D01*
X97540910Y-100052158D01*
X97508295Y-100064385D01*
X97391739Y-100151739D01*
X97304385Y-100268295D01*
X97253255Y-100404684D01*
X97246500Y-100466866D01*
X97246500Y-102213134D01*
X97253255Y-102275316D01*
X97304385Y-102411705D01*
X97391739Y-102528261D01*
X97508295Y-102615615D01*
X97644684Y-102666745D01*
X97706866Y-102673500D01*
X98943798Y-102673500D01*
X99011919Y-102693502D01*
X99058412Y-102747158D01*
X99068804Y-102815291D01*
X99061931Y-102869694D01*
X99077989Y-103033468D01*
X99107017Y-103120729D01*
X99109539Y-103191681D01*
X99073302Y-103252733D01*
X99009809Y-103284502D01*
X98987458Y-103286500D01*
X93681241Y-103286500D01*
X93613120Y-103266498D01*
X93566627Y-103212842D01*
X93556523Y-103142568D01*
X93572286Y-103097218D01*
X93620326Y-103014510D01*
X93626625Y-102993715D01*
X93669473Y-102852239D01*
X93671595Y-102845233D01*
X93682547Y-102668702D01*
X93679890Y-102653236D01*
X93653834Y-102501602D01*
X93653834Y-102501601D01*
X93652594Y-102494386D01*
X93583343Y-102331636D01*
X93579010Y-102325748D01*
X93579007Y-102325743D01*
X93493620Y-102209717D01*
X93478508Y-102189182D01*
X93472930Y-102184443D01*
X93472927Y-102184440D01*
X93349294Y-102079406D01*
X93349290Y-102079403D01*
X93343715Y-102074667D01*
X93253303Y-102028500D01*
X93192708Y-101997558D01*
X93192706Y-101997557D01*
X93186192Y-101994231D01*
X93179087Y-101992492D01*
X93179083Y-101992491D01*
X93089680Y-101970615D01*
X93014390Y-101952192D01*
X93008788Y-101951844D01*
X93008785Y-101951844D01*
X93005175Y-101951620D01*
X93005165Y-101951620D01*
X93003236Y-101951500D01*
X92246371Y-101951500D01*
X92178250Y-101931498D01*
X92157276Y-101914595D01*
X91235405Y-100992724D01*
X91201379Y-100930412D01*
X91198500Y-100903629D01*
X91198500Y-99597069D01*
X91199933Y-99578118D01*
X91200180Y-99576498D01*
X91203199Y-99556651D01*
X91202534Y-99548469D01*
X91198915Y-99503982D01*
X91198500Y-99493767D01*
X91198500Y-99485707D01*
X91196160Y-99465637D01*
X91195211Y-99457493D01*
X91194778Y-99453118D01*
X91189454Y-99387661D01*
X91189453Y-99387658D01*
X91188860Y-99380363D01*
X91186604Y-99373399D01*
X91185413Y-99367440D01*
X91184029Y-99361585D01*
X91183182Y-99354319D01*
X91158265Y-99285673D01*
X91156848Y-99281545D01*
X91136607Y-99219064D01*
X91136606Y-99219062D01*
X91134351Y-99212101D01*
X91130555Y-99205846D01*
X91128049Y-99200372D01*
X91125330Y-99194942D01*
X91122833Y-99188063D01*
X91082809Y-99127016D01*
X91080472Y-99123312D01*
X91045509Y-99065693D01*
X91045505Y-99065688D01*
X91042595Y-99060892D01*
X91035197Y-99052516D01*
X91035223Y-99052493D01*
X91032574Y-99049503D01*
X91029866Y-99046264D01*
X91025856Y-99040148D01*
X91020549Y-99035121D01*
X91020546Y-99035117D01*
X90969617Y-98986872D01*
X90967175Y-98984494D01*
X90912014Y-98929333D01*
X90877988Y-98867021D01*
X90883053Y-98796206D01*
X90928837Y-98737026D01*
X90939786Y-98729359D01*
X90939788Y-98729357D01*
X90944300Y-98726198D01*
X91106198Y-98564300D01*
X91109357Y-98559789D01*
X91112892Y-98555576D01*
X91114026Y-98556527D01*
X91164071Y-98516529D01*
X91234690Y-98509224D01*
X91298049Y-98541258D01*
X91334030Y-98602462D01*
X91337082Y-98619517D01*
X91338255Y-98630316D01*
X91389385Y-98766705D01*
X91476739Y-98883261D01*
X91593295Y-98970615D01*
X91729684Y-99021745D01*
X91791866Y-99028500D01*
X93488134Y-99028500D01*
X93550316Y-99021745D01*
X93686705Y-98970615D01*
X93803261Y-98883261D01*
X93890615Y-98766705D01*
X93941745Y-98630316D01*
X93948500Y-98568134D01*
X93948500Y-96871866D01*
X93941745Y-96809684D01*
X93890615Y-96673295D01*
X93803261Y-96556739D01*
X93686705Y-96469385D01*
X93550316Y-96418255D01*
X93488134Y-96411500D01*
X91791866Y-96411500D01*
X91729684Y-96418255D01*
X91593295Y-96469385D01*
X91476739Y-96556739D01*
X91389385Y-96673295D01*
X91338255Y-96809684D01*
X91337083Y-96820474D01*
X91336197Y-96822606D01*
X91335575Y-96825222D01*
X91335152Y-96825121D01*
X91309845Y-96886035D01*
X91251483Y-96926463D01*
X91180529Y-96928922D01*
X91119510Y-96892629D01*
X91112511Y-96883969D01*
X91109354Y-96880207D01*
X91106198Y-96875700D01*
X90944300Y-96713802D01*
X90939792Y-96710645D01*
X90939789Y-96710643D01*
X90861611Y-96655902D01*
X90756749Y-96582477D01*
X90751767Y-96580154D01*
X90751762Y-96580151D01*
X90554225Y-96488039D01*
X90554224Y-96488039D01*
X90549243Y-96485716D01*
X90543935Y-96484294D01*
X90543933Y-96484293D01*
X90333402Y-96427881D01*
X90333400Y-96427881D01*
X90328087Y-96426457D01*
X90100000Y-96406502D01*
X89871913Y-96426457D01*
X89866600Y-96427881D01*
X89866598Y-96427881D01*
X89656067Y-96484293D01*
X89656065Y-96484294D01*
X89650757Y-96485716D01*
X89645776Y-96488039D01*
X89645775Y-96488039D01*
X89448238Y-96580151D01*
X89448233Y-96580154D01*
X89443251Y-96582477D01*
X89338389Y-96655902D01*
X89260211Y-96710643D01*
X89260208Y-96710645D01*
X89255700Y-96713802D01*
X89093802Y-96875700D01*
X88962477Y-97063251D01*
X88960154Y-97068233D01*
X88960151Y-97068238D01*
X88944195Y-97102457D01*
X88897278Y-97155742D01*
X88829001Y-97175203D01*
X88761041Y-97154661D01*
X88715805Y-97102457D01*
X88699849Y-97068238D01*
X88699846Y-97068233D01*
X88697523Y-97063251D01*
X88566198Y-96875700D01*
X88404300Y-96713802D01*
X88399792Y-96710645D01*
X88399789Y-96710643D01*
X88321611Y-96655902D01*
X88216749Y-96582477D01*
X88211767Y-96580154D01*
X88211762Y-96580151D01*
X88014225Y-96488039D01*
X88014224Y-96488039D01*
X88009243Y-96485716D01*
X88003935Y-96484294D01*
X88003933Y-96484293D01*
X87793402Y-96427881D01*
X87793400Y-96427881D01*
X87788087Y-96426457D01*
X87560000Y-96406502D01*
X87331913Y-96426457D01*
X87326600Y-96427881D01*
X87326598Y-96427881D01*
X87116067Y-96484293D01*
X87116065Y-96484294D01*
X87110757Y-96485716D01*
X87105776Y-96488039D01*
X87105775Y-96488039D01*
X86908238Y-96580151D01*
X86908233Y-96580154D01*
X86903251Y-96582477D01*
X86798389Y-96655902D01*
X86720211Y-96710643D01*
X86720208Y-96710645D01*
X86715700Y-96713802D01*
X86553802Y-96875700D01*
X86422477Y-97063251D01*
X86420154Y-97068233D01*
X86420151Y-97068238D01*
X86404195Y-97102457D01*
X86357278Y-97155742D01*
X86289001Y-97175203D01*
X86221041Y-97154661D01*
X86175805Y-97102457D01*
X86159849Y-97068238D01*
X86159846Y-97068233D01*
X86157523Y-97063251D01*
X86026198Y-96875700D01*
X85864300Y-96713802D01*
X85859792Y-96710645D01*
X85859789Y-96710643D01*
X85781611Y-96655902D01*
X85676749Y-96582477D01*
X85671767Y-96580154D01*
X85671762Y-96580151D01*
X85474225Y-96488039D01*
X85474224Y-96488039D01*
X85469243Y-96485716D01*
X85463935Y-96484294D01*
X85463933Y-96484293D01*
X85253402Y-96427881D01*
X85253400Y-96427881D01*
X85248087Y-96426457D01*
X85020000Y-96406502D01*
X84791913Y-96426457D01*
X84786600Y-96427881D01*
X84786598Y-96427881D01*
X84576067Y-96484293D01*
X84576065Y-96484294D01*
X84570757Y-96485716D01*
X84565776Y-96488039D01*
X84565775Y-96488039D01*
X84368238Y-96580151D01*
X84368233Y-96580154D01*
X84363251Y-96582477D01*
X84258389Y-96655902D01*
X84180211Y-96710643D01*
X84180208Y-96710645D01*
X84175700Y-96713802D01*
X84013802Y-96875700D01*
X83882477Y-97063251D01*
X83880154Y-97068233D01*
X83880151Y-97068238D01*
X83864195Y-97102457D01*
X83785716Y-97270757D01*
X83726457Y-97491913D01*
X83706502Y-97720000D01*
X83726457Y-97948087D01*
X83727881Y-97953400D01*
X83727881Y-97953402D01*
X83760761Y-98076109D01*
X83785716Y-98169243D01*
X83788039Y-98174224D01*
X83788039Y-98174225D01*
X83880151Y-98371762D01*
X83880154Y-98371767D01*
X83882477Y-98376749D01*
X83945858Y-98467266D01*
X84010526Y-98559621D01*
X84013802Y-98564300D01*
X84175700Y-98726198D01*
X84180208Y-98729355D01*
X84180214Y-98729359D01*
X84363251Y-98857523D01*
X84368233Y-98859846D01*
X84368238Y-98859849D01*
X84517249Y-98929333D01*
X84570757Y-98954284D01*
X84576065Y-98955706D01*
X84576067Y-98955707D01*
X84786598Y-99012119D01*
X84786600Y-99012119D01*
X84791913Y-99013543D01*
X85020000Y-99033498D01*
X85025475Y-99033019D01*
X85172844Y-99020126D01*
X85242449Y-99034115D01*
X85293442Y-99083515D01*
X85309410Y-99135430D01*
X85321140Y-99279637D01*
X85323394Y-99286596D01*
X85323395Y-99286599D01*
X85373392Y-99440933D01*
X85375649Y-99447899D01*
X85379445Y-99454154D01*
X85379446Y-99454157D01*
X85464496Y-99594314D01*
X85464499Y-99594318D01*
X85467405Y-99599107D01*
X85471114Y-99603306D01*
X85471117Y-99603311D01*
X85473509Y-99606019D01*
X85474803Y-99607484D01*
X85576230Y-99708911D01*
X85588616Y-99723323D01*
X85597149Y-99734918D01*
X85597154Y-99734923D01*
X85601492Y-99740818D01*
X85607070Y-99745557D01*
X85607073Y-99745560D01*
X85641768Y-99775035D01*
X85649284Y-99781965D01*
X85654979Y-99787660D01*
X85657861Y-99789940D01*
X85677251Y-99805281D01*
X85680655Y-99808072D01*
X85730703Y-99850591D01*
X85736285Y-99855333D01*
X85742801Y-99858661D01*
X85747850Y-99862028D01*
X85752979Y-99865195D01*
X85758716Y-99869734D01*
X85824875Y-99900655D01*
X85828769Y-99902558D01*
X85893808Y-99935769D01*
X85900916Y-99937508D01*
X85906559Y-99939607D01*
X85912322Y-99941524D01*
X85918950Y-99944622D01*
X85926112Y-99946112D01*
X85926113Y-99946112D01*
X85990412Y-99959486D01*
X85994696Y-99960456D01*
X86065610Y-99977808D01*
X86071212Y-99978156D01*
X86071215Y-99978156D01*
X86076764Y-99978500D01*
X86076762Y-99978536D01*
X86080755Y-99978775D01*
X86084947Y-99979149D01*
X86092115Y-99980640D01*
X86169520Y-99978546D01*
X86172928Y-99978500D01*
X89555500Y-99978500D01*
X89623621Y-99998502D01*
X89670114Y-100052158D01*
X89681500Y-100104500D01*
X89681500Y-101202930D01*
X89680067Y-101221880D01*
X89676801Y-101243349D01*
X89677394Y-101250641D01*
X89677394Y-101250644D01*
X89681085Y-101296018D01*
X89681500Y-101306233D01*
X89681500Y-101314293D01*
X89681925Y-101317937D01*
X89684789Y-101342507D01*
X89685222Y-101346882D01*
X89690320Y-101409552D01*
X89691140Y-101419637D01*
X89693396Y-101426601D01*
X89694587Y-101432560D01*
X89695971Y-101438415D01*
X89696818Y-101445681D01*
X89721735Y-101514327D01*
X89723152Y-101518455D01*
X89734307Y-101552887D01*
X89745649Y-101587899D01*
X89749445Y-101594154D01*
X89751951Y-101599628D01*
X89754670Y-101605058D01*
X89757167Y-101611937D01*
X89761180Y-101618057D01*
X89761180Y-101618058D01*
X89797186Y-101672976D01*
X89799523Y-101676680D01*
X89837405Y-101739107D01*
X89841121Y-101743315D01*
X89841122Y-101743316D01*
X89844803Y-101747484D01*
X89844776Y-101747508D01*
X89847429Y-101750500D01*
X89850132Y-101753733D01*
X89854144Y-101759852D01*
X89859456Y-101764884D01*
X89910383Y-101813128D01*
X89912825Y-101815506D01*
X91168724Y-103071405D01*
X91202750Y-103133717D01*
X91197685Y-103204532D01*
X91155138Y-103261368D01*
X91088618Y-103286179D01*
X91079629Y-103286500D01*
X89148273Y-103286500D01*
X89080152Y-103266498D01*
X89033659Y-103212842D01*
X89023058Y-103174543D01*
X89022411Y-103168770D01*
X89019798Y-103145477D01*
X89013998Y-103128820D01*
X88978907Y-103028054D01*
X88965680Y-102990071D01*
X88961943Y-102984090D01*
X88952646Y-102969211D01*
X88933500Y-102902442D01*
X88933500Y-102035443D01*
X88954552Y-101965716D01*
X89022614Y-101863275D01*
X89022615Y-101863273D01*
X89026515Y-101857403D01*
X89084951Y-101703568D01*
X89093921Y-101639739D01*
X89107302Y-101544534D01*
X89107303Y-101544527D01*
X89107853Y-101540610D01*
X89108065Y-101525458D01*
X89108086Y-101523962D01*
X89108086Y-101523956D01*
X89108141Y-101520000D01*
X89089798Y-101356466D01*
X89083998Y-101339809D01*
X89052947Y-101250644D01*
X89035680Y-101201060D01*
X88991086Y-101129694D01*
X88952209Y-101067479D01*
X88948476Y-101061505D01*
X88861008Y-100973424D01*
X88837486Y-100949737D01*
X88837482Y-100949734D01*
X88832522Y-100944739D01*
X88693580Y-100856563D01*
X88551218Y-100805870D01*
X88545189Y-100803723D01*
X88545187Y-100803722D01*
X88538555Y-100801361D01*
X88531569Y-100800528D01*
X88531565Y-100800527D01*
X88417071Y-100786875D01*
X88375153Y-100781877D01*
X88368150Y-100782613D01*
X88368149Y-100782613D01*
X88324935Y-100787155D01*
X88211495Y-100799078D01*
X88204827Y-100801348D01*
X88062382Y-100849840D01*
X88062379Y-100849841D01*
X88055715Y-100852110D01*
X87915555Y-100938337D01*
X87797982Y-101053473D01*
X87708838Y-101191797D01*
X87706427Y-101198420D01*
X87706426Y-101198423D01*
X87654966Y-101339809D01*
X87654965Y-101339814D01*
X87652556Y-101346432D01*
X87631931Y-101509694D01*
X87647989Y-101673468D01*
X87655632Y-101696443D01*
X87660058Y-101709749D01*
X87666500Y-101749521D01*
X87666500Y-102900802D01*
X87646411Y-102969057D01*
X87638838Y-102980808D01*
X87636427Y-102987431D01*
X87636426Y-102987434D01*
X87584966Y-103128820D01*
X87584965Y-103128825D01*
X87582556Y-103135443D01*
X87577395Y-103176295D01*
X87549015Y-103241368D01*
X87489956Y-103280770D01*
X87452390Y-103286500D01*
X86643594Y-103286500D01*
X86575473Y-103266498D01*
X86528980Y-103212842D01*
X86518876Y-103142568D01*
X86548370Y-103077988D01*
X86554499Y-103071405D01*
X86678199Y-102947705D01*
X86728357Y-102916967D01*
X86813233Y-102889389D01*
X86813235Y-102889388D01*
X86819929Y-102887213D01*
X86961279Y-102802951D01*
X87080449Y-102689468D01*
X87091058Y-102673500D01*
X87167614Y-102558275D01*
X87167615Y-102558273D01*
X87171515Y-102552403D01*
X87229951Y-102398568D01*
X87252853Y-102235610D01*
X87252995Y-102225430D01*
X87253086Y-102218962D01*
X87253086Y-102218956D01*
X87253141Y-102215000D01*
X87234798Y-102051466D01*
X87226801Y-102028500D01*
X87199986Y-101951500D01*
X87180680Y-101896060D01*
X87160063Y-101863065D01*
X87097209Y-101762479D01*
X87093476Y-101756505D01*
X87033832Y-101696443D01*
X86982486Y-101644737D01*
X86982482Y-101644734D01*
X86977522Y-101639739D01*
X86838580Y-101551563D01*
X86765269Y-101525458D01*
X86690189Y-101498723D01*
X86690187Y-101498722D01*
X86683555Y-101496361D01*
X86676569Y-101495528D01*
X86676565Y-101495527D01*
X86562071Y-101481875D01*
X86520153Y-101476877D01*
X86513150Y-101477613D01*
X86513149Y-101477613D01*
X86471049Y-101482038D01*
X86356495Y-101494078D01*
X86349827Y-101496348D01*
X86207382Y-101544840D01*
X86207379Y-101544841D01*
X86200715Y-101547110D01*
X86060555Y-101633337D01*
X85942982Y-101748473D01*
X85853838Y-101886797D01*
X85851429Y-101893417D01*
X85851427Y-101893420D01*
X85809908Y-102007493D01*
X85780602Y-102053493D01*
X81264500Y-106569595D01*
X81202188Y-106603621D01*
X81175405Y-106606500D01*
X80340371Y-106606500D01*
X80272250Y-106586498D01*
X80225757Y-106532842D01*
X80215653Y-106462568D01*
X80245147Y-106397988D01*
X80251276Y-106391405D01*
X83488911Y-103153770D01*
X83503323Y-103141384D01*
X83514918Y-103132851D01*
X83514923Y-103132846D01*
X83520818Y-103128508D01*
X83525557Y-103122930D01*
X83525560Y-103122927D01*
X83555035Y-103088232D01*
X83561965Y-103080716D01*
X83567660Y-103075021D01*
X83585281Y-103052749D01*
X83588072Y-103049345D01*
X83630591Y-102999297D01*
X83630592Y-102999295D01*
X83635333Y-102993715D01*
X83638661Y-102987199D01*
X83642028Y-102982150D01*
X83645195Y-102977021D01*
X83649734Y-102971284D01*
X83680655Y-102905125D01*
X83682561Y-102901225D01*
X83694651Y-102877548D01*
X83715769Y-102836192D01*
X83717508Y-102829084D01*
X83719607Y-102823441D01*
X83721524Y-102817678D01*
X83724622Y-102811050D01*
X83727317Y-102798096D01*
X83733108Y-102770252D01*
X83739487Y-102739583D01*
X83740457Y-102735299D01*
X83743350Y-102723475D01*
X83757808Y-102664390D01*
X83758500Y-102653236D01*
X83758536Y-102653238D01*
X83758775Y-102649245D01*
X83759149Y-102645053D01*
X83760640Y-102637885D01*
X83758546Y-102560479D01*
X83758500Y-102557072D01*
X83758500Y-101115707D01*
X83743182Y-100984319D01*
X83739228Y-100973424D01*
X83685329Y-100824939D01*
X83685329Y-100824938D01*
X83682833Y-100818063D01*
X83673432Y-100803723D01*
X83589868Y-100676267D01*
X83589867Y-100676266D01*
X83585856Y-100670148D01*
X83457453Y-100548510D01*
X83304510Y-100459674D01*
X83297506Y-100457553D01*
X83297502Y-100457551D01*
X83166512Y-100417879D01*
X83135233Y-100408405D01*
X82958702Y-100397453D01*
X82951486Y-100398693D01*
X82951484Y-100398693D01*
X82791602Y-100426166D01*
X82784386Y-100427406D01*
X82621636Y-100496657D01*
X82615748Y-100500990D01*
X82615743Y-100500993D01*
X82537823Y-100558337D01*
X82479182Y-100601492D01*
X82474443Y-100607070D01*
X82474440Y-100607073D01*
X82369406Y-100730706D01*
X82369403Y-100730710D01*
X82364667Y-100736285D01*
X82332979Y-100798342D01*
X82303639Y-100855801D01*
X82284231Y-100893808D01*
X82282492Y-100900913D01*
X82282491Y-100900917D01*
X82275274Y-100930412D01*
X82242192Y-101065610D01*
X82241500Y-101076764D01*
X82241500Y-102203629D01*
X82221498Y-102271750D01*
X82204595Y-102292724D01*
X78872724Y-105624595D01*
X78810412Y-105658621D01*
X78783629Y-105661500D01*
X78195707Y-105661500D01*
X78125964Y-105669631D01*
X78071589Y-105675970D01*
X78071585Y-105675971D01*
X78064319Y-105676818D01*
X78057444Y-105679313D01*
X78057442Y-105679314D01*
X77946684Y-105719518D01*
X77898063Y-105737167D01*
X77891946Y-105741178D01*
X77891943Y-105741179D01*
X77783345Y-105812379D01*
X77750148Y-105834144D01*
X77628510Y-105962547D01*
X77539674Y-106115490D01*
X77537553Y-106122494D01*
X77537551Y-106122498D01*
X77515444Y-106195490D01*
X77488405Y-106284767D01*
X77477453Y-106461298D01*
X77478693Y-106468514D01*
X77478693Y-106468516D01*
X77505052Y-106621915D01*
X77496875Y-106692439D01*
X77469029Y-106733277D01*
X77427982Y-106773473D01*
X77424163Y-106779398D01*
X77424162Y-106779400D01*
X77395664Y-106823621D01*
X77338838Y-106911797D01*
X77336427Y-106918420D01*
X77336426Y-106918423D01*
X77284966Y-107059809D01*
X77284965Y-107059814D01*
X77282556Y-107066432D01*
X77261931Y-107229694D01*
X77277989Y-107393468D01*
X77329932Y-107549615D01*
X77415179Y-107690373D01*
X77529491Y-107808747D01*
X77667189Y-107898854D01*
X77735562Y-107924282D01*
X77792437Y-107966774D01*
X77817311Y-108033270D01*
X77802286Y-108102659D01*
X77752132Y-108152909D01*
X77704816Y-108167688D01*
X77698507Y-108168351D01*
X77698498Y-108168353D01*
X77691495Y-108169089D01*
X77684827Y-108171359D01*
X77542382Y-108219851D01*
X77542379Y-108219852D01*
X77535715Y-108222121D01*
X77457261Y-108270386D01*
X77418117Y-108294468D01*
X77395555Y-108308348D01*
X77337688Y-108365016D01*
X77286937Y-108414715D01*
X77277982Y-108423484D01*
X77188838Y-108561808D01*
X77186427Y-108568431D01*
X77186426Y-108568434D01*
X77134966Y-108709820D01*
X77134965Y-108709825D01*
X77132556Y-108716443D01*
X77111931Y-108879705D01*
X77127989Y-109043479D01*
X77179932Y-109199626D01*
X77187579Y-109212253D01*
X77239849Y-109298559D01*
X77265179Y-109340384D01*
X77270070Y-109345449D01*
X77270071Y-109345450D01*
X77281417Y-109357199D01*
X77379491Y-109458758D01*
X77517189Y-109548865D01*
X77523793Y-109551321D01*
X77523795Y-109551322D01*
X77643901Y-109595989D01*
X77689076Y-109624991D01*
X81996332Y-113932247D01*
X82003876Y-113940537D01*
X82007989Y-113947018D01*
X82013766Y-113952443D01*
X82057656Y-113993658D01*
X82060498Y-113996413D01*
X82080220Y-114016135D01*
X82083344Y-114018558D01*
X82083348Y-114018562D01*
X82083413Y-114018612D01*
X82092434Y-114026317D01*
X82124668Y-114056586D01*
X82131616Y-114060405D01*
X82131618Y-114060407D01*
X82142421Y-114066346D01*
X82158948Y-114077202D01*
X82168687Y-114084757D01*
X82168689Y-114084758D01*
X82174949Y-114089614D01*
X82215529Y-114107174D01*
X82226177Y-114112391D01*
X82264929Y-114133695D01*
X82272605Y-114135666D01*
X82272608Y-114135667D01*
X82284551Y-114138733D01*
X82303256Y-114145137D01*
X82321844Y-114153181D01*
X82329667Y-114154420D01*
X82329677Y-114154423D01*
X82365513Y-114160099D01*
X82377133Y-114162505D01*
X82412278Y-114171528D01*
X82419959Y-114173500D01*
X82440213Y-114173500D01*
X82459923Y-114175051D01*
X82479932Y-114178220D01*
X82487824Y-114177474D01*
X82523950Y-114174059D01*
X82535808Y-114173500D01*
X87039114Y-114173500D01*
X87107235Y-114193502D01*
X87153728Y-114247158D01*
X87163832Y-114317432D01*
X87134338Y-114382012D01*
X87074612Y-114420396D01*
X87050097Y-114425020D01*
X73844577Y-115580503D01*
X73774972Y-115566515D01*
X73723979Y-115517117D01*
X73707594Y-115454983D01*
X73707594Y-92838777D01*
X73727596Y-92770656D01*
X73781252Y-92724163D01*
X73844577Y-92713257D01*
X105594131Y-95491343D01*
G37*
G04 #@! TD.AperFunction*
G04 #@! TA.AperFunction,Conductor*
G36*
X106483996Y-101500465D02*
G01*
X106507818Y-101529147D01*
X106519961Y-101549198D01*
X106550336Y-101599352D01*
X106575179Y-101640373D01*
X106689491Y-101758747D01*
X106827189Y-101848854D01*
X106981428Y-101906215D01*
X106988409Y-101907146D01*
X106988411Y-101907147D01*
X107137561Y-101927048D01*
X107137565Y-101927048D01*
X107144542Y-101927979D01*
X107151556Y-101927341D01*
X107158599Y-101927488D01*
X107158549Y-101929874D01*
X107217213Y-101941459D01*
X107268371Y-101990686D01*
X107284228Y-102066793D01*
X107281869Y-102088509D01*
X107281500Y-102095328D01*
X107281500Y-102192885D01*
X107285975Y-102208124D01*
X107287365Y-102209329D01*
X107295048Y-102211000D01*
X109736500Y-102211000D01*
X109804621Y-102231002D01*
X109851114Y-102284658D01*
X109862500Y-102337000D01*
X109862500Y-102337885D01*
X109866975Y-102353124D01*
X109868365Y-102354329D01*
X109876048Y-102356000D01*
X112343000Y-102356000D01*
X112411121Y-102376002D01*
X112457614Y-102429658D01*
X112469000Y-102482000D01*
X112469000Y-103574885D01*
X112473475Y-103590124D01*
X112474865Y-103591329D01*
X112482548Y-103593000D01*
X112485438Y-103593000D01*
X112491953Y-103592663D01*
X112552589Y-103586371D01*
X112622411Y-103599235D01*
X112674193Y-103647806D01*
X112691594Y-103711698D01*
X112691594Y-112065933D01*
X112671592Y-112134054D01*
X112617936Y-112180547D01*
X112576577Y-112191453D01*
X95872541Y-113653056D01*
X95802936Y-113639068D01*
X95751943Y-113589670D01*
X95735752Y-113520544D01*
X95759504Y-113453638D01*
X95772463Y-113438441D01*
X96970499Y-112240405D01*
X97032811Y-112206379D01*
X97059594Y-112203500D01*
X97333614Y-112203499D01*
X97351634Y-112203499D01*
X97354492Y-112203236D01*
X97354501Y-112203236D01*
X97393823Y-112199623D01*
X97425062Y-112196753D01*
X97441974Y-112191453D01*
X97581450Y-112147744D01*
X97581452Y-112147743D01*
X97588699Y-112145472D01*
X97735381Y-112056639D01*
X97856639Y-111935381D01*
X97945472Y-111788699D01*
X97996753Y-111625062D01*
X98003500Y-111551635D01*
X98003499Y-110888366D01*
X98001853Y-110870443D01*
X97998561Y-110834622D01*
X97996753Y-110814938D01*
X97954446Y-110679936D01*
X97947744Y-110658550D01*
X97947743Y-110658548D01*
X97945472Y-110651301D01*
X97856639Y-110504619D01*
X97735381Y-110383361D01*
X97588699Y-110294528D01*
X97581452Y-110292257D01*
X97581450Y-110292256D01*
X97510641Y-110270066D01*
X97425062Y-110243247D01*
X97351635Y-110236500D01*
X97333527Y-110236500D01*
X97059595Y-110236501D01*
X96991476Y-110216499D01*
X96970501Y-110199596D01*
X96928340Y-110157435D01*
X96894314Y-110095123D01*
X96899379Y-110024308D01*
X96916609Y-109992775D01*
X96944395Y-109955700D01*
X96981115Y-109906705D01*
X97032245Y-109770316D01*
X97039000Y-109708134D01*
X97039000Y-109449594D01*
X97059002Y-109381473D01*
X97075905Y-109360499D01*
X99292247Y-107144157D01*
X99300537Y-107136613D01*
X99307018Y-107132500D01*
X99353659Y-107082832D01*
X99356413Y-107079991D01*
X99376134Y-107060270D01*
X99378612Y-107057075D01*
X99386318Y-107048053D01*
X99403271Y-107030000D01*
X99416586Y-107015821D01*
X99426346Y-106998068D01*
X99437199Y-106981545D01*
X99444753Y-106971806D01*
X99449613Y-106965541D01*
X99467176Y-106924957D01*
X99472383Y-106914327D01*
X99493695Y-106875560D01*
X99495666Y-106867883D01*
X99495668Y-106867878D01*
X99498732Y-106855942D01*
X99505138Y-106837230D01*
X99510034Y-106825917D01*
X99513181Y-106818645D01*
X99518215Y-106786866D01*
X99520097Y-106774981D01*
X99522504Y-106763360D01*
X99531528Y-106728211D01*
X99531528Y-106728210D01*
X99533500Y-106720530D01*
X99533500Y-106700269D01*
X99535051Y-106680558D01*
X99535057Y-106680524D01*
X99538219Y-106660557D01*
X99534059Y-106616546D01*
X99533500Y-106604689D01*
X99533500Y-106184594D01*
X99553502Y-106116473D01*
X99570405Y-106095499D01*
X99729185Y-105936719D01*
X99791497Y-105902693D01*
X99862312Y-105907758D01*
X99919148Y-105950305D01*
X99936262Y-105981584D01*
X99976177Y-106088058D01*
X99982149Y-106098965D01*
X99997318Y-106168322D01*
X99982653Y-106218268D01*
X99978885Y-106223295D01*
X99975736Y-106231696D01*
X99975734Y-106231699D01*
X99957906Y-106279256D01*
X99927755Y-106359684D01*
X99921000Y-106421866D01*
X99921000Y-107168134D01*
X99927755Y-107230316D01*
X99978885Y-107366705D01*
X99982227Y-107371164D01*
X99997030Y-107438848D01*
X99982433Y-107488561D01*
X99978885Y-107493295D01*
X99975736Y-107501696D01*
X99975734Y-107501699D01*
X99955513Y-107555640D01*
X99927755Y-107629684D01*
X99921000Y-107691866D01*
X99921000Y-108438134D01*
X99927755Y-108500316D01*
X99930529Y-108507715D01*
X99966143Y-108602715D01*
X99978885Y-108636705D01*
X99982227Y-108641164D01*
X99997030Y-108708848D01*
X99982433Y-108758561D01*
X99978885Y-108763295D01*
X99927755Y-108899684D01*
X99921000Y-108961866D01*
X99921000Y-109708134D01*
X99927755Y-109770316D01*
X99978885Y-109906705D01*
X100066239Y-110023261D01*
X100182795Y-110110615D01*
X100319184Y-110161745D01*
X100381366Y-110168500D01*
X102002634Y-110168500D01*
X102064816Y-110161745D01*
X102072212Y-110158973D01*
X102072218Y-110158971D01*
X102173329Y-110121066D01*
X102244136Y-110115883D01*
X102306505Y-110149804D01*
X102340178Y-110210061D01*
X102340971Y-110213417D01*
X102341818Y-110220681D01*
X102344313Y-110227554D01*
X102344313Y-110227555D01*
X102347107Y-110235253D01*
X102366735Y-110289327D01*
X102368152Y-110293455D01*
X102385102Y-110345775D01*
X102390649Y-110362899D01*
X102394445Y-110369154D01*
X102396951Y-110374628D01*
X102399670Y-110380058D01*
X102402167Y-110386937D01*
X102406180Y-110393057D01*
X102406180Y-110393058D01*
X102442186Y-110447976D01*
X102444523Y-110451680D01*
X102482405Y-110514107D01*
X102486121Y-110518315D01*
X102486122Y-110518316D01*
X102489803Y-110522484D01*
X102489776Y-110522508D01*
X102492429Y-110525500D01*
X102495132Y-110528733D01*
X102499144Y-110534852D01*
X102538266Y-110571913D01*
X102555383Y-110588128D01*
X102557825Y-110590506D01*
X102644979Y-110677660D01*
X102748716Y-110759734D01*
X102755347Y-110762833D01*
X102755350Y-110762835D01*
X102902318Y-110831523D01*
X102902322Y-110831524D01*
X102908950Y-110834622D01*
X103082115Y-110870641D01*
X103183431Y-110867900D01*
X103251606Y-110866055D01*
X103251607Y-110866055D01*
X103258921Y-110865857D01*
X103300683Y-110854784D01*
X103422802Y-110822404D01*
X103422804Y-110822403D01*
X103429884Y-110820526D01*
X103452249Y-110808559D01*
X103579374Y-110740539D01*
X103579377Y-110740537D01*
X103585834Y-110737082D01*
X103591322Y-110732235D01*
X103591325Y-110732233D01*
X103682962Y-110651301D01*
X103718404Y-110620000D01*
X103820484Y-110475560D01*
X103823219Y-110468774D01*
X103823221Y-110468770D01*
X103870781Y-110350757D01*
X103886598Y-110311511D01*
X103895459Y-110253267D01*
X103907071Y-110176935D01*
X103937091Y-110112597D01*
X103997129Y-110074703D01*
X104068123Y-110075283D01*
X104084826Y-110082811D01*
X104085246Y-110081911D01*
X104105061Y-110091151D01*
X104253814Y-110140491D01*
X104267190Y-110143358D01*
X104358097Y-110152672D01*
X104363126Y-110152929D01*
X104378124Y-110148525D01*
X104379329Y-110147135D01*
X104381000Y-110139452D01*
X104381000Y-110134885D01*
X104889000Y-110134885D01*
X104893475Y-110150124D01*
X104894865Y-110151329D01*
X104902548Y-110153000D01*
X104905438Y-110153000D01*
X104911953Y-110152663D01*
X105004057Y-110143106D01*
X105017456Y-110140212D01*
X105166107Y-110090619D01*
X105179286Y-110084445D01*
X105312173Y-110002212D01*
X105323574Y-109993176D01*
X105433986Y-109882571D01*
X105442998Y-109871160D01*
X105525004Y-109738120D01*
X105531151Y-109724939D01*
X105580491Y-109576186D01*
X105583358Y-109562810D01*
X105592672Y-109471903D01*
X105593000Y-109465487D01*
X105593000Y-109442115D01*
X105588525Y-109426876D01*
X105587135Y-109425671D01*
X105579452Y-109424000D01*
X104907115Y-109424000D01*
X104891876Y-109428475D01*
X104890671Y-109429865D01*
X104889000Y-109437548D01*
X104889000Y-110134885D01*
X104381000Y-110134885D01*
X104381000Y-109042000D01*
X104401002Y-108973879D01*
X104454658Y-108927386D01*
X104507000Y-108916000D01*
X105574885Y-108916000D01*
X105621832Y-108902215D01*
X105628192Y-108898127D01*
X105663701Y-108893020D01*
X107109485Y-108893020D01*
X107177606Y-108913022D01*
X107185037Y-108918184D01*
X107208295Y-108935615D01*
X107344684Y-108986745D01*
X107406866Y-108993500D01*
X109153134Y-108993500D01*
X109215316Y-108986745D01*
X109351705Y-108935615D01*
X109468261Y-108848261D01*
X109555615Y-108731705D01*
X109606745Y-108595316D01*
X109613500Y-108533134D01*
X109613500Y-108149974D01*
X109633502Y-108081853D01*
X109687158Y-108035360D01*
X109757432Y-108025256D01*
X109822012Y-108054750D01*
X109851162Y-108091599D01*
X109929999Y-108242400D01*
X110060071Y-108404177D01*
X110064788Y-108408135D01*
X110064790Y-108408137D01*
X110151994Y-108481310D01*
X110219089Y-108537609D01*
X110224481Y-108540573D01*
X110224485Y-108540576D01*
X110395598Y-108634646D01*
X110400995Y-108637613D01*
X110598861Y-108700379D01*
X110604978Y-108701065D01*
X110604982Y-108701066D01*
X110681598Y-108709659D01*
X110760413Y-108718500D01*
X110872237Y-108718500D01*
X110875293Y-108718200D01*
X110875300Y-108718200D01*
X111020466Y-108703966D01*
X111020469Y-108703965D01*
X111026592Y-108703365D01*
X111158546Y-108663526D01*
X111219407Y-108645152D01*
X111219410Y-108645151D01*
X111225315Y-108643368D01*
X111230762Y-108640472D01*
X111403153Y-108548809D01*
X111403155Y-108548808D01*
X111408599Y-108545913D01*
X111490822Y-108478854D01*
X111564689Y-108418610D01*
X111564692Y-108418607D01*
X111569464Y-108414715D01*
X111595140Y-108383679D01*
X111697855Y-108259518D01*
X111701783Y-108254770D01*
X111705876Y-108247201D01*
X111797584Y-108077590D01*
X111797586Y-108077585D01*
X111800514Y-108072170D01*
X111861898Y-107873871D01*
X111868743Y-107808747D01*
X111882952Y-107673554D01*
X111882952Y-107673552D01*
X111883596Y-107667425D01*
X111864782Y-107460697D01*
X111860495Y-107446129D01*
X111807912Y-107267469D01*
X111806173Y-107261560D01*
X111710001Y-107077600D01*
X111691456Y-107054534D01*
X111614053Y-106958265D01*
X111579929Y-106915823D01*
X111568068Y-106905870D01*
X111425629Y-106786350D01*
X111420911Y-106782391D01*
X111415519Y-106779427D01*
X111415515Y-106779424D01*
X111244402Y-106685354D01*
X111239005Y-106682387D01*
X111041139Y-106619621D01*
X111035022Y-106618935D01*
X111035018Y-106618934D01*
X110958402Y-106610341D01*
X110879587Y-106601500D01*
X110767763Y-106601500D01*
X110764707Y-106601800D01*
X110764700Y-106601800D01*
X110619534Y-106616034D01*
X110619531Y-106616035D01*
X110613408Y-106616635D01*
X110494069Y-106652665D01*
X110420593Y-106674848D01*
X110420590Y-106674849D01*
X110414685Y-106676632D01*
X110409240Y-106679527D01*
X110409238Y-106679528D01*
X110236847Y-106771191D01*
X110236845Y-106771192D01*
X110231401Y-106774087D01*
X110211543Y-106790283D01*
X110075311Y-106901390D01*
X110075308Y-106901393D01*
X110070536Y-106905285D01*
X110066608Y-106910033D01*
X110066607Y-106910034D01*
X110015505Y-106971806D01*
X109938217Y-107065230D01*
X109850336Y-107227764D01*
X109800341Y-107278172D01*
X109731030Y-107293550D01*
X109664408Y-107269014D01*
X109621627Y-107212354D01*
X109613500Y-107167835D01*
X109613500Y-106786866D01*
X109606745Y-106724684D01*
X109555615Y-106588295D01*
X109468261Y-106471739D01*
X109351705Y-106384385D01*
X109299374Y-106364767D01*
X109222711Y-106336027D01*
X109222709Y-106336027D01*
X109215316Y-106333255D01*
X109215660Y-106332339D01*
X109160046Y-106300566D01*
X109127228Y-106237610D01*
X109133655Y-106166905D01*
X109161746Y-106124108D01*
X109305422Y-105980432D01*
X109313513Y-105968878D01*
X109436099Y-105793806D01*
X109436100Y-105793804D01*
X109439256Y-105789297D01*
X109441579Y-105784315D01*
X109441582Y-105784310D01*
X109535544Y-105582808D01*
X109535545Y-105582806D01*
X109537867Y-105577826D01*
X109555697Y-105511284D01*
X109571219Y-105453355D01*
X109608171Y-105392733D01*
X109672032Y-105361711D01*
X109742526Y-105370140D01*
X109797273Y-105415343D01*
X109813800Y-105450393D01*
X109829054Y-105502221D01*
X109833827Y-105518440D01*
X109929999Y-105702400D01*
X110060071Y-105864177D01*
X110064788Y-105868135D01*
X110064790Y-105868137D01*
X110107509Y-105903982D01*
X110219089Y-105997609D01*
X110224481Y-106000573D01*
X110224485Y-106000576D01*
X110389879Y-106091502D01*
X110400995Y-106097613D01*
X110598861Y-106160379D01*
X110604978Y-106161065D01*
X110604982Y-106161066D01*
X110681598Y-106169659D01*
X110760413Y-106178500D01*
X110872237Y-106178500D01*
X110875293Y-106178200D01*
X110875300Y-106178200D01*
X111020466Y-106163966D01*
X111020469Y-106163965D01*
X111026592Y-106163365D01*
X111161952Y-106122498D01*
X111219407Y-106105152D01*
X111219410Y-106105151D01*
X111225315Y-106103368D01*
X111230762Y-106100472D01*
X111403153Y-106008809D01*
X111403155Y-106008808D01*
X111408599Y-106005913D01*
X111492803Y-105937238D01*
X111564689Y-105878610D01*
X111564692Y-105878607D01*
X111569464Y-105874715D01*
X111582902Y-105858472D01*
X111697855Y-105719518D01*
X111701783Y-105714770D01*
X111706881Y-105705342D01*
X111797584Y-105537590D01*
X111797586Y-105537585D01*
X111800514Y-105532170D01*
X111861898Y-105333871D01*
X111863432Y-105319274D01*
X111882952Y-105133554D01*
X111882952Y-105133552D01*
X111883596Y-105127425D01*
X111872489Y-105005381D01*
X111865341Y-104926836D01*
X111865340Y-104926833D01*
X111864782Y-104920697D01*
X111860495Y-104906129D01*
X111814362Y-104749385D01*
X111806173Y-104721560D01*
X111710001Y-104537600D01*
X111579929Y-104375823D01*
X111567371Y-104365285D01*
X111425629Y-104246350D01*
X111420911Y-104242391D01*
X111415519Y-104239427D01*
X111415515Y-104239424D01*
X111244402Y-104145354D01*
X111239005Y-104142387D01*
X111041139Y-104079621D01*
X111035022Y-104078935D01*
X111035018Y-104078934D01*
X110958402Y-104070341D01*
X110879587Y-104061500D01*
X110767763Y-104061500D01*
X110764707Y-104061800D01*
X110764700Y-104061800D01*
X110619534Y-104076034D01*
X110619531Y-104076035D01*
X110613408Y-104076635D01*
X110481454Y-104116474D01*
X110420593Y-104134848D01*
X110420590Y-104134849D01*
X110414685Y-104136632D01*
X110409240Y-104139527D01*
X110409238Y-104139528D01*
X110236847Y-104231191D01*
X110236845Y-104231192D01*
X110231401Y-104234087D01*
X110200158Y-104259568D01*
X110075311Y-104361390D01*
X110075308Y-104361393D01*
X110070536Y-104365285D01*
X110066608Y-104370033D01*
X110066607Y-104370034D01*
X109995746Y-104455690D01*
X109938217Y-104525230D01*
X109935288Y-104530647D01*
X109935286Y-104530650D01*
X109842416Y-104702410D01*
X109842414Y-104702415D01*
X109839486Y-104707830D01*
X109833407Y-104727469D01*
X109813457Y-104791915D01*
X109774205Y-104851074D01*
X109709200Y-104879621D01*
X109639081Y-104868492D01*
X109586111Y-104821220D01*
X109571385Y-104787266D01*
X109569526Y-104780326D01*
X109539815Y-104669444D01*
X109539290Y-104667484D01*
X109539289Y-104667482D01*
X109537867Y-104662174D01*
X109521539Y-104627158D01*
X109441582Y-104455690D01*
X109441579Y-104455685D01*
X109439256Y-104450703D01*
X109379446Y-104365285D01*
X109308581Y-104264079D01*
X109308579Y-104264076D01*
X109305422Y-104259568D01*
X109140432Y-104094578D01*
X109135924Y-104091421D01*
X109135921Y-104091419D01*
X108953806Y-103963901D01*
X108953804Y-103963900D01*
X108949297Y-103960744D01*
X108944315Y-103958421D01*
X108944310Y-103958418D01*
X108742808Y-103864456D01*
X108742806Y-103864455D01*
X108737826Y-103862133D01*
X108732518Y-103860711D01*
X108732516Y-103860710D01*
X108517759Y-103803166D01*
X108517757Y-103803166D01*
X108512444Y-103801742D01*
X108280000Y-103781406D01*
X108047556Y-103801742D01*
X108042243Y-103803166D01*
X108042241Y-103803166D01*
X107827484Y-103860710D01*
X107827482Y-103860711D01*
X107822174Y-103862133D01*
X107817194Y-103864455D01*
X107817192Y-103864456D01*
X107615690Y-103958418D01*
X107615685Y-103958421D01*
X107610703Y-103960744D01*
X107606196Y-103963900D01*
X107606194Y-103963901D01*
X107424079Y-104091419D01*
X107424076Y-104091421D01*
X107419568Y-104094578D01*
X107254578Y-104259568D01*
X107251421Y-104264076D01*
X107251419Y-104264079D01*
X107180554Y-104365285D01*
X107120744Y-104450703D01*
X107118421Y-104455685D01*
X107118418Y-104455690D01*
X107038461Y-104627158D01*
X107022133Y-104662174D01*
X107020711Y-104667482D01*
X107020710Y-104667484D01*
X106969474Y-104858699D01*
X106961742Y-104887556D01*
X106941406Y-105120000D01*
X106961742Y-105352444D01*
X106963166Y-105357757D01*
X106963166Y-105357759D01*
X106983047Y-105431955D01*
X106981357Y-105502931D01*
X106950435Y-105553661D01*
X106325988Y-106178107D01*
X105714500Y-106789595D01*
X105652188Y-106823621D01*
X105625405Y-106826500D01*
X105550499Y-106826500D01*
X105482378Y-106806498D01*
X105443356Y-106766805D01*
X105437605Y-106757512D01*
X105437601Y-106757507D01*
X105433752Y-106751287D01*
X105312702Y-106630448D01*
X105298160Y-106621484D01*
X105173331Y-106544538D01*
X105173329Y-106544537D01*
X105167101Y-106540698D01*
X105004757Y-106486851D01*
X104997920Y-106486151D01*
X104997918Y-106486150D01*
X104956599Y-106481917D01*
X104903732Y-106476500D01*
X104834595Y-106476500D01*
X104766474Y-106456498D01*
X104745499Y-106439595D01*
X104585161Y-106279256D01*
X104403647Y-106097742D01*
X104396113Y-106089463D01*
X104392000Y-106082982D01*
X104342348Y-106036356D01*
X104339507Y-106033602D01*
X104319770Y-106013865D01*
X104316573Y-106011385D01*
X104307551Y-106003680D01*
X104281100Y-105978841D01*
X104275321Y-105973414D01*
X104268375Y-105969595D01*
X104268372Y-105969593D01*
X104257566Y-105963652D01*
X104241047Y-105952801D01*
X104237829Y-105950305D01*
X104225041Y-105940386D01*
X104217772Y-105937241D01*
X104217768Y-105937238D01*
X104184463Y-105922826D01*
X104173813Y-105917609D01*
X104135060Y-105896305D01*
X104115437Y-105891267D01*
X104096734Y-105884863D01*
X104085420Y-105879967D01*
X104085419Y-105879967D01*
X104078145Y-105876819D01*
X104070322Y-105875580D01*
X104070312Y-105875577D01*
X104034476Y-105869901D01*
X104022856Y-105867495D01*
X103987711Y-105858472D01*
X103987710Y-105858472D01*
X103980030Y-105856500D01*
X103959776Y-105856500D01*
X103940065Y-105854949D01*
X103920057Y-105851780D01*
X103914383Y-105852316D01*
X103847865Y-105830492D01*
X103803081Y-105775402D01*
X103795191Y-105704845D01*
X103825499Y-105642540D01*
X103827913Y-105639850D01*
X103833404Y-105635000D01*
X103935484Y-105490560D01*
X103938219Y-105483774D01*
X103938221Y-105483770D01*
X103976438Y-105388940D01*
X104001598Y-105326511D01*
X104018178Y-105217521D01*
X104048198Y-105153184D01*
X104108235Y-105115290D01*
X104179230Y-105115870D01*
X104208014Y-105128695D01*
X104351301Y-105215472D01*
X104358548Y-105217743D01*
X104358550Y-105217744D01*
X104424836Y-105238517D01*
X104514938Y-105266753D01*
X104588365Y-105273500D01*
X104591263Y-105273500D01*
X104845665Y-105273499D01*
X105101634Y-105273499D01*
X105104492Y-105273236D01*
X105104501Y-105273236D01*
X105141102Y-105269873D01*
X105175062Y-105266753D01*
X105181447Y-105264752D01*
X105331450Y-105217744D01*
X105331452Y-105217743D01*
X105338699Y-105215472D01*
X105485381Y-105126639D01*
X105606639Y-105005381D01*
X105695472Y-104858699D01*
X105699509Y-104845819D01*
X105739540Y-104718079D01*
X105746753Y-104695062D01*
X105753500Y-104621635D01*
X105753499Y-103958366D01*
X105753234Y-103955474D01*
X105747364Y-103891592D01*
X105746753Y-103884938D01*
X105695472Y-103721301D01*
X105606639Y-103574619D01*
X105515405Y-103483385D01*
X105481379Y-103421073D01*
X105478500Y-103394290D01*
X105478500Y-102834669D01*
X107281501Y-102834669D01*
X107281871Y-102841490D01*
X107287395Y-102892352D01*
X107291021Y-102907604D01*
X107336176Y-103028054D01*
X107344714Y-103043649D01*
X107421215Y-103145724D01*
X107433776Y-103158285D01*
X107535851Y-103234786D01*
X107551446Y-103243324D01*
X107671894Y-103288478D01*
X107687149Y-103292105D01*
X107738014Y-103297631D01*
X107744828Y-103298000D01*
X108279885Y-103298000D01*
X108295124Y-103293525D01*
X108296329Y-103292135D01*
X108298000Y-103284452D01*
X108298000Y-103279884D01*
X108806000Y-103279884D01*
X108810475Y-103295123D01*
X108811865Y-103296328D01*
X108819548Y-103297999D01*
X109359169Y-103297999D01*
X109365990Y-103297629D01*
X109416852Y-103292105D01*
X109432104Y-103288479D01*
X109552554Y-103243324D01*
X109568149Y-103234786D01*
X109623079Y-103193618D01*
X109689586Y-103168770D01*
X109758968Y-103183823D01*
X109805789Y-103228142D01*
X109857790Y-103312175D01*
X109866824Y-103323574D01*
X109977429Y-103433986D01*
X109988840Y-103442998D01*
X110121880Y-103525004D01*
X110135061Y-103531151D01*
X110283814Y-103580491D01*
X110297190Y-103583358D01*
X110388097Y-103592672D01*
X110393126Y-103592929D01*
X110408124Y-103588525D01*
X110409329Y-103587135D01*
X110411000Y-103579452D01*
X110411000Y-103574885D01*
X110919000Y-103574885D01*
X110923475Y-103590124D01*
X110924865Y-103591329D01*
X110932548Y-103593000D01*
X110935438Y-103593000D01*
X110941953Y-103592663D01*
X111034057Y-103583106D01*
X111047456Y-103580212D01*
X111196107Y-103530619D01*
X111209286Y-103524445D01*
X111342173Y-103442212D01*
X111359311Y-103428629D01*
X111360756Y-103430452D01*
X111413195Y-103401751D01*
X111484016Y-103406746D01*
X111520920Y-103430414D01*
X111521683Y-103429448D01*
X111538840Y-103442998D01*
X111671880Y-103525004D01*
X111685061Y-103531151D01*
X111833814Y-103580491D01*
X111847190Y-103583358D01*
X111938097Y-103592672D01*
X111943126Y-103592929D01*
X111958124Y-103588525D01*
X111959329Y-103587135D01*
X111961000Y-103579452D01*
X111961000Y-102882115D01*
X111956525Y-102866876D01*
X111955135Y-102865671D01*
X111947452Y-102864000D01*
X110937115Y-102864000D01*
X110921876Y-102868475D01*
X110920671Y-102869865D01*
X110919000Y-102877548D01*
X110919000Y-103574885D01*
X110411000Y-103574885D01*
X110411000Y-102882115D01*
X110406525Y-102866876D01*
X110405135Y-102865671D01*
X110397452Y-102864000D01*
X109793000Y-102864000D01*
X109724879Y-102843998D01*
X109678386Y-102790342D01*
X109667000Y-102738000D01*
X109667000Y-102737115D01*
X109662525Y-102721876D01*
X109661135Y-102720671D01*
X109653452Y-102719000D01*
X108824115Y-102719000D01*
X108808876Y-102723475D01*
X108807671Y-102724865D01*
X108806000Y-102732548D01*
X108806000Y-103279884D01*
X108298000Y-103279884D01*
X108298000Y-102737115D01*
X108293525Y-102721876D01*
X108292135Y-102720671D01*
X108284452Y-102719000D01*
X107299616Y-102719000D01*
X107284377Y-102723475D01*
X107283172Y-102724865D01*
X107281501Y-102732548D01*
X107281501Y-102834669D01*
X105478500Y-102834669D01*
X105478500Y-102553267D01*
X105479027Y-102542084D01*
X105480702Y-102534591D01*
X105479227Y-102487651D01*
X105478562Y-102466514D01*
X105478500Y-102462555D01*
X105478500Y-102434644D01*
X105477995Y-102430644D01*
X105477062Y-102418801D01*
X105475922Y-102382529D01*
X105475673Y-102374610D01*
X105470022Y-102355158D01*
X105466014Y-102335806D01*
X105465120Y-102328735D01*
X105463474Y-102315703D01*
X105460556Y-102308332D01*
X105447200Y-102274597D01*
X105443355Y-102263370D01*
X105441161Y-102255819D01*
X105431018Y-102220907D01*
X105426984Y-102214085D01*
X105426981Y-102214079D01*
X105420706Y-102203468D01*
X105412010Y-102185718D01*
X105407472Y-102174256D01*
X105407469Y-102174251D01*
X105404552Y-102166883D01*
X105378573Y-102131125D01*
X105372057Y-102121207D01*
X105353575Y-102089957D01*
X105349542Y-102083137D01*
X105335218Y-102068813D01*
X105322376Y-102053778D01*
X105320697Y-102051466D01*
X105310472Y-102037393D01*
X105310471Y-102037392D01*
X105312327Y-102036043D01*
X105285516Y-101983051D01*
X105292802Y-101912430D01*
X105337112Y-101856958D01*
X105404379Y-101834248D01*
X105453337Y-101842050D01*
X105484820Y-101853758D01*
X105484824Y-101853759D01*
X105491428Y-101856215D01*
X105498409Y-101857146D01*
X105498411Y-101857147D01*
X105647561Y-101877048D01*
X105647565Y-101877048D01*
X105654542Y-101877979D01*
X105661553Y-101877341D01*
X105661557Y-101877341D01*
X105811403Y-101863704D01*
X105811404Y-101863704D01*
X105818424Y-101863065D01*
X105854602Y-101851310D01*
X105968230Y-101814390D01*
X105968233Y-101814389D01*
X105974929Y-101812213D01*
X106116279Y-101727951D01*
X106235449Y-101614468D01*
X106295096Y-101524692D01*
X106349453Y-101479023D01*
X106419872Y-101469991D01*
X106483996Y-101500465D01*
G37*
G04 #@! TD.AperFunction*
G04 #@! TA.AperFunction,Conductor*
G36*
X81422420Y-107874028D02*
G01*
X81429909Y-107875702D01*
X81437714Y-107875457D01*
X81503602Y-107901765D01*
X81544836Y-107959560D01*
X81547597Y-107969466D01*
X81547989Y-107973468D01*
X81550213Y-107980153D01*
X81550213Y-107980154D01*
X81566659Y-108029593D01*
X81599932Y-108129615D01*
X81603581Y-108135640D01*
X81660941Y-108230351D01*
X81685179Y-108270373D01*
X81690070Y-108275438D01*
X81690071Y-108275439D01*
X81721851Y-108308348D01*
X81799491Y-108388747D01*
X81937189Y-108478854D01*
X82091428Y-108536215D01*
X82098409Y-108537146D01*
X82098411Y-108537147D01*
X82247561Y-108557048D01*
X82247565Y-108557048D01*
X82254542Y-108557979D01*
X82261553Y-108557341D01*
X82261557Y-108557341D01*
X82411403Y-108543704D01*
X82411404Y-108543704D01*
X82418424Y-108543065D01*
X82459505Y-108529717D01*
X82568230Y-108494390D01*
X82568233Y-108494389D01*
X82574929Y-108492213D01*
X82716279Y-108407951D01*
X82835449Y-108294468D01*
X82853541Y-108267238D01*
X82922614Y-108163275D01*
X82922615Y-108163273D01*
X82926515Y-108157403D01*
X82952323Y-108089462D01*
X82995211Y-108032884D01*
X83061880Y-108008474D01*
X83131162Y-108023983D01*
X83159206Y-108045110D01*
X83748741Y-108634646D01*
X84326348Y-109212253D01*
X84333888Y-109220539D01*
X84338000Y-109227018D01*
X84343777Y-109232443D01*
X84387651Y-109273643D01*
X84390493Y-109276398D01*
X84410230Y-109296135D01*
X84413427Y-109298615D01*
X84422447Y-109306318D01*
X84454679Y-109336586D01*
X84461625Y-109340405D01*
X84461628Y-109340407D01*
X84472434Y-109346348D01*
X84488953Y-109357199D01*
X84504959Y-109369614D01*
X84512235Y-109372762D01*
X84515281Y-109374564D01*
X84563734Y-109426456D01*
X84576440Y-109496306D01*
X84549366Y-109561938D01*
X84504393Y-109597213D01*
X84368489Y-109660586D01*
X84358993Y-109666069D01*
X84180533Y-109791028D01*
X84172125Y-109798084D01*
X84018084Y-109952125D01*
X84011028Y-109960533D01*
X83886069Y-110138993D01*
X83880586Y-110148489D01*
X83788510Y-110345947D01*
X83784764Y-110356239D01*
X83738606Y-110528503D01*
X83738942Y-110542599D01*
X83746884Y-110546000D01*
X85148000Y-110546000D01*
X85216121Y-110566002D01*
X85262614Y-110619658D01*
X85274000Y-110672000D01*
X85274000Y-112067967D01*
X85277973Y-112081498D01*
X85286522Y-112082727D01*
X85463761Y-112035236D01*
X85474053Y-112031490D01*
X85671511Y-111939414D01*
X85681007Y-111933931D01*
X85859467Y-111808972D01*
X85867875Y-111801916D01*
X86021916Y-111647875D01*
X86028972Y-111639467D01*
X86153931Y-111461007D01*
X86159414Y-111451511D01*
X86175529Y-111416951D01*
X86222446Y-111363666D01*
X86290723Y-111344205D01*
X86358683Y-111364747D01*
X86403919Y-111416951D01*
X86420151Y-111451762D01*
X86420154Y-111451767D01*
X86422477Y-111456749D01*
X86432784Y-111471469D01*
X86544802Y-111631446D01*
X86553802Y-111644300D01*
X86715700Y-111806198D01*
X86720208Y-111809355D01*
X86720211Y-111809357D01*
X86785872Y-111855333D01*
X86903251Y-111937523D01*
X86908233Y-111939846D01*
X86908238Y-111939849D01*
X87104765Y-112031490D01*
X87110757Y-112034284D01*
X87116065Y-112035706D01*
X87116067Y-112035707D01*
X87326598Y-112092119D01*
X87326600Y-112092119D01*
X87331913Y-112093543D01*
X87560000Y-112113498D01*
X87788087Y-112093543D01*
X87793400Y-112092119D01*
X87793402Y-112092119D01*
X88003933Y-112035707D01*
X88003935Y-112035706D01*
X88009243Y-112034284D01*
X88015235Y-112031490D01*
X88211762Y-111939849D01*
X88211767Y-111939846D01*
X88216749Y-111937523D01*
X88334128Y-111855333D01*
X88399789Y-111809357D01*
X88399792Y-111809355D01*
X88404300Y-111806198D01*
X88566198Y-111644300D01*
X88575199Y-111631446D01*
X88687216Y-111471469D01*
X88697523Y-111456749D01*
X88699846Y-111451767D01*
X88699849Y-111451762D01*
X88715805Y-111417543D01*
X88762722Y-111364258D01*
X88830999Y-111344797D01*
X88898959Y-111365339D01*
X88944195Y-111417543D01*
X88960151Y-111451762D01*
X88960154Y-111451767D01*
X88962477Y-111456749D01*
X88972784Y-111471469D01*
X89084802Y-111631446D01*
X89093802Y-111644300D01*
X89255700Y-111806198D01*
X89260208Y-111809355D01*
X89260211Y-111809357D01*
X89325872Y-111855333D01*
X89443251Y-111937523D01*
X89448233Y-111939846D01*
X89448238Y-111939849D01*
X89644765Y-112031490D01*
X89650757Y-112034284D01*
X89656065Y-112035706D01*
X89656067Y-112035707D01*
X89866598Y-112092119D01*
X89866600Y-112092119D01*
X89871913Y-112093543D01*
X90100000Y-112113498D01*
X90328087Y-112093543D01*
X90333400Y-112092119D01*
X90333402Y-112092119D01*
X90543933Y-112035707D01*
X90543935Y-112035706D01*
X90549243Y-112034284D01*
X90555235Y-112031490D01*
X90751762Y-111939849D01*
X90751767Y-111939846D01*
X90756749Y-111937523D01*
X90874128Y-111855333D01*
X90939789Y-111809357D01*
X90939792Y-111809355D01*
X90944300Y-111806198D01*
X91106198Y-111644300D01*
X91115199Y-111631446D01*
X91227216Y-111471469D01*
X91237523Y-111456749D01*
X91239846Y-111451767D01*
X91239849Y-111451762D01*
X91255805Y-111417543D01*
X91302722Y-111364258D01*
X91370999Y-111344797D01*
X91438959Y-111365339D01*
X91484195Y-111417543D01*
X91500151Y-111451762D01*
X91500154Y-111451767D01*
X91502477Y-111456749D01*
X91512784Y-111471469D01*
X91624802Y-111631446D01*
X91633802Y-111644300D01*
X91795700Y-111806198D01*
X91800208Y-111809355D01*
X91800211Y-111809357D01*
X91865872Y-111855333D01*
X91983251Y-111937523D01*
X91988233Y-111939846D01*
X91988238Y-111939849D01*
X92184765Y-112031490D01*
X92190757Y-112034284D01*
X92196065Y-112035706D01*
X92196067Y-112035707D01*
X92406598Y-112092119D01*
X92406600Y-112092119D01*
X92411913Y-112093543D01*
X92640000Y-112113498D01*
X92868087Y-112093543D01*
X92873400Y-112092119D01*
X92873402Y-112092119D01*
X93083933Y-112035707D01*
X93083935Y-112035706D01*
X93089243Y-112034284D01*
X93095235Y-112031490D01*
X93291762Y-111939849D01*
X93291767Y-111939846D01*
X93296749Y-111937523D01*
X93414128Y-111855333D01*
X93479789Y-111809357D01*
X93479792Y-111809355D01*
X93484300Y-111806198D01*
X93646198Y-111644300D01*
X93655199Y-111631446D01*
X93736177Y-111515797D01*
X93791634Y-111471469D01*
X93862254Y-111464160D01*
X93925614Y-111496191D01*
X93947109Y-111522702D01*
X93984496Y-111584314D01*
X93984499Y-111584318D01*
X93987405Y-111589107D01*
X93991114Y-111593306D01*
X93991117Y-111593311D01*
X93993509Y-111596019D01*
X93994803Y-111597484D01*
X94106230Y-111708911D01*
X94118616Y-111723323D01*
X94127149Y-111734918D01*
X94127154Y-111734923D01*
X94131492Y-111740818D01*
X94137070Y-111745557D01*
X94137073Y-111745560D01*
X94171768Y-111775035D01*
X94179284Y-111781965D01*
X94184979Y-111787660D01*
X94187861Y-111789940D01*
X94207251Y-111805281D01*
X94210655Y-111808072D01*
X94212168Y-111809357D01*
X94266285Y-111855333D01*
X94272801Y-111858661D01*
X94277850Y-111862028D01*
X94282979Y-111865195D01*
X94288716Y-111869734D01*
X94354875Y-111900655D01*
X94358769Y-111902558D01*
X94423808Y-111935769D01*
X94430916Y-111937508D01*
X94436559Y-111939607D01*
X94442322Y-111941524D01*
X94448950Y-111944622D01*
X94456112Y-111946112D01*
X94456113Y-111946112D01*
X94520412Y-111959486D01*
X94524696Y-111960456D01*
X94595610Y-111977808D01*
X94601212Y-111978156D01*
X94601215Y-111978156D01*
X94606764Y-111978500D01*
X94606762Y-111978536D01*
X94610755Y-111978775D01*
X94614947Y-111979149D01*
X94622115Y-111980640D01*
X94671637Y-111979300D01*
X94740273Y-111997452D01*
X94764139Y-112016159D01*
X94804619Y-112056639D01*
X94951301Y-112145472D01*
X94958549Y-112147743D01*
X94958548Y-112147743D01*
X94998186Y-112160165D01*
X95057208Y-112199623D01*
X95085528Y-112264727D01*
X95074154Y-112334807D01*
X95049601Y-112369494D01*
X94549500Y-112869595D01*
X94487188Y-112903621D01*
X94460405Y-112906500D01*
X82814583Y-112906500D01*
X82746462Y-112886498D01*
X82725488Y-112869595D01*
X80922416Y-111066522D01*
X83737273Y-111066522D01*
X83784764Y-111243761D01*
X83788510Y-111254053D01*
X83880586Y-111451511D01*
X83886069Y-111461007D01*
X84011028Y-111639467D01*
X84018084Y-111647875D01*
X84172125Y-111801916D01*
X84180533Y-111808972D01*
X84358993Y-111933931D01*
X84368489Y-111939414D01*
X84565947Y-112031490D01*
X84576239Y-112035236D01*
X84748503Y-112081394D01*
X84762599Y-112081058D01*
X84766000Y-112073116D01*
X84766000Y-111072115D01*
X84761525Y-111056876D01*
X84760135Y-111055671D01*
X84752452Y-111054000D01*
X83752033Y-111054000D01*
X83738502Y-111057973D01*
X83737273Y-111066522D01*
X80922416Y-111066522D01*
X80655894Y-110800000D01*
X78583486Y-108727592D01*
X78553590Y-108679934D01*
X78535609Y-108628301D01*
X78515680Y-108571071D01*
X78506918Y-108557048D01*
X78432209Y-108437490D01*
X78428476Y-108431516D01*
X78363770Y-108366357D01*
X78317486Y-108319748D01*
X78317482Y-108319745D01*
X78312522Y-108314750D01*
X78173580Y-108226574D01*
X78158677Y-108221267D01*
X78118669Y-108207021D01*
X78061205Y-108165327D01*
X78035404Y-108099185D01*
X78049459Y-108029593D01*
X78098907Y-107978648D01*
X78135600Y-107964895D01*
X78141403Y-107963704D01*
X78148424Y-107963065D01*
X78155126Y-107960887D01*
X78155128Y-107960887D01*
X78298230Y-107914390D01*
X78298233Y-107914389D01*
X78304929Y-107912213D01*
X78340059Y-107891271D01*
X78404577Y-107873500D01*
X81411233Y-107873500D01*
X81422420Y-107874028D01*
G37*
G04 #@! TD.AperFunction*
G04 #@! TA.AperFunction,Conductor*
G36*
X102355549Y-103414521D02*
G01*
X102412385Y-103457068D01*
X102437196Y-103523588D01*
X102419293Y-103597848D01*
X102350344Y-103711698D01*
X102344528Y-103721301D01*
X102293247Y-103884938D01*
X102286500Y-103958365D01*
X102286500Y-103961263D01*
X102286501Y-104600097D01*
X102266499Y-104668218D01*
X102212843Y-104714711D01*
X102142570Y-104724815D01*
X102116270Y-104718079D01*
X102072103Y-104701521D01*
X102056851Y-104697895D01*
X102005986Y-104692369D01*
X101999172Y-104692000D01*
X101464115Y-104692000D01*
X101448876Y-104696475D01*
X101447671Y-104697865D01*
X101446000Y-104705548D01*
X101446000Y-105653000D01*
X101425998Y-105721121D01*
X101372342Y-105767614D01*
X101320000Y-105779000D01*
X101064000Y-105779000D01*
X100995879Y-105758998D01*
X100949386Y-105705342D01*
X100938000Y-105653000D01*
X100938000Y-104780094D01*
X100958002Y-104711973D01*
X100974905Y-104690999D01*
X102222422Y-103443482D01*
X102284734Y-103409456D01*
X102355549Y-103414521D01*
G37*
G04 #@! TD.AperFunction*
M02*
